<?xml version="1.0" encoding="utf-8"?>
<!-- Generator: Adobe Illustrator 24.1.1, SVG Export Plug-In . SVG Version: 6.00 Build 0)  -->
<svg version="1.1" id="Layer_1" xmlns="http://www.w3.org/2000/svg" xmlns:xlink="http://www.w3.org/1999/xlink" x="0px" y="0px"
	 viewBox="0 0 200 200" style="enable-background:new 0 0 200 200;" xml:space="preserve">
<style type="text/css">
	.st0{fill:none;stroke:#251E8C;stroke-width:4;stroke-miterlimit:10;enable-background:new    ;}
	.st1{fill:none;stroke:#251E8C;stroke-width:9.4517;stroke-linecap:round;stroke-linejoin:round;}
	.st2{fill:none;stroke:#251E8C;stroke-width:9.5883;stroke-linecap:round;stroke-linejoin:round;}
	.st3{fill:none;stroke:#251E8C;stroke-width:9.0364;stroke-linecap:round;stroke-linejoin:round;}
</style>
<path class="st0" d="M129.5,191.3h-59c-34.1,0-61.8-27.7-61.8-61.8v-59c0-34.1,27.7-61.8,61.8-61.8h59.1c34.1,0,61.8,27.7,61.8,61.8
	v59.1C191.3,163.7,163.7,191.3,129.5,191.3z"/>
<path class="st1" d="M148.1,155.4H51.5c-6.4,0-11.1-5.4-11.1-11.4V78.9c0-6.6,5.3-11.4,11.1-11.4h96.6c6.4,0,11.1,5.4,11.1,11.4V144
	C159.2,150.5,154,155.4,148.1,155.4z"/>
<path class="st2" d="M80.8,67.4c0,0,3-21.7,20.5-21.7S123,67.4,123,67.4"/>
<line class="st1" x1="40.4" y1="103.6" x2="159.2" y2="103.6"/>
<line class="st3" x1="101.8" y1="90.3" x2="101.8" y2="115"/>
</svg>
