<?xml version="1.0" encoding="utf-8"?>
<!-- Generator: Adobe Illustrator 24.1.1, SVG Export Plug-In . SVG Version: 6.00 Build 0)  -->
<svg version="1.1" id="Layer_1" xmlns="http://www.w3.org/2000/svg" xmlns:xlink="http://www.w3.org/1999/xlink" x="0px" y="0px"
	 viewBox="0 0 200 200" style="enable-background:new 0 0 200 200;" xml:space="preserve">
<style type="text/css">
	.st0{fill:none;stroke:#07C1DB;stroke-width:4;stroke-miterlimit:10;enable-background:new    ;}
	.st1{fill:none;stroke:#07C1DB;stroke-width:8.8999;stroke-linecap:round;stroke-linejoin:round;}
</style>
<path class="st0" d="M129.5,191.3h-59c-34.1,0-61.8-27.7-61.8-61.8v-59c0-34.1,27.7-61.8,61.8-61.8h59.1c34.1,0,61.8,27.7,61.8,61.8
	v59.1C191.3,163.7,163.7,191.3,129.5,191.3z"/>
<g>
	<path class="st1" d="M40,141.3v-5.9c0-23.1,18.4-41.5,41.5-41.5l0,0"/>
	<path class="st1" d="M121.9,95.6c3.6-4.2,10.7-4.2,14.2,0l0,0c1.8,2.4,4.7,3,7.7,3l0,0c5.9,0,10.1,4.2,10.1,10.1l0,0
		c0,3,1.2,5.3,3,7.7l0,0c4.2,3.6,4.2,10.7,0,14.2l0,0c-2.4,1.8-3,4.7-3,7.7l0,0c0,5.9-4.2,10.1-10.1,10.1l0,0c-3,0-5.3,1.2-7.7,3
		l0,0c-3.6,4.2-10.7,4.2-14.2,0l0,0c-1.8-2.4-4.7-3-7.7-3l0,0c-5.9,0-10.1-4.2-10.1-10.1l0,0c0-3-1.2-5.3-3-7.7l0,0
		c-4.2-3.6-4.2-10.7,0-14.2l0,0c2.4-1.8,3-4.7,3-7.7l0,0c0-5.9,4.2-10.1,10.1-10.1l0,0C117.1,99.1,120.1,97.9,121.9,95.6L121.9,95.6
		z"/>
	<path class="st1" d="M119.5,123.5l6.5,6.5l13.1-13.1"/>
	<path class="st1" d="M81.5,93.8c13.1,0,23.7-10.7,23.7-23.7S94.6,46.3,81.5,46.3S57.8,57,57.8,70.1S68.5,93.8,81.5,93.8z"/>
</g>
</svg>
