<?xml version="1.0" encoding="utf-8"?>
<!-- Generator: Adobe Illustrator 24.1.1, SVG Export Plug-In . SVG Version: 6.00 Build 0)  -->
<svg version="1.1" id="Layer_1" xmlns="http://www.w3.org/2000/svg" xmlns:xlink="http://www.w3.org/1999/xlink" x="0px" y="0px"
	 viewBox="0 0 200 200" style="enable-background:new 0 0 200 200;" xml:space="preserve">
<style type="text/css">
	.st0{fill:none;stroke:#07C1DB;stroke-width:4;stroke-miterlimit:10;enable-background:new    ;}
	.st1{fill:none;stroke:#07C1DB;stroke-width:8;stroke-miterlimit:10;}
</style>
<path class="st0" d="M129.5,191.3h-59c-34.1,0-61.8-27.7-61.8-61.8v-59c0-34.1,27.7-61.8,61.8-61.8h59.1c34.1,0,61.8,27.7,61.8,61.8
	v59.1C191.3,163.7,163.7,191.3,129.5,191.3z"/>
<g>
	<circle class="st1" cx="67.6" cy="111.1" r="11.6"/>
	<path class="st1" d="M43,151.8c0,0,3.7-21.6,24.6-21.8c20.8-0.1,23.8,21.8,23.8,21.8"/>
</g>
<g>
	<circle class="st1" cx="129" cy="111.1" r="11.6"/>
	<path class="st1" d="M104.4,151.8c0,0,3.7-21.6,24.6-21.8c20.8-0.1,23.8,21.8,23.8,21.8"/>
</g>
<g>
	<circle class="st1" cx="98.3" cy="57.9" r="10.8"/>
	<path class="st1" d="M75.5,95.6c0,0,3.5-20,22.8-20.2c19.3-0.1,22.1,20.2,22.1,20.2"/>
</g>
</svg>
