<?xml version="1.0" encoding="utf-8"?>
<!-- Generator: Adobe Illustrator 24.1.1, SVG Export Plug-In . SVG Version: 6.00 Build 0)  -->
<svg version="1.1" id="Layer_1" xmlns="http://www.w3.org/2000/svg" xmlns:xlink="http://www.w3.org/1999/xlink" x="0px" y="0px"
	 viewBox="0 0 200 200" style="enable-background:new 0 0 200 200;" xml:space="preserve">
<style type="text/css">
	.st0{fill:none;stroke:#251E8C;stroke-width:4;stroke-miterlimit:10;enable-background:new    ;}
	.st1{fill:none;stroke:#251E8C;stroke-width:9.0027;stroke-linecap:round;stroke-linejoin:round;}
	.st2{fill:none;stroke:#251E8C;stroke-width:9.5524;stroke-linecap:round;stroke-linejoin:round;}
</style>
<path class="st0" d="M129.5,191.3h-59c-34.1,0-61.8-27.7-61.8-61.8v-59c0-34.1,27.7-61.8,61.8-61.8h59.1c34.1,0,61.8,27.7,61.8,61.8
	v59.1C191.3,163.7,163.7,191.3,129.5,191.3z"/>
<g>
	<path class="st1" d="M141.8,137.6H57.2c-6,0-10.8-4.8-10.8-10.8v-66c0-6,4.8-10.8,10.8-10.8h84.6c6,0,10.8,4.8,10.8,10.8v66
		C152.6,132.8,147.8,137.6,141.8,137.6z"/>
	<line class="st2" x1="38.5" y1="150.2" x2="159.8" y2="150.2"/>
</g>
</svg>
