<?xml version="1.0" encoding="utf-8"?>
<!-- Generator: Adobe Illustrator 24.1.1, SVG Export Plug-In . SVG Version: 6.00 Build 0)  -->
<svg version="1.1" id="Layer_1" xmlns="http://www.w3.org/2000/svg" xmlns:xlink="http://www.w3.org/1999/xlink" x="0px" y="0px"
	 viewBox="0 0 200 200" style="enable-background:new 0 0 200 200;" xml:space="preserve">
<style type="text/css">
	.st0{opacity:0.5;fill:none;stroke:#07C1DB;stroke-width:4;stroke-miterlimit:10;enable-background:new    ;}
	.st1{fill:none;stroke:#07C1DB;stroke-width:8;stroke-miterlimit:10;}
</style>
<path class="st0" d="M129.5,191.3h-59c-34.1,0-61.8-27.7-61.8-61.8v-59c0-34.1,27.7-61.8,61.8-61.8h59.1c34.1,0,61.8,27.7,61.8,61.8
	v59.1C191.3,163.7,163.7,191.3,129.5,191.3z"/>
<g>
	<path class="st1" d="M70.8,130.3"/>
	<path class="st1" d="M135.3,147.9H63.4c-8.6,0-15.5-6.9-15.5-15.5V83.8c0-8.6,6.9-15.5,15.5-15.5h71.9c8.6,0,15.5,6.9,15.5,15.5
		v48.7C150.8,141,143.9,147.9,135.3,147.9z"/>
	<line class="st1" x1="47.9" y1="96.5" x2="150.8" y2="96.5"/>
	<path class="st1" d="M82.1,60.7v7.5h32.5v-8c0-3.6-2.9-6.6-6.6-6.6h-19C85.2,53.7,82.1,56.8,82.1,60.7z"/>
</g>
<g>
	<circle class="st1" cx="98.3" cy="120.9" r="13.8"/>
	<line class="st1" x1="108.8" y1="129.9" x2="118" y2="139.1"/>
</g>
</svg>
