<svg xmlns="http://www.w3.org/2000/svg" xmlns:xlink="http://www.w3.org/1999/xlink" viewBox="0 0 486.46 379.29"><defs><style>.cls-1{isolation:isolate;}.cls-17,.cls-2{opacity:0.2;}.cls-3{opacity:0;}.cls-4{opacity:0.09;}.cls-5{opacity:0.18;}.cls-6{opacity:0.27;}.cls-7{opacity:0.36;}.cls-8{opacity:0.45;}.cls-9{opacity:0.55;}.cls-10{opacity:0.64;}.cls-11{opacity:0.73;}.cls-12{opacity:0.82;}.cls-13{opacity:0.91;}.cls-14{fill:url(#linear-gradient);}.cls-15{fill:url(#linear-gradient-2);}.cls-16{fill:url(#linear-gradient-3);}.cls-17{fill:url(#linear-gradient-4);}.cls-100,.cls-103,.cls-106,.cls-18,.cls-29,.cls-94{mix-blend-mode:color-dodge;}.cls-18{fill:url(#Radial_Gradient_1);}.cls-19{fill:url(#linear-gradient-5);}.cls-20{fill:#1f0d3d;}.cls-21{fill:#24285b;}.cls-22{fill:url(#linear-gradient-6);}.cls-23{fill:url(#linear-gradient-7);}.cls-24{fill:url(#linear-gradient-8);}.cls-25{fill:url(#linear-gradient-9);}.cls-26{fill:url(#linear-gradient-10);}.cls-27{fill:url(#linear-gradient-11);}.cls-28{fill:url(#linear-gradient-12);}.cls-29{fill:#3d065f;}.cls-30,.cls-44,.cls-56,.cls-68,.cls-92{opacity:0.3;}.cls-30{fill:url(#linear-gradient-13);}.cls-31{opacity:0.34;fill:url(#linear-gradient-14);}.cls-32{opacity:0.37;fill:url(#linear-gradient-15);}.cls-33{opacity:0.41;fill:url(#linear-gradient-16);}.cls-34{opacity:0.45;fill:url(#linear-gradient-17);}.cls-35{opacity:0.48;fill:url(#linear-gradient-18);}.cls-36{opacity:0.52;fill:url(#linear-gradient-19);}.cls-37{opacity:0.55;fill:url(#linear-gradient-20);}.cls-38{opacity:0.59;fill:url(#linear-gradient-21);}.cls-39{opacity:0.63;fill:url(#linear-gradient-22);}.cls-40{opacity:0.66;fill:url(#linear-gradient-23);}.cls-41,.cls-71,.cls-94{opacity:0.7;}.cls-41{fill:url(#linear-gradient-24);}.cls-42,.cls-55{opacity:0.8;}.cls-42,.cls-43,.cls-72,.cls-75,.cls-76,.cls-77,.cls-78,.cls-79,.cls-80,.cls-81,.cls-82,.cls-83,.cls-84,.cls-85,.cls-86,.cls-98{mix-blend-mode:screen;}.cls-42{fill:url(#New_Gradient_Swatch_1);}.cls-43{fill:url(#New_Gradient_Swatch_1-2);}.cls-44{fill:url(#linear-gradient-25);}.cls-45{opacity:0.35;fill:url(#linear-gradient-26);}.cls-46{opacity:0.39;fill:url(#linear-gradient-27);}.cls-47{opacity:0.44;fill:url(#linear-gradient-28);}.cls-48{opacity:0.48;fill:url(#linear-gradient-29);}.cls-49{opacity:0.53;fill:url(#linear-gradient-30);}.cls-50{opacity:0.57;fill:url(#linear-gradient-31);}.cls-51{opacity:0.62;fill:url(#linear-gradient-32);}.cls-52{opacity:0.66;fill:url(#linear-gradient-33);}.cls-53{opacity:0.71;fill:url(#linear-gradient-34);}.cls-54{opacity:0.75;fill:url(#linear-gradient-35);}.cls-55{fill:url(#linear-gradient-36);}.cls-56{fill:url(#linear-gradient-37);}.cls-57{opacity:0.35;fill:url(#linear-gradient-38);}.cls-58{opacity:0.41;fill:url(#linear-gradient-39);}.cls-59{opacity:0.46;fill:url(#linear-gradient-40);}.cls-60{opacity:0.52;fill:url(#linear-gradient-41);}.cls-61{opacity:0.57;fill:url(#linear-gradient-42);}.cls-62{opacity:0.63;fill:url(#linear-gradient-43);}.cls-63{opacity:0.68;fill:url(#linear-gradient-44);}.cls-64{opacity:0.74;fill:url(#linear-gradient-45);}.cls-65{opacity:0.79;fill:url(#linear-gradient-46);}.cls-66{opacity:0.85;fill:url(#linear-gradient-47);}.cls-67{opacity:0.9;fill:url(#linear-gradient-48);}.cls-68{fill:url(#linear-gradient-49);}.cls-69{opacity:0.4;fill:url(#linear-gradient-50);}.cls-70,.cls-89,.cls-93{opacity:0.5;}.cls-70{fill:url(#linear-gradient-51);}.cls-71{fill:url(#linear-gradient-52);}.cls-72{fill:url(#radial-gradient);}.cls-73{fill:url(#linear-gradient-53);}.cls-74{fill:url(#linear-gradient-54);}.cls-75{fill:url(#linear-gradient-55);}.cls-76{fill:url(#linear-gradient-56);}.cls-77{fill:url(#linear-gradient-57);}.cls-78{fill:url(#linear-gradient-58);}.cls-79{fill:url(#linear-gradient-59);}.cls-80{fill:url(#linear-gradient-60);}.cls-81{fill:url(#linear-gradient-61);}.cls-82{fill:url(#linear-gradient-62);}.cls-83{fill:url(#linear-gradient-63);}.cls-84{fill:url(#linear-gradient-64);}.cls-85{fill:url(#linear-gradient-65);}.cls-86{fill:url(#linear-gradient-66);}.cls-87{fill:url(#linear-gradient-67);}.cls-88{fill:url(#linear-gradient-68);}.cls-89{fill:#c7bcd6;}.cls-89,.cls-93{mix-blend-mode:multiply;}.cls-90{fill:url(#linear-gradient-69);}.cls-91{fill:url(#linear-gradient-70);}.cls-92{fill:url(#linear-gradient-71);}.cls-93{fill:url(#radial-gradient-2);}.cls-94{fill:url(#radial-gradient-3);}.cls-95{fill:url(#linear-gradient-72);}.cls-96{fill:url(#linear-gradient-73);}.cls-97{fill:url(#New_Gradient_Swatch_copy_7);}.cls-98{fill:url(#White_Black_1);}.cls-99{fill:url(#linear-gradient-74);}.cls-100{fill:url(#Radial_Gradient_1-2);}.cls-101{fill:url(#linear-gradient-75);}.cls-102{fill:url(#linear-gradient-76);}.cls-103{fill:url(#Radial_Gradient_1-3);}.cls-104{fill:url(#linear-gradient-77);}.cls-105{fill:url(#linear-gradient-78);}.cls-106{fill:url(#Radial_Gradient_1-4);}</style><linearGradient id="linear-gradient" x1="7060.7" y1="241.78" x2="7524.63" y2="241.78" gradientTransform="matrix(-1, 0, 0, 1, 7633.68, 0)" gradientUnits="userSpaceOnUse"><stop offset="0" stop-color="#2f054a"/><stop offset="1" stop-color="#5824b0"/></linearGradient><linearGradient id="linear-gradient-2" x1="109.05" y1="239.78" x2="572.98" y2="239.78" gradientUnits="userSpaceOnUse"><stop offset="0.06" stop-color="#24285b"/><stop offset="0.29" stop-color="#27255d"/><stop offset="0.47" stop-color="#311b61"/><stop offset="0.5" stop-color="#2d1f5f"/><stop offset="0.53" stop-color="#24285b"/><stop offset="0.57" stop-color="#2c205f"/><stop offset="0.63" stop-color="#311b61"/><stop offset="0.71" stop-color="#29235d"/><stop offset="0.81" stop-color="#24285b"/><stop offset="1" stop-color="#68e1fd"/></linearGradient><linearGradient id="linear-gradient-3" x1="7060.7" y1="229.78" x2="7524.63" y2="229.78" gradientTransform="matrix(-1, 0, 0, 1, 7633.68, 0)" gradientUnits="userSpaceOnUse"><stop offset="0" stop-color="#24285b"/><stop offset="1" stop-color="#68e1fd"/></linearGradient><linearGradient id="linear-gradient-4" x1="16.36" y1="291.67" x2="480.29" y2="291.67" gradientUnits="userSpaceOnUse"><stop offset="0.06" stop-color="#2f0d5e"/><stop offset="0.28" stop-color="#2f105f"/><stop offset="0.47" stop-color="#311b61"/><stop offset="0.48" stop-color="#351f65"/><stop offset="0.5" stop-color="#422c73"/><stop offset="0.51" stop-color="#584188"/><stop offset="0.52" stop-color="#765fa7"/><stop offset="0.53" stop-color="#8770b8"/><stop offset="0.54" stop-color="#7e67ae"/><stop offset="0.56" stop-color="#5c468d"/><stop offset="0.59" stop-color="#442e75"/><stop offset="0.61" stop-color="#362066"/><stop offset="0.63" stop-color="#311b61"/><stop offset="0.67" stop-color="#2a1155"/><stop offset="0.75" stop-color="#230446"/><stop offset="0.81" stop-color="#200041"/><stop offset="1" stop-color="#200041"/></linearGradient><radialGradient id="Radial_Gradient_1" cx="309.96" cy="281.09" r="176.33" gradientUnits="userSpaceOnUse"><stop offset="0" stop-color="#fff"/><stop offset="1"/></radialGradient><linearGradient id="linear-gradient-5" x1="7065.34" y1="229.78" x2="7520" y2="229.78" gradientTransform="matrix(-1, 0, 0, 1, 7633.68, 0)" gradientUnits="userSpaceOnUse"><stop offset="0" stop-color="#68e1fd"/><stop offset="1" stop-color="#24285b"/></linearGradient><linearGradient id="linear-gradient-6" x1="364.15" y1="114.08" x2="283.63" y2="516.7" gradientUnits="userSpaceOnUse"><stop offset="0.01" stop-color="#68e1fd"/><stop offset="0.43" stop-color="#24285b"/><stop offset="0.9" stop-color="#24285b"/></linearGradient><linearGradient id="linear-gradient-7" x1="9463.12" y1="-868.72" x2="9485.48" y2="-868.72" gradientTransform="matrix(-0.87, 0.5, -0.5, 1.44, 8285.32, -3254.05)" gradientUnits="userSpaceOnUse"><stop offset="0" stop-color="#3d065f"/><stop offset="1" stop-color="#5f27bd"/></linearGradient><linearGradient id="linear-gradient-8" x1="9463.12" y1="-868.72" x2="9485.48" y2="-868.72" gradientTransform="matrix(-0.87, 0.5, -0.5, 1.44, 8285.32, -3254.05)" xlink:href="#linear-gradient"/><linearGradient id="linear-gradient-9" x1="9438.78" y1="-802.47" x2="9429.53" y2="-785.23" gradientTransform="matrix(-0.87, 0.5, -0.5, 1.44, 8285.32, -3254.05)" gradientUnits="userSpaceOnUse"><stop offset="0.06" stop-color="#68e1fd"/><stop offset="0.22" stop-color="#6adffc"/><stop offset="0.3" stop-color="#72daf9"/><stop offset="0.36" stop-color="#7fd0f3"/><stop offset="0.41" stop-color="#92c3ea"/><stop offset="0.46" stop-color="#aab2e0"/><stop offset="0.49" stop-color="#c1a1d5"/><stop offset="0.51" stop-color="#c4a5d7"/><stop offset="0.52" stop-color="#cdb3dd"/><stop offset="0.53" stop-color="#dbc8e7"/><stop offset="0.55" stop-color="#efe7f4"/><stop offset="0.56" stop-color="#fff"/><stop offset="0.57" stop-color="#ece0f3"/><stop offset="0.58" stop-color="#ddc8ea"/><stop offset="0.59" stop-color="#d4b9e5"/><stop offset="0.6" stop-color="#d1b4e3"/><stop offset="0.66" stop-color="#b395d6"/><stop offset="0.72" stop-color="#9c7dcb"/><stop offset="0.77" stop-color="#8e6ec5"/><stop offset="0.81" stop-color="#8969c3"/><stop offset="1" stop-color="#68e1fd"/></linearGradient><linearGradient id="linear-gradient-10" x1="9489.34" y1="-868.72" x2="9511.7" y2="-868.72" xlink:href="#linear-gradient-7"/><linearGradient id="linear-gradient-11" x1="9489.34" y1="-868.72" x2="9511.7" y2="-868.72" gradientTransform="matrix(-0.87, 0.5, -0.5, 1.44, 8285.32, -3254.05)" xlink:href="#linear-gradient"/><linearGradient id="linear-gradient-12" x1="9459.13" y1="-791.52" x2="9449.87" y2="-774.27" gradientTransform="matrix(-0.87, 0.5, -0.5, 1.44, 8285.32, -3254.05)" gradientUnits="userSpaceOnUse"><stop offset="0.06" stop-color="#68e1fd"/><stop offset="0.22" stop-color="#6adffc"/><stop offset="0.3" stop-color="#72daf9"/><stop offset="0.36" stop-color="#7fd0f3"/><stop offset="0.41" stop-color="#92c3ea"/><stop offset="0.46" stop-color="#aab2e0"/><stop offset="0.49" stop-color="#c1a1d5"/><stop offset="0.51" stop-color="#c4a5d7"/><stop offset="0.52" stop-color="#cdb3dd"/><stop offset="0.53" stop-color="#dbc8e7"/><stop offset="0.55" stop-color="#efe7f4"/><stop offset="0.56" stop-color="#fff"/><stop offset="0.57" stop-color="#ece0f3"/><stop offset="0.58" stop-color="#ddc8ea"/><stop offset="0.59" stop-color="#d4b9e5"/><stop offset="0.6" stop-color="#d1b4e3"/><stop offset="0.62" stop-color="#d0b9bf"/><stop offset="0.66" stop-color="#d0c18a"/><stop offset="0.69" stop-color="#cfc85f"/><stop offset="0.73" stop-color="#cfcd3d"/><stop offset="0.76" stop-color="#ced025"/><stop offset="0.79" stop-color="#ced216"/><stop offset="0.81" stop-color="#ced311"/><stop offset="1" stop-color="#68e1fd"/></linearGradient><linearGradient id="linear-gradient-13" x1="345.25" y1="192.1" x2="301.4" y2="257.04" gradientUnits="userSpaceOnUse"><stop offset="0.01" stop-color="#fff"/><stop offset="0.21" stop-color="#f9f5fb"/><stop offset="0.56" stop-color="#e9dbf2"/><stop offset="0.97" stop-color="#d1b4e3"/></linearGradient><linearGradient id="linear-gradient-14" x1="345" y1="192.89" x2="302.07" y2="256.48" xlink:href="#linear-gradient-13"/><linearGradient id="linear-gradient-15" x1="344.76" y1="193.67" x2="302.7" y2="255.96" xlink:href="#linear-gradient-13"/><linearGradient id="linear-gradient-16" x1="344.53" y1="194.42" x2="303.3" y2="255.48" xlink:href="#linear-gradient-13"/><linearGradient id="linear-gradient-17" x1="344.3" y1="195.14" x2="303.85" y2="255.06" xlink:href="#linear-gradient-13"/><linearGradient id="linear-gradient-18" x1="344.08" y1="195.84" x2="304.36" y2="254.66" xlink:href="#linear-gradient-13"/><linearGradient id="linear-gradient-19" x1="343.71" y1="196.4" x2="304.67" y2="254.22" xlink:href="#linear-gradient-13"/><linearGradient id="linear-gradient-20" x1="343.25" y1="196.85" x2="304.79" y2="253.81" xlink:href="#linear-gradient-13"/><linearGradient id="linear-gradient-21" x1="342.72" y1="197.18" x2="304.74" y2="253.43" xlink:href="#linear-gradient-13"/><linearGradient id="linear-gradient-22" x1="342.19" y1="197.43" x2="304.56" y2="253.18" xlink:href="#linear-gradient-13"/><linearGradient id="linear-gradient-23" x1="341.43" y1="197.46" x2="304.04" y2="252.85" xlink:href="#linear-gradient-13"/><linearGradient id="linear-gradient-24" x1="340.59" y1="197.4" x2="303.38" y2="252.52" xlink:href="#linear-gradient-13"/><linearGradient id="New_Gradient_Swatch_1" x1="318.17" y1="274.9" x2="306.7" y2="173.87" xlink:href="#Radial_Gradient_1"/><linearGradient id="New_Gradient_Swatch_1-2" x1="317.81" y1="271.97" x2="308.68" y2="191.56" xlink:href="#Radial_Gradient_1"/><linearGradient id="linear-gradient-25" x1="306.86" y1="185.37" x2="318.14" y2="288.7" xlink:href="#linear-gradient-13"/><linearGradient id="linear-gradient-26" x1="307" y1="186.49" x2="318.09" y2="288.1" xlink:href="#linear-gradient-13"/><linearGradient id="linear-gradient-27" x1="307.13" y1="187.59" x2="318.04" y2="287.51" xlink:href="#linear-gradient-13"/><linearGradient id="linear-gradient-28" x1="307.26" y1="188.69" x2="317.99" y2="286.93" xlink:href="#linear-gradient-13"/><linearGradient id="linear-gradient-29" x1="307.39" y1="189.78" x2="317.93" y2="286.36" xlink:href="#linear-gradient-13"/><linearGradient id="linear-gradient-30" x1="307.51" y1="190.87" x2="317.87" y2="285.79" xlink:href="#linear-gradient-13"/><linearGradient id="linear-gradient-31" x1="307.63" y1="191.95" x2="317.81" y2="285.23" xlink:href="#linear-gradient-13"/><linearGradient id="linear-gradient-32" x1="307.74" y1="193.04" x2="317.75" y2="284.68" xlink:href="#linear-gradient-13"/><linearGradient id="linear-gradient-33" x1="307.85" y1="194.11" x2="317.68" y2="284.13" xlink:href="#linear-gradient-13"/><linearGradient id="linear-gradient-34" x1="307.96" y1="195.19" x2="317.61" y2="283.59" xlink:href="#linear-gradient-13"/><linearGradient id="linear-gradient-35" x1="308.06" y1="196.26" x2="317.54" y2="283.05" xlink:href="#linear-gradient-13"/><linearGradient id="linear-gradient-36" x1="308.16" y1="197.33" x2="317.46" y2="282.51" xlink:href="#linear-gradient-13"/><linearGradient id="linear-gradient-37" x1="319.13" y1="233.69" x2="326.48" y2="301.2" xlink:href="#linear-gradient-13"/><linearGradient id="linear-gradient-38" x1="318.92" y1="234.42" x2="326.07" y2="300.11" xlink:href="#linear-gradient-13"/><linearGradient id="linear-gradient-39" x1="318.71" y1="235.09" x2="325.68" y2="299.04" xlink:href="#linear-gradient-13"/><linearGradient id="linear-gradient-40" x1="318.52" y1="235.71" x2="325.3" y2="298" xlink:href="#linear-gradient-13"/><linearGradient id="linear-gradient-41" x1="318.34" y1="236.27" x2="324.95" y2="296.99" xlink:href="#linear-gradient-13"/><linearGradient id="linear-gradient-42" x1="318.18" y1="236.78" x2="324.62" y2="295.99" xlink:href="#linear-gradient-13"/><linearGradient id="linear-gradient-43" x1="318.05" y1="237.24" x2="324.34" y2="295.01" xlink:href="#linear-gradient-13"/><linearGradient id="linear-gradient-44" x1="317.97" y1="237.66" x2="324.11" y2="294.05" xlink:href="#linear-gradient-13"/><linearGradient id="linear-gradient-45" x1="318.04" y1="238.04" x2="324.03" y2="293.07" xlink:href="#linear-gradient-13"/><linearGradient id="linear-gradient-46" x1="318.22" y1="238.39" x2="324.07" y2="292.1" xlink:href="#linear-gradient-13"/><linearGradient id="linear-gradient-47" x1="318.58" y1="238.7" x2="324.29" y2="291.11" xlink:href="#linear-gradient-13"/><linearGradient id="linear-gradient-48" x1="319.28" y1="238.96" x2="324.85" y2="290.09" xlink:href="#linear-gradient-13"/><linearGradient id="linear-gradient-49" x1="317.95" y1="234.96" x2="267.32" y2="309.96" xlink:href="#linear-gradient-13"/><linearGradient id="linear-gradient-50" x1="316.32" y1="235.71" x2="269.66" y2="304.83" xlink:href="#linear-gradient-13"/><linearGradient id="linear-gradient-51" x1="315.68" y1="234.43" x2="271.67" y2="299.61" xlink:href="#linear-gradient-13"/><linearGradient id="linear-gradient-52" x1="314.94" y1="235.82" x2="275.39" y2="294.4" xlink:href="#linear-gradient-13"/><radialGradient id="radial-gradient" cx="287.32" cy="124.92" r="3.37" gradientUnits="userSpaceOnUse"><stop offset="0.09" stop-color="#1bb0d4"/><stop offset="0.1" stop-color="#1b89b4"/><stop offset="0.13" stop-color="#1b2b69"/><stop offset="0.16" stop-color="#172458"/><stop offset="0.22" stop-color="#10193d"/><stop offset="0.3" stop-color="#0a1026"/><stop offset="0.38" stop-color="#050915"/><stop offset="0.49" stop-color="#020409"/><stop offset="0.63" stop-color="#000102"/><stop offset="1"/></radialGradient><linearGradient id="linear-gradient-53" x1="337.86" y1="132.28" x2="358.99" y2="132.28" gradientUnits="userSpaceOnUse"><stop offset="0.02" stop-color="#182bb2"/><stop offset="0.29" stop-color="#1c2b93"/><stop offset="1" stop-color="#12054e"/><stop offset="1" stop-color="#24285b"/></linearGradient><linearGradient id="linear-gradient-54" x1="268.93" y1="132.28" x2="290.07" y2="132.28" xlink:href="#linear-gradient-53"/><linearGradient id="linear-gradient-55" x1="313.96" y1="183.5" x2="313.96" y2="222.44" gradientUnits="userSpaceOnUse"><stop offset="0" stop-color="#f8299a"/><stop offset="0.1" stop-color="#c9217d"/><stop offset="0.23" stop-color="#94195c"/><stop offset="0.36" stop-color="#671140"/><stop offset="0.49" stop-color="#420b29"/><stop offset="0.62" stop-color="#250617"/><stop offset="0.75" stop-color="#10030a"/><stop offset="0.88" stop-color="#040103"/><stop offset="1"/></linearGradient><linearGradient id="linear-gradient-56" x1="313.96" y1="183.55" x2="313.96" y2="221.88" gradientUnits="userSpaceOnUse"><stop offset="0" stop-color="#f93a9b"/><stop offset="0.08" stop-color="#d63285"/><stop offset="0.22" stop-color="#9e2562"/><stop offset="0.36" stop-color="#6e1a44"/><stop offset="0.49" stop-color="#46102c"/><stop offset="0.63" stop-color="#270919"/><stop offset="0.76" stop-color="#12040b"/><stop offset="0.88" stop-color="#040103"/><stop offset="1"/></linearGradient><linearGradient id="linear-gradient-57" x1="313.96" y1="183.6" x2="313.96" y2="221.31" gradientUnits="userSpaceOnUse"><stop offset="0" stop-color="#f94b9c"/><stop offset="0.05" stop-color="#e4458f"/><stop offset="0.2" stop-color="#a9336a"/><stop offset="0.35" stop-color="#752349"/><stop offset="0.49" stop-color="#4b172f"/><stop offset="0.63" stop-color="#2a0d1b"/><stop offset="0.77" stop-color="#13060c"/><stop offset="0.89" stop-color="#050103"/><stop offset="1"/></linearGradient><linearGradient id="linear-gradient-58" x1="313.96" y1="183.65" x2="313.96" y2="220.74" gradientUnits="userSpaceOnUse"><stop offset="0" stop-color="#fa5c9e"/><stop offset="0.01" stop-color="#f55a9b"/><stop offset="0.17" stop-color="#b54373"/><stop offset="0.33" stop-color="#7e2e50"/><stop offset="0.49" stop-color="#511e33"/><stop offset="0.64" stop-color="#2e111d"/><stop offset="0.77" stop-color="#15080d"/><stop offset="0.9" stop-color="#050203"/><stop offset="1"/></linearGradient><linearGradient id="linear-gradient-59" x1="313.96" y1="183.69" x2="313.96" y2="220.17" gradientUnits="userSpaceOnUse"><stop offset="0" stop-color="#fb6d9f"/><stop offset="0.14" stop-color="#c3557c"/><stop offset="0.32" stop-color="#893b57"/><stop offset="0.48" stop-color="#582638"/><stop offset="0.64" stop-color="#32161f"/><stop offset="0.78" stop-color="#160a0e"/><stop offset="0.9" stop-color="#060304"/><stop offset="1"/></linearGradient><linearGradient id="linear-gradient-60" x1="313.96" y1="183.74" x2="313.96" y2="219.6" gradientUnits="userSpaceOnUse"><stop offset="0" stop-color="#fb7ea0"/><stop offset="0.1" stop-color="#d56b88"/><stop offset="0.29" stop-color="#954b5f"/><stop offset="0.47" stop-color="#60303d"/><stop offset="0.63" stop-color="#361b23"/><stop offset="0.78" stop-color="#190c10"/><stop offset="0.91" stop-color="#060304"/><stop offset="1"/></linearGradient><linearGradient id="linear-gradient-61" x1="313.96" y1="183.79" x2="313.96" y2="219.03" gradientUnits="userSpaceOnUse"><stop offset="0" stop-color="#fc8fa1"/><stop offset="0.05" stop-color="#eb8596"/><stop offset="0.25" stop-color="#a45d69"/><stop offset="0.45" stop-color="#6a3c44"/><stop offset="0.62" stop-color="#3c2226"/><stop offset="0.78" stop-color="#1b0f11"/><stop offset="0.91" stop-color="#070405"/><stop offset="1"/></linearGradient><linearGradient id="linear-gradient-62" x1="313.96" y1="183.84" x2="313.96" y2="218.46" gradientUnits="userSpaceOnUse"><stop offset="0" stop-color="#fca0a2"/><stop offset="0.21" stop-color="#b67475"/><stop offset="0.42" stop-color="#764b4c"/><stop offset="0.61" stop-color="#432b2b"/><stop offset="0.78" stop-color="#1f1314"/><stop offset="0.91" stop-color="#080505"/><stop offset="1"/></linearGradient><linearGradient id="linear-gradient-63" x1="313.96" y1="183.89" x2="313.96" y2="217.89" gradientUnits="userSpaceOnUse"><stop offset="0" stop-color="#fdb1a3"/><stop offset="0.14" stop-color="#cf9185"/><stop offset="0.38" stop-color="#865e56"/><stop offset="0.59" stop-color="#4c3531"/><stop offset="0.77" stop-color="#231816"/><stop offset="0.91" stop-color="#090706"/><stop offset="1"/></linearGradient><linearGradient id="linear-gradient-64" x1="313.96" y1="183.94" x2="313.96" y2="217.32" gradientUnits="userSpaceOnUse"><stop offset="0" stop-color="#fec2a5"/><stop offset="0.05" stop-color="#efb69b"/><stop offset="0.32" stop-color="#9b7665"/><stop offset="0.56" stop-color="#584439"/><stop offset="0.76" stop-color="#291f1a"/><stop offset="0.91" stop-color="#0b0807"/><stop offset="1"/></linearGradient><linearGradient id="linear-gradient-65" x1="313.96" y1="183.99" x2="313.96" y2="216.75" gradientUnits="userSpaceOnUse"><stop offset="0" stop-color="#fed3a6"/><stop offset="0.23" stop-color="#b79877"/><stop offset="0.51" stop-color="#695745"/><stop offset="0.74" stop-color="#302820"/><stop offset="0.91" stop-color="#0d0b09"/><stop offset="1"/></linearGradient><linearGradient id="linear-gradient-66" x1="313.96" y1="184.04" x2="313.96" y2="216.18" gradientUnits="userSpaceOnUse"><stop offset="0" stop-color="#ffe4a7"/><stop offset="0.1" stop-color="#e1ca94"/><stop offset="0.43" stop-color="#827455"/><stop offset="0.71" stop-color="#3c3627"/><stop offset="0.9" stop-color="#110f0b"/><stop offset="1"/></linearGradient><linearGradient id="linear-gradient-67" x1="303.99" y1="176.93" x2="323.8" y2="176.93" xlink:href="#linear-gradient-53"/><linearGradient id="linear-gradient-68" x1="289.93" y1="161.61" x2="337.99" y2="161.61" gradientUnits="userSpaceOnUse"><stop offset="0" stop-color="#5c1ccc"/><stop offset="0.03" stop-color="#5520ce"/><stop offset="0.09" stop-color="#402bd4"/><stop offset="0.14" stop-color="#243add"/><stop offset="0.23" stop-color="#24285b"/><stop offset="0.26" stop-color="#2d2476"/><stop offset="0.33" stop-color="#4519ba"/><stop offset="0.38" stop-color="#5611ed"/><stop offset="0.54" stop-color="#24285b"/><stop offset="0.59" stop-color="#24285e"/><stop offset="0.64" stop-color="#242969"/><stop offset="0.68" stop-color="#242a7b"/><stop offset="0.72" stop-color="#252b94"/><stop offset="0.76" stop-color="#252db5"/><stop offset="0.8" stop-color="#2630dc"/><stop offset="0.82" stop-color="#2631ef"/><stop offset="0.86" stop-color="#262fd6"/><stop offset="0.93" stop-color="#252c96"/><stop offset="1" stop-color="#24285b"/></linearGradient><linearGradient id="linear-gradient-69" x1="276.13" y1="87.97" x2="351.31" y2="87.97" gradientUnits="userSpaceOnUse"><stop offset="0.01" stop-color="#465ae8"/><stop offset="0.03" stop-color="#5063e9"/><stop offset="0.07" stop-color="#6b7bed"/><stop offset="0.11" stop-color="#98a3f2"/><stop offset="0.16" stop-color="#d4d9fa"/><stop offset="0.2" stop-color="#fff"/><stop offset="0.23" stop-color="#f5f6fe"/><stop offset="0.28" stop-color="#dbdefb"/><stop offset="0.34" stop-color="#b1b7f6"/><stop offset="0.36" stop-color="#a2a9f4"/><stop offset="0.41" stop-color="#8f81ee"/><stop offset="0.47" stop-color="#7f60e9"/><stop offset="0.52" stop-color="#7348e5"/><stop offset="0.57" stop-color="#6c39e3"/><stop offset="0.61" stop-color="#6a34e2"/><stop offset="0.67" stop-color="#6433d7"/><stop offset="0.76" stop-color="#5530ba"/><stop offset="0.89" stop-color="#3d2c8b"/><stop offset="1" stop-color="#24285b"/></linearGradient><linearGradient id="linear-gradient-70" x1="299.55" y1="25.09" x2="339.19" y2="41.15" gradientUnits="userSpaceOnUse"><stop offset="0" stop-color="#24285b"/><stop offset="0.03" stop-color="#242962"/><stop offset="0.08" stop-color="#242c77"/><stop offset="0.13" stop-color="#253298"/><stop offset="0.19" stop-color="#2538c1"/><stop offset="0.34" stop-color="#3b13aa"/><stop offset="0.44" stop-color="#331a90"/><stop offset="0.56" stop-color="#2d2079"/><stop offset="0.68" stop-color="#282568"/><stop offset="0.82" stop-color="#25275e"/><stop offset="1" stop-color="#24285b"/></linearGradient><linearGradient id="linear-gradient-71" x1="331.36" y1="23.05" x2="280.17" y2="48.11" gradientUnits="userSpaceOnUse"><stop offset="0" stop-color="#5c1ccc"/><stop offset="0.04" stop-color="#6323d0"/><stop offset="0.09" stop-color="#7538da"/><stop offset="0.16" stop-color="#9259ea"/><stop offset="0.19" stop-color="#a56ef4"/><stop offset="0.34" stop-color="#7945d1"/><stop offset="0.44" stop-color="#6d37c7"/><stop offset="0.6" stop-color="#5e27ba"/><stop offset="0.77" stop-color="#561db2"/><stop offset="1" stop-color="#531ab0"/></linearGradient><radialGradient id="radial-gradient-2" cx="313.96" cy="-2941.65" r="53.35" gradientTransform="translate(0 4794.6) scale(1 1.6)" gradientUnits="userSpaceOnUse"><stop offset="0.53" stop-color="#fff"/><stop offset="0.58" stop-color="#fafafb"/><stop offset="0.64" stop-color="#ececf1"/><stop offset="0.71" stop-color="#d5d6df"/><stop offset="0.78" stop-color="#b4b6c7"/><stop offset="0.86" stop-color="#8a8ca8"/><stop offset="0.93" stop-color="#585b82"/><stop offset="1" stop-color="#24285b"/></radialGradient><radialGradient id="radial-gradient-3" cx="20257.92" cy="10405.39" r="63.8" gradientTransform="matrix(-0.22, 0.06, -0.24, -0.97, 7330.39, 9062.32)" gradientUnits="userSpaceOnUse"><stop offset="0" stop-color="#972a74"/><stop offset="0.02" stop-color="#8c276c"/><stop offset="0.11" stop-color="#671d4f"/><stop offset="0.21" stop-color="#471437"/><stop offset="0.32" stop-color="#2d0d23"/><stop offset="0.43" stop-color="#190713"/><stop offset="0.57" stop-color="#0b0308"/><stop offset="0.73" stop-color="#020102"/><stop offset="1"/></radialGradient><linearGradient id="linear-gradient-72" x1="286.15" y1="85.97" x2="306.59" y2="121.37" gradientUnits="userSpaceOnUse"><stop offset="0" stop-color="#5c1ccc"/><stop offset="0.04" stop-color="#5521d1"/><stop offset="0.09" stop-color="#4031df"/><stop offset="0.14" stop-color="#2942ef"/><stop offset="0.23" stop-color="#3149f4"/><stop offset="0.36" stop-color="#2a3fd9"/><stop offset="0.38" stop-color="#293ed6"/><stop offset="0.54" stop-color="#4916a1"/><stop offset="0.63" stop-color="#4719a3"/><stop offset="0.72" stop-color="#3f24a9"/><stop offset="0.79" stop-color="#3336b3"/><stop offset="0.82" stop-color="#2e3eb7"/><stop offset="0.95" stop-color="#4726b2"/><stop offset="1" stop-color="#531ab0"/></linearGradient><linearGradient id="linear-gradient-73" x1="277.81" y1="106.11" x2="306.31" y2="106.11" gradientUnits="userSpaceOnUse"><stop offset="0.04" stop-color="#374ef4"/><stop offset="0.36" stop-color="#2a4cf2"/><stop offset="0.5" stop-color="#2946d7"/><stop offset="0.78" stop-color="#263593"/><stop offset="1" stop-color="#24285b"/></linearGradient><linearGradient id="New_Gradient_Swatch_copy_7" x1="299.94" y1="119.76" x2="283.74" y2="91.69" gradientUnits="userSpaceOnUse"><stop offset="0.04" stop-color="#138bbd"/><stop offset="0.23" stop-color="#169ac7"/><stop offset="0.59" stop-color="#1fc3df"/><stop offset="1" stop-color="#2af6ff"/></linearGradient><linearGradient id="White_Black_1" x1="280.84" y1="89.44" x2="295.79" y2="108.2" xlink:href="#Radial_Gradient_1"/><linearGradient id="linear-gradient-74" x1="296.88" y1="122.02" x2="280.76" y2="94.09" gradientUnits="userSpaceOnUse"><stop offset="0" stop-color="#5c1ccc"/><stop offset="0.23" stop-color="#2252ef"/><stop offset="0.38" stop-color="#2c41db"/><stop offset="0.54" stop-color="#2f4fed"/><stop offset="0.63" stop-color="#2c4cea"/><stop offset="0.71" stop-color="#2141e1"/><stop offset="0.79" stop-color="#0f30d1"/><stop offset="0.79" stop-color="#0f30d1"/><stop offset="0.87" stop-color="#2828c5"/><stop offset="1" stop-color="#531ab0"/></linearGradient><radialGradient id="Radial_Gradient_1-2" cx="294.86" cy="105.71" r="15.29" xlink:href="#Radial_Gradient_1"/><linearGradient id="linear-gradient-75" x1="274.11" y1="186.05" x2="293.72" y2="126.02" gradientUnits="userSpaceOnUse"><stop offset="0.04" stop-color="#24285b"/><stop offset="0.18" stop-color="#262c6a"/><stop offset="0.47" stop-color="#2a3793"/><stop offset="0.87" stop-color="#3149d4"/><stop offset="1" stop-color="#344fea"/></linearGradient><linearGradient id="linear-gradient-76" x1="273.63" y1="165.72" x2="340.97" y2="145.56" gradientUnits="userSpaceOnUse"><stop offset="0.04" stop-color="#24285b"/><stop offset="0.2" stop-color="#242a6a"/><stop offset="0.51" stop-color="#243093"/><stop offset="0.94" stop-color="#2439d4"/><stop offset="1" stop-color="#243add"/></linearGradient><radialGradient id="Radial_Gradient_1-3" cx="-228.47" cy="-470.11" r="25.23" gradientTransform="translate(498.88 575.02) scale(0.89)" xlink:href="#Radial_Gradient_1"/><linearGradient id="linear-gradient-77" x1="347.77" y1="167.06" x2="337.07" y2="135.41" gradientUnits="userSpaceOnUse"><stop offset="0.04" stop-color="#24285b"/><stop offset="0.2" stop-color="#24285b"/><stop offset="0.59" stop-color="#24285b"/><stop offset="0.67" stop-color="#24285b"/><stop offset="0.8" stop-color="#24285b"/><stop offset="1" stop-color="#1b2daf"/></linearGradient><linearGradient id="linear-gradient-78" x1="285.58" y1="174.27" x2="390.69" y2="150.7" gradientTransform="matrix(-1, 0, 0, 1, 681.33, 0)" xlink:href="#linear-gradient-75"/><radialGradient id="Radial_Gradient_1-4" cx="334.52" cy="153.97" r="22.44" xlink:href="#Radial_Gradient_1"/></defs><g class="cls-1"><g id="_1" data-name=" 1"><g class="cls-2"><path class="cls-3" d="M264.42,389c7.91,0,15.09-1.73,20.77-5L574.57,217.38c7.57-4.37,11.92-11.29,11.91-19,0-8.43-5.23-16.29-14.35-21.55L447.31,104.78a51.19,51.19,0,0,0-25.22-6.41c-7.92,0-15.1,1.73-20.77,5L111.94,270c-7.58,4.37-11.92,11.29-11.92,19,0,8.43,5.23,16.28,14.35,21.55l124.82,72.07A51.2,51.2,0,0,0,264.42,389Z" transform="translate(-100.02 -9.68)"/><path class="cls-4" d="M401.55,103.88,112.17,270.45c-7.28,4.2-11.4,10.8-11.36,18.11,0,8,5,15.46,13.79,20.51L233.81,377.9c.19.11,6,3.44,6.24,3.51a49.74,49.74,0,0,0,25.38,5.69,44.67,44.67,0,0,0,20.48-5.47L573.7,216c7.27-4.2,11.4-10.8,11.36-18.11,0-8-5-15.47-13.79-20.52L447.19,105.71a52.44,52.44,0,0,0-9.2-4.09,53.52,53.52,0,0,0-15.77-2.57C414.36,99,407.17,100.63,401.55,103.88Z" transform="translate(-100.02 -9.68)"/><path class="cls-5" d="M401.78,104.38,112.4,270.94c-7,4-10.88,10.31-10.81,17.24.07,7.55,4.86,14.64,13.24,19.49L234.6,376.81c.39.22,5.86,3.32,6.31,3.46a48.35,48.35,0,0,0,25.54,5c6.48,0,15.55-3.25,20.19-5.93L572.83,214.57c7-4,10.88-10.31,10.81-17.24-.08-7.55-4.86-14.64-13.24-19.48L447.07,106.64a59.77,59.77,0,0,0-9.1-4.15,53.53,53.53,0,0,0-15.63-2.77C414.55,99.56,407.35,101.16,401.78,104.38Z" transform="translate(-100.02 -9.68)"/><path class="cls-6" d="M402,104.88,112.63,271.44c-6.68,3.86-10.36,9.82-10.25,16.37.11,7.1,4.67,13.82,12.69,18.45L235.4,375.73c.57.33,5.7,3.2,6.37,3.4a46.79,46.79,0,0,0,25.7,4.24c5.76,0,15.77-4,19.9-6.4L572,213.16c6.68-3.86,10.36-9.81,10.25-16.36-.1-7.11-4.67-13.83-12.68-18.45L447,107.57a71.32,71.32,0,0,0-9-4.22,53.19,53.19,0,0,0-15.48-3C414.75,100.16,407.53,101.69,402,104.88Z" transform="translate(-100.02 -9.68)"/><path class="cls-7" d="M402.25,105.37,112.86,271.94c-6.38,3.69-9.83,9.33-9.69,15.49.14,6.67,4.48,13,12.13,17.42l120.89,69.8c.77.44,5.54,3.07,6.44,3.34a45.35,45.35,0,0,0,25.86,3.52c5,0,16-4.78,19.6-6.86l283-162.9c6.38-3.68,9.84-9.32,9.7-15.49-.14-6.66-4.48-13-12.13-17.41L446.82,108.5a82.08,82.08,0,0,0-8.9-4.28,52.81,52.81,0,0,0-15.33-3.16C414.94,100.76,407.71,102.22,402.25,105.37Z" transform="translate(-100.02 -9.68)"/><path class="cls-8" d="M402.48,105.87,113.1,272.44c-6.09,3.51-9.32,8.83-9.15,14.62.18,6.22,4.3,12.18,11.58,16.38L237,373.56a67.05,67.05,0,0,0,6.5,3.29,43.87,43.87,0,0,0,26,2.79c4.32,0,16.22-5.53,19.31-7.32l281.4-162c6.09-3.52,9.32-8.84,9.15-14.62-.18-6.23-4.3-12.18-11.58-16.39L446.7,109.43c-1.55-.9-7-3.7-8.8-4.35a52.41,52.41,0,0,0-15.18-3.35C415.13,101.35,407.89,102.75,402.48,105.87Z" transform="translate(-100.02 -9.68)"/><path class="cls-9" d="M402.71,106.37,113.33,272.94c-5.79,3.34-8.8,8.34-8.59,13.74.22,5.78,4.11,11.36,11,15.35l122,70.45a60.56,60.56,0,0,0,6.56,3.24c8.29,3.43,18.31,4.22,26.19,2.06,3.6,0,16.44-6.3,19-7.78L569.36,208.94c5.78-3.34,8.8-8.34,8.58-13.75-.21-5.78-4.11-11.36-11-15.35L446.58,110.36c-1.3-.75-7.23-3.86-8.7-4.41a52.17,52.17,0,0,0-15-3.54C415.32,102,408.07,103.28,402.71,106.37Z" transform="translate(-100.02 -9.68)"/><path class="cls-10" d="M402.94,106.87,113.56,273.44c-5.49,3.17-8.28,7.84-8,12.87.25,5.34,3.92,10.54,10.46,14.32L238.57,371.4a50.6,50.6,0,0,0,6.63,3.18c8.47,3.31,18.67,3.86,26.35,1.34,2.88,0,16.66-7.06,18.73-8.25L568.49,207.53c5.49-3.17,8.28-7.85,8-12.87-.25-5.34-3.92-10.54-10.46-14.32l-119.6-69c-1-.6-7.43-4-8.61-4.48A51.77,51.77,0,0,0,423,103.08C415.51,102.54,408.24,103.81,402.94,106.87Z" transform="translate(-100.02 -9.68)"/><path class="cls-11" d="M403.18,107.37,113.79,273.94c-5.19,3-7.76,7.35-7.48,12,.29,4.9,3.74,9.72,9.92,13.29l123.13,71.09a44.58,44.58,0,0,0,6.7,3.13c8.66,3.2,19,3.5,26.51.62,2.16,0,16.89-7.82,18.43-8.72L567.62,206.12c5.19-3,7.76-7.35,7.48-12-.29-4.9-3.74-9.73-9.91-13.29L446.33,112.22c-.77-.45-7.62-4.19-8.5-4.55a51.88,51.88,0,0,0-14.73-3.92C415.7,103.14,408.42,104.34,403.18,107.37Z" transform="translate(-100.02 -9.68)"/><path class="cls-12" d="M403.41,107.87,114,274.44c-4.9,2.82-7.24,6.86-6.93,11.12.32,4.46,3.55,8.9,9.36,12.25l123.7,71.42a40.3,40.3,0,0,0,6.76,3.07c8.85,3.08,19.4,3.13,26.67-.11,1.44,0,17.11-8.58,18.14-9.17l275-158.3c4.89-2.83,7.24-6.87,6.93-11.13-.33-4.46-3.56-8.9-9.36-12.25L446.21,113.15c-.52-.3-7.82-4.37-8.41-4.61a51.52,51.52,0,0,0-14.57-4.12C415.89,103.73,408.6,104.87,403.41,107.87Z" transform="translate(-100.02 -9.68)"/><path class="cls-13" d="M403.64,108.37,114.26,274.93c-4.6,2.66-6.72,6.37-6.37,10.26s3.36,8.07,8.8,11.21L241,368.15a37.21,37.21,0,0,0,6.83,3c9,3,19.76,2.77,26.83-.83.72,0,17.33-9.34,17.85-9.64L565.88,203.31c4.6-2.66,6.72-6.37,6.37-10.25s-3.36-8.08-8.8-11.22L446.09,114.08c-.26-.15-8-4.55-8.31-4.68-4.44-1.88-9.3-3.77-14.43-4.31C416.08,104.33,408.78,105.4,403.64,108.37Z" transform="translate(-100.02 -9.68)"/><path d="M275.63,368.47,565,201.9c8.69-5,7.6-13.77-2.43-19.56L437.76,110.27c-10-5.79-25.2-6.42-33.89-1.41L114.49,275.43c-8.68,5-7.6,13.78,2.43,19.56l124.82,72.07C251.77,372.85,266.94,373.48,275.63,368.47Z" transform="translate(-100.02 -9.68)"/></g><path class="cls-14" d="M234.63,370.57,117.93,303.2c-13.16-7.6-11.51-20.88,3.69-29.65L396,115.11c15.2-8.77,38.19-9.72,51.36-2.12l116.7,67.37c13.16,7.6,11.51,20.88-3.69,29.65L286,368.44C270.79,377.22,247.8,378.17,234.63,370.57Z" transform="translate(-100.02 -9.68)"/><path class="cls-15" d="M234.63,368.57,117.93,301.2c-5.88-3.4-8.8-7.93-8.88-12.68,0-.42,0-9.57,0-10,.49-5.51,4.72-2.48,12.53-7L396,113.12c15.2-8.78,38.19-9.73,51.36-2.13l116.7,67.37c5.88,3.4,8.8-2.58,8.89,2.17,0,.42,0,11.33-.05,11.75-.47,5.51-4.7,11.22-12.53,15.73L286,366.45C270.79,375.22,247.8,376.17,234.63,368.57Z" transform="translate(-100.02 -9.68)"/><path class="cls-16" d="M234.63,358.57,117.93,291.2c-13.16-7.6-11.51-20.88,3.69-29.65L396,103.12c15.2-8.78,38.19-9.73,51.36-2.13l116.7,67.37c13.16,7.6,11.51,20.88-3.69,29.65L286,356.45C270.79,365.22,247.8,366.17,234.63,358.57Z" transform="translate(-100.02 -9.68)"/><path class="cls-17" d="M573,195.8a4,4,0,0,0-.22-1.42c1.17,6.43-3,13.51-12.36,18.9L286,371.71c-15.2,8.78-38.19,9.73-51.36,2.13l-116.7-67.38c-5.67-3.28-8.58-7.61-8.85-12.19,0,2,0,9.14,0,9.51.08,4.76,3,9.28,8.88,12.68l116.7,67.38c13.17,7.6,36.16,6.64,51.36-2.13L560.4,223.28c7.82-4.52,12.06-10.23,12.53-15.74C573,207.12,573,196.21,573,195.8Z" transform="translate(-100.02 -9.68)"/><path class="cls-18" d="M117.93,289.89l116.7,67.37c13.17,7.6,36.16,6.65,51.36-2.13L560.4,196.7c8-4.62,12.24-10.48,12.55-16.11.33,6-3.92,12.44-12.55,17.42L286,356.45c-15.2,8.77-38.19,9.72-51.36,2.12L117.93,291.2c-6.23-3.6-9.14-8.48-8.86-13.54C109.32,282.25,112.24,286.6,117.93,289.89Z" transform="translate(-100.02 -9.68)"/><path class="cls-19" d="M124.71,263.52,399.45,104.9c13.32-7.7,33.48-8.53,45-1.87l116.08,67c11.54,6.66,10.09,18.3-3.23,26L282.58,354.66c-13.33,7.7-33.49,8.53-45,1.87l-116.08-67C109.93,282.85,111.38,271.21,124.71,263.52Z" transform="translate(-100.02 -9.68)"/><path class="cls-20" d="M130,265.81,403.41,108c11.15-6.44,28-7.14,37.68-1.56L554.7,172c9.65,5.58,8.44,15.32-2.71,21.76L278.61,351.59c-11.15,6.44-28,7.14-37.68,1.56L127.32,287.56C117.67,282,118.88,272.24,130,265.81Z" transform="translate(-100.02 -9.68)"/><path class="cls-21" d="M537.58,164.78c-5.6,3.24-14.72,3.23-20.36,0l-63.57-36.7c-5.64-3.26-5.67-8.52-.06-11.76L440.1,108.5c-9.1-5.26-23.82-5.28-32.86-.06L130.85,268c-9,5.22-9,13.71.1,19l111,64.07c9.1,5.26,23.82,5.28,32.86.06l276.4-159.57c9-5.23,9-13.72-.1-19Z" transform="translate(-100.02 -9.68)"/><path class="cls-22" d="M258.45,352.77a31,31,0,0,0,15.21-3.6L550.05,189.6c3.63-2.1,5.63-4.76,5.63-7.49s-2-5.46-5.73-7.59l-12.42-7.17a23.72,23.72,0,0,1-10.07,2.1,23.12,23.12,0,0,1-11.36-2.75L452.53,130c-3.47-2-5.38-4.79-5.38-7.86a8,8,0,0,1,2.41-5.57L439,110.45a34.08,34.08,0,0,0-30.61-.06L132,270c-3.63,2.09-5.63,4.75-5.63,7.48s2,5.46,5.73,7.59l111,64.07A31.29,31.29,0,0,0,258.45,352.77Z" transform="translate(-100.02 -9.68)"/><path class="cls-23" d="M508.57,236.7l12.73-7.35a6.88,6.88,0,0,0,2.87-5.49h0c0-2.12-1.29-3.09-2.87-2.17L508.57,229a6.91,6.91,0,0,0-2.87,5.49h0C505.7,236.64,507,237.61,508.57,236.7Z" transform="translate(-100.02 -9.68)"/><path class="cls-24" d="M508.57,236.7l12.73-7.35a6.88,6.88,0,0,0,2.87-5.49h0c0-2.12-1.29-3.09-2.87-2.17L508.57,229a6.91,6.91,0,0,0-2.87,5.49h0C505.7,236.64,507,237.61,508.57,236.7Z" transform="translate(-100.02 -9.68)"/><path class="cls-25" d="M507.43,236.29a1.62,1.62,0,0,0,.77-.24l12.72-7.35a6.17,6.17,0,0,0,2.5-4.84c0-.82-.26-1.77-1-1.77a1.61,1.61,0,0,0-.76.25L509,229.68a6.14,6.14,0,0,0-2.5,4.84C506.45,235.34,506.7,236.29,507.43,236.29Z" transform="translate(-100.02 -9.68)"/><path class="cls-26" d="M485.87,249.81l12.71-7.35a6.86,6.86,0,0,0,2.88-5.49h0c0-2.12-1.29-3.09-2.88-2.17l-12.71,7.34a6.89,6.89,0,0,0-2.88,5.49h0C483,249.75,484.28,250.72,485.87,249.81Z" transform="translate(-100.02 -9.68)"/><path class="cls-27" d="M485.87,249.81l12.71-7.35a6.86,6.86,0,0,0,2.88-5.49h0c0-2.12-1.29-3.09-2.88-2.17l-12.71,7.34a6.89,6.89,0,0,0-2.88,5.49h0C483,249.75,484.28,250.72,485.87,249.81Z" transform="translate(-100.02 -9.68)"/><path class="cls-28" d="M484.72,249.4a1.62,1.62,0,0,0,.77-.24l12.72-7.34a6.18,6.18,0,0,0,2.5-4.85c0-.82-.26-1.77-1-1.77a1.61,1.61,0,0,0-.77.25l-12.72,7.34a6.14,6.14,0,0,0-2.5,4.84C483.74,248.45,484,249.4,484.72,249.4Z" transform="translate(-100.02 -9.68)"/><path class="cls-29" d="M375,305.28,560.4,197.76c7.82-4.51,12.06-10.22,12.53-15.73,0-.19,0-2.41,0-4.87,0,0,0,11.45,0,11.87-.47,5.51-4.71,11.22-12.53,15.73Z" transform="translate(-100.02 -9.68)"/><path d="M165.61,327.91,186.5,340h0c0-3.82-2.32-8.25-5.18-9.9L170.8,324c-2.87-1.65-5.19.11-5.19,3.92Z" transform="translate(-100.02 -9.68)"/><path class="cls-30" d="M358.46,231.46c-.58,0-1.14,0-1.7.08a6.44,6.44,0,0,0,.16-1.32c0-5.4-7-9.78-15.72-9.78a21.3,21.3,0,0,0-11.17,2.9c-2.78-3.83-8.95-6.5-16.14-6.5-6.27,0-11.76,2-14.91,5.09a19.2,19.2,0,0,0-10.16-2.67c-7.13,0-13,3.27-14.05,7.53-.65,0-1.32-.09-2-.09-8.19,0-14.83,4.13-14.83,9.23s6.64,9.24,14.83,9.24c7.64,0,13.93-3.61,14.74-8.23.43,0,.87,0,1.31,0a19,19,0,0,0,10.47-2.87c3.19,2.89,8.53,4.79,14.6,4.79,5.44,0,10.31-1.53,13.56-3.94,2.68,3,7.83,5,13.75,5a24.64,24.64,0,0,0,4.54-.42c.17,4.29,5.79,7.74,12.72,7.74s12.75-3.55,12.75-7.93S365.5,231.46,358.46,231.46Z" transform="translate(-100.02 -9.68)"/><path class="cls-31" d="M273.4,226.67c.62,0,1.25,0,1.89,0,.86-3.14,4.58-5.75,9.53-6.68a21.35,21.35,0,0,1,4.29-.37,20.32,20.32,0,0,1,6.33,1.05,19.22,19.22,0,0,1,3.54,1.59,22.84,22.84,0,0,1,3.14-2.2,23.61,23.61,0,0,1,11.77-2.89,22.78,22.78,0,0,1,12.62,3.44,17.92,17.92,0,0,1,3.52,3.06,27.47,27.47,0,0,1,2.49-1.22,22.16,22.16,0,0,1,8.68-1.68c6.76,0,12.37,2.7,14.38,6.25h0c.06.1.11.2.16.3a7.78,7.78,0,0,1,.72,3,6.84,6.84,0,0,1-.11,1.28c.53,0,1.06,0,1.62,0a30,30,0,0,1,4.68.68l.42.1c.48.12.94.26,1.39.41,3.81,1.3,6.29,3.77,6.29,6.44,0,2.35-2,4.61-5.12,5.93a18.53,18.53,0,0,1-7.87,1.28,20,20,0,0,1-4-.74,27,27,0,0,1-3.15-1l-.82-.35a10.79,10.79,0,0,1-2.92-1.88,5.86,5.86,0,0,1-2-3.49,24.21,24.21,0,0,1-4.52.21c-.57,0-1.12-.08-1.65-.15-1.39-.18-2.75-.43-4.05-.72-1-.23-2-.49-3-.78a14.23,14.23,0,0,1-5.1-2.88,18.08,18.08,0,0,1-4.15,2.07,25.28,25.28,0,0,1-9.48,1.35c-.66,0-1.3-.09-1.93-.17-1.2-.16-2.4-.34-3.55-.56-1-.18-1.92-.37-2.81-.6a17.74,17.74,0,0,1-6.34-3l-.48.27c-.28.15-.57.3-.87.44l-.23.1a29,29,0,0,1-6.39,2.06,17.49,17.49,0,0,1-2.3.27c-.43,0-.87,0-1.3,0a8.37,8.37,0,0,1-4.5,5.15,21.33,21.33,0,0,1-10.44,2.09c-7.44-.2-12.95-4.12-12.59-8.78a6.08,6.08,0,0,1,1-3,7.76,7.76,0,0,1,.5-.67C263.19,228.94,268,226.9,273.4,226.67Z" transform="translate(-100.02 -9.68)"/><path class="cls-32" d="M274,226.64c.57,0,1.17-.1,1.79-.13.9-2.95,4.55-5.43,9.41-6.27a21.84,21.84,0,0,1,4.17-.31,19.66,19.66,0,0,1,6.14,1.11,26.3,26.3,0,0,1,3.45,1.51c.94-.69,2-1.41,3.18-2.12a22.72,22.72,0,0,1,11.73-3c5.18,0,9.68,1.44,12.57,3.54a32.44,32.44,0,0,1,3.57,3c.78-.38,1.63-.78,2.51-1.18a21.43,21.43,0,0,1,8.66-1.72c6.75,0,12.21,2.74,14,6.11h0a1.57,1.57,0,0,1,.13.29,9.64,9.64,0,0,1,.66,2.95,8.57,8.57,0,0,1-.07,1.25c.5,0,1,.06,1.53.13,1.55.18,3.12.47,4.59.78l.42.09c.49.1.94.23,1.38.36,3.93,1.19,6.43,3.63,6.43,6.08,0,2.17-2,4.45-5.38,5.64a18.4,18.4,0,0,1-7.85.86,24.49,24.49,0,0,1-3.77-1c-1.09-.34-2.16-.68-3.15-1l-.83-.3a11.26,11.26,0,0,1-3-1.66,5.9,5.9,0,0,1-2.2-3.19,23.33,23.33,0,0,1-4.5,0c-.56-.06-1.1-.15-1.62-.25l-4-.82c-1.05-.21-2.05-.39-3-.61a14.3,14.3,0,0,1-5.16-2.34,18.55,18.55,0,0,1-4.22,1.92,24.84,24.84,0,0,1-9.5,1,18.71,18.71,0,0,1-1.89-.26c-1.18-.23-2.38-.44-3.53-.63-1-.17-1.93-.3-2.81-.46a17.38,17.38,0,0,1-6.42-2.5l-.49.25c-.28.14-.58.27-.88.39l-.24.1c-2,.76-4.15,1.68-6.25,2.26a14.84,14.84,0,0,1-2.22.43c-.42.05-.85.07-1.28.09a8.38,8.38,0,0,1-4.77,4.8A22.46,22.46,0,0,1,271,243.2c-6.7-.4-11.09-4.08-10.35-8.33a6,6,0,0,1,1.08-2.67,6.66,6.66,0,0,1,.49-.59C264.56,229.06,269.12,227.1,274,226.64Z" transform="translate(-100.02 -9.68)"/><path class="cls-33" d="M274.65,226.61c.51-.08,1.07-.17,1.67-.24,1-2.76,4.52-5.12,9.3-5.86a20.76,20.76,0,0,1,4.05-.24,18.56,18.56,0,0,1,5.94,1.16c1.21.46,2.35.94,3.37,1.43,1-.62,2.08-1.31,3.21-2a21.91,21.91,0,0,1,11.7-3c5.28,0,9.78,1.53,12.51,3.64,1.32,1,2.58,2,3.63,2.86.8-.34,1.65-.72,2.53-1.13a20.74,20.74,0,0,1,8.64-1.77c6.74,0,12,2.78,13.65,6h0a1.18,1.18,0,0,1,.11.29,12.26,12.26,0,0,1,.59,2.89,9.58,9.58,0,0,1,0,1.2c.45.07.93.14,1.43.24,1.49.28,3,.61,4.5.88l.42.08c.49.09.94.2,1.37.31,4.06,1.09,6.58,3.49,6.58,5.74,0,2-2.09,4.27-5.64,5.33a17.65,17.65,0,0,1-7.84.44,32.85,32.85,0,0,1-3.57-1.34c-1.06-.37-2.13-.72-3.14-1l-.84-.26a11.85,11.85,0,0,1-3.06-1.44,6.1,6.1,0,0,1-2.44-2.89,22.14,22.14,0,0,1-4.48-.18c-.56-.09-1.09-.21-1.58-.34-1.31-.36-2.68-.68-4-.91-1-.19-2.05-.31-3-.44a14.79,14.79,0,0,1-5.24-1.81,18.45,18.45,0,0,1-4.29,1.76,24.18,24.18,0,0,1-9.5.61,17.68,17.68,0,0,1-1.87-.37,35.71,35.71,0,0,0-3.51-.7c-1-.15-1.93-.23-2.81-.31a17.22,17.22,0,0,1-6.49-2l-.5.22c-.29.13-.59.24-.9.35l-.24.08c-2,.68-4.17,1.72-6.1,2.47a11.19,11.19,0,0,1-2.14.59c-.41.08-.84.12-1.27.16a8.53,8.53,0,0,1-5,4.44c-3.54,1.34-7.32,1.12-10.32.82-5.94-.59-9.23-4-8.1-7.86a6,6,0,0,1,1.13-2.37c.15-.18.31-.36.48-.53C265.94,229.17,270.23,227.29,274.65,226.61Z" transform="translate(-100.02 -9.68)"/><path class="cls-34" d="M275.27,226.58c.47-.11,1-.24,1.57-.35,1-2.57,4.49-4.8,9.18-5.45a21.39,21.39,0,0,1,3.94-.18,18.17,18.17,0,0,1,5.74,1.22c1.16.47,2.27.92,3.28,1.35a37.43,37.43,0,0,0,3.25-2,21.09,21.09,0,0,1,11.66-3.13c5.38,0,9.88,1.61,12.46,3.74,1.28,1.05,2.57,2,3.68,2.76a26.71,26.71,0,0,0,2.55-1.09,20,20,0,0,1,8.62-1.81c6.72,0,11.87,2.82,13.28,5.81h0a1,1,0,0,1,.09.28,20.75,20.75,0,0,1,.53,2.83c0,.4,0,.79,0,1.17.42.11.87.21,1.34.34,1.43.38,2.95.75,4.41,1l.42.06c.49.07.94.17,1.36.27,4.2,1,6.72,3.35,6.72,5.38,0,1.81-2.14,4.11-5.9,5a22.77,22.77,0,0,1-7.82,0,30.23,30.23,0,0,0-3.36-1.63,26.82,26.82,0,0,0-3.14-1l-.85-.22a12.68,12.68,0,0,1-3.13-1.22,6.42,6.42,0,0,1-2.67-2.59,20.74,20.74,0,0,1-4.47-.38,10.52,10.52,0,0,1-1.55-.44,22.75,22.75,0,0,0-4-1,27.2,27.2,0,0,0-3-.26,15.16,15.16,0,0,1-5.3-1.28,18.9,18.9,0,0,1-4.36,1.6,23.48,23.48,0,0,1-9.52.25,16.3,16.3,0,0,1-1.83-.47,20.1,20.1,0,0,0-3.5-.78,23,23,0,0,0-2.81-.16,17,17,0,0,1-6.56-1.5l-.51.2-.91.29-.25.07a33.6,33.6,0,0,0-6,2.69,9.25,9.25,0,0,1-2.06.74,11.17,11.17,0,0,1-1.25.22,8.69,8.69,0,0,1-5.3,4.08c-3.84,1.21-7.61.59-10.25.19-5.18-.78-8-4.16-5.86-7.4a4.31,4.31,0,0,1,1.19-2.07c.15-.15.3-.31.47-.45C267.32,229.28,271.35,227.49,275.27,226.58Z" transform="translate(-100.02 -9.68)"/><path class="cls-35" d="M275.9,226.55c.41-.14.89-.3,1.45-.46,1.06-2.38,4.47-4.48,9.07-5a21.08,21.08,0,0,1,3.82-.11,17.07,17.07,0,0,1,5.54,1.27c1.11.48,2.21.9,3.2,1.27a18.59,18.59,0,0,0,3.28-1.89,20.5,20.5,0,0,1,11.63-3.2c5.48,0,10,1.7,12.41,3.84a21.48,21.48,0,0,0,3.73,2.66,15.47,15.47,0,0,0,2.56-1A19.48,19.48,0,0,1,341.2,222c6.71,0,11.71,2.86,12.91,5.66h0a1,1,0,0,1,.08.28c.14.9.36,1.83.46,2.76,0,.39.05.77.07,1.14.39.15.81.29,1.25.44a22.6,22.6,0,0,0,4.32,1.09l.42.06a12.29,12.29,0,0,1,1.35.22c4.33.86,6.87,3.2,6.87,5,0,1.63-2.21,3.93-6.17,4.72a20.8,20.8,0,0,1-7.8-.4,15.19,15.19,0,0,0-3.15-1.93,17,17,0,0,0-3.14-1.05l-.86-.17a13.46,13.46,0,0,1-3.2-1,7.14,7.14,0,0,1-2.91-2.3,19.89,19.89,0,0,1-4.45-.57,10.33,10.33,0,0,1-1.52-.54,14.49,14.49,0,0,0-3.92-1.1,15.82,15.82,0,0,0-3-.08,15.66,15.66,0,0,1-5.37-.75,19.59,19.59,0,0,1-4.42,1.45,23,23,0,0,1-9.53-.12,13.09,13.09,0,0,1-1.8-.57,13.64,13.64,0,0,0-3.48-.86,15.54,15.54,0,0,0-2.81,0,16.76,16.76,0,0,1-6.64-1l-.51.17c-.31.09-.62.18-.93.25l-.26.06a18.29,18.29,0,0,0-5.81,2.89,7.42,7.42,0,0,1-2,.9c-.39.12-.8.2-1.24.29a9.1,9.1,0,0,1-5.56,3.72c-4.15,1.07-7.91.06-10.19-.44-4.41-1-6.35-4.17-3.63-7a4.08,4.08,0,0,1,1.25-1.76c.15-.13.3-.26.47-.39A35.9,35.9,0,0,1,275.9,226.55Z" transform="translate(-100.02 -9.68)"/><path class="cls-36" d="M276.52,226.52c.36-.16.81-.37,1.35-.57,1.1-2.18,4.44-4.16,8.95-4.63a19.87,19.87,0,0,1,3.7,0,16.1,16.1,0,0,1,5.35,1.32,28.39,28.39,0,0,0,3.11,1.19A13.12,13.12,0,0,0,302.3,222a19.74,19.74,0,0,1,11.59-3.28c5.58,0,10.08,1.8,12.35,3.93A13.32,13.32,0,0,0,330,225.2a11.77,11.77,0,0,0,2.58-1,18.9,18.9,0,0,1,8.59-1.91c6.7,0,11.54,2.9,12.54,5.51h0a.84.84,0,0,1,.06.28c.08.88.28,1.79.39,2.7.05.37.08.74.12,1.1q.54.27,1.17.54a14.73,14.73,0,0,0,4.22,1.2l.42,0c.5,0,.93.11,1.34.17,4.47.74,7,3.07,7,4.68,0,1.45-2.27,3.77-6.42,4.43a19,19,0,0,1-7.8-.82,9.75,9.75,0,0,0-2.93-2.23,11.88,11.88,0,0,0-3.14-1.06c-.29-.05-.58-.1-.87-.13a14.39,14.39,0,0,1-3.26-.77,8.14,8.14,0,0,1-3.16-2,18.73,18.73,0,0,1-4.43-.78,8.9,8.9,0,0,1-1.48-.63,11.19,11.19,0,0,0-3.9-1.2,10.78,10.78,0,0,0-3,.1,15.79,15.79,0,0,1-5.43-.22,19.38,19.38,0,0,1-4.49,1.29,22.28,22.28,0,0,1-9.55-.48,12.76,12.76,0,0,1-1.77-.68,10.44,10.44,0,0,0-3.46-.92,10.86,10.86,0,0,0-2.81.13,16.06,16.06,0,0,1-6.7-.5l-.53.14c-.32.08-.63.15-.95.2l-.26,0a12.49,12.49,0,0,0-5.67,3.11,6,6,0,0,1-1.9,1,11.58,11.58,0,0,1-1.21.36,9.68,9.68,0,0,1-5.84,3.36c-4.46.92-8.19-.46-10.12-1.07-3.63-1.14-4.66-4.18-1.39-6.49a3.85,3.85,0,0,1,1.31-1.45l.45-.33A83.3,83.3,0,0,1,276.52,226.52Z" transform="translate(-100.02 -9.68)"/><path class="cls-37" d="M277.15,226.49a9.86,9.86,0,0,1,1.24-.68c1.15-2,4.4-3.85,8.83-4.22a19.57,19.57,0,0,1,3.59,0A15.28,15.28,0,0,1,296,223a16.7,16.7,0,0,0,3,1.11,9.58,9.58,0,0,0,3.35-1.73c2.29-1.79,6.33-3.36,11.56-3.36,5.69,0,10.18,1.89,12.3,4a10,10,0,0,0,3.84,2.47,9,9,0,0,0,2.6-.95,18.35,18.35,0,0,1,8.57-1.95c6.69,0,11.37,2.93,12.18,5.36h0a.71.71,0,0,1,0,.27,20,20,0,0,0,.33,2.64c.05.36.1.72.16,1.06a11,11,0,0,0,1.08.65,10.69,10.69,0,0,0,4.13,1.3l.42,0c.5,0,.93.08,1.33.13,4.61.61,7.15,2.92,7.15,4.33s-2.32,3.59-6.68,4.12a16,16,0,0,1-7.78-1.24,7.6,7.6,0,0,0-2.72-2.53,9.27,9.27,0,0,0-3.14-1.06,8.75,8.75,0,0,0-.88-.09,14.86,14.86,0,0,1-3.33-.55,9.41,9.41,0,0,1-3.4-1.69,17.07,17.07,0,0,1-4.41-1,7.84,7.84,0,0,1-1.45-.73,8.93,8.93,0,0,0-3.87-1.29,8.77,8.77,0,0,0-3,.27,15.64,15.64,0,0,1-5.49.32,20.3,20.3,0,0,1-4.56,1.14,21.59,21.59,0,0,1-9.56-.86,10.64,10.64,0,0,1-1.74-.77,8.43,8.43,0,0,0-6.25-.72,15.64,15.64,0,0,1-6.78,0l-.54.11c-.32.06-.64.12-1,.16l-.27,0a9.39,9.39,0,0,0-5.52,3.32,5,5,0,0,1-1.82,1.2c-.37.16-.77.29-1.2.43a10.48,10.48,0,0,1-6.1,3,17.06,17.06,0,0,1-10.06-1.7c-2.84-1.29-3-4.19.85-6a4,4,0,0,1,1.36-1.15l.45-.25C271.49,229.64,274.72,228,277.15,226.49Z" transform="translate(-100.02 -9.68)"/><path class="cls-38" d="M277.77,226.46a5.79,5.79,0,0,1,1.13-.79c1.2-1.8,4.38-3.53,8.72-3.81a19.12,19.12,0,0,1,3.47.09,14.57,14.57,0,0,1,5,1.43,11.23,11.23,0,0,0,2.94,1,7.82,7.82,0,0,0,3.39-1.65c2.16-1.79,6.19-3.44,11.52-3.44,5.79,0,10.27,2,12.24,4.13a7.92,7.92,0,0,0,3.9,2.37,7.64,7.64,0,0,0,2.62-.9,17.77,17.77,0,0,1,8.55-2c6.68,0,11.21,3,11.81,5.22h0a.75.75,0,0,1,0,.26,12.45,12.45,0,0,0,.26,2.57c.07.36.13.7.22,1a8.74,8.74,0,0,0,1,.76,8.58,8.58,0,0,0,4,1.4h.42c.5,0,.93.05,1.32.08,4.75.47,7.3,2.79,7.3,4s-2.39,3.43-6.95,3.82a13.6,13.6,0,0,1-7.76-1.66,6.23,6.23,0,0,0-2.51-2.82,7.49,7.49,0,0,0-3.13-1.07,6.79,6.79,0,0,0-.9-.05,16.55,16.55,0,0,1-3.4-.33,11.16,11.16,0,0,1-3.64-1.39,16,16,0,0,1-4.39-1.18,7.82,7.82,0,0,1-1.42-.82,7.35,7.35,0,0,0-3.83-1.39,7.18,7.18,0,0,0-3,.45,15.75,15.75,0,0,1-5.56.85,20.47,20.47,0,0,1-4.62,1,21.07,21.07,0,0,1-9.58-1.22,11.4,11.4,0,0,1-1.71-.87,7.24,7.24,0,0,0-3.42-1.08,7.17,7.17,0,0,0-2.81.43,15.1,15.1,0,0,1-6.85.5l-.55.08c-.33,0-.65.09-1,.11l-.27,0a7.57,7.57,0,0,0-5.38,3.52,4.44,4.44,0,0,1-1.73,1.36A10.15,10.15,0,0,1,282,237a11.24,11.24,0,0,1-6.36,2.64,15,15,0,0,1-10-2.33c-2-1.39-1.26-4.19,3.1-5.58a4.3,4.3,0,0,1,1.41-.84l.45-.19A26.23,26.23,0,0,0,277.77,226.46Z" transform="translate(-100.02 -9.68)"/><path class="cls-39" d="M278.4,226.43a4,4,0,0,1,1-.9c1.25-1.61,4.35-3.21,8.6-3.4a18.63,18.63,0,0,1,3.35.15,13.81,13.81,0,0,1,4.75,1.49,8.25,8.25,0,0,0,2.86.95,6.65,6.65,0,0,0,3.42-1.57c2.06-1.79,6.06-3.52,11.49-3.52,5.89,0,10.36,2.09,12.19,4.23a6.55,6.55,0,0,0,3.95,2.27,6.18,6.18,0,0,0,2.63-.86,17.34,17.34,0,0,1,8.54-2c6.67,0,11,3,11.44,5.07h0a.76.76,0,0,1,0,.26,8.55,8.55,0,0,0,.2,2.51,8,8,0,0,0,.26,1,6.63,6.63,0,0,0,.89.86,7,7,0,0,0,4,1.5h.41c.5,0,.93,0,1.31,0,4.88.32,7.44,2.64,7.44,3.62s-2.45,3.26-7.2,3.53-7.19-1.61-7.75-2.08a5.59,5.59,0,0,0-2.31-3.13,6.46,6.46,0,0,0-3.12-1.08,6.91,6.91,0,0,0-.91,0,17.42,17.42,0,0,1-3.47-.11,13.57,13.57,0,0,1-3.88-1.09,15.3,15.3,0,0,1-4.37-1.37,7.34,7.34,0,0,1-1.38-.92,6.32,6.32,0,0,0-3.81-1.49,6.09,6.09,0,0,0-3,.63,15.69,15.69,0,0,1-5.62,1.38,21.28,21.28,0,0,1-4.69.82,20.45,20.45,0,0,1-9.59-1.58,10.44,10.44,0,0,1-1.68-1,6.39,6.39,0,0,0-3.41-1.15,6.22,6.22,0,0,0-2.8.57,14.33,14.33,0,0,1-6.93,1l-.56.07q-.5,0-1,.06h-.29a6.36,6.36,0,0,0-5.22,3.74,4.08,4.08,0,0,1-1.66,1.51,10.66,10.66,0,0,1-1.17.56,12.55,12.55,0,0,1-6.63,2.28c-5.39.39-9-1.92-9.94-3-1.27-1.42.65-3.42,5.34-5.13a10.21,10.21,0,0,1,1.47-.54l.44-.11A12.92,12.92,0,0,0,278.4,226.43Z" transform="translate(-100.02 -9.68)"/><path class="cls-40" d="M279,226.4a3.08,3.08,0,0,1,.91-1c1.3-1.42,4.33-2.89,8.49-3a18.25,18.25,0,0,1,3.24.22,12.92,12.92,0,0,1,4.55,1.54A6.19,6.19,0,0,0,299,225a5.69,5.69,0,0,0,3.46-1.5c1.94-1.78,5.92-3.59,11.45-3.59,6,0,10.45,2.19,12.13,4.33a4.77,4.77,0,0,0,6.66,1.36,16.87,16.87,0,0,1,8.52-2.09c6.65,0,10.87,3.05,11.07,4.92h0a.94.94,0,0,1,0,.25,6.6,6.6,0,0,0,.43,3.41,5.51,5.51,0,0,0,.8,1,5.85,5.85,0,0,0,3.87,1.61h.41c.51,0,.92,0,1.3,0,5,.16,7.59,2.5,7.59,3.27s-2.52,3.09-7.47,3.22-7.44-2-7.73-2.5a5.2,5.2,0,0,0-2.1-3.42,5.56,5.56,0,0,0-3.12-1.09,5.67,5.67,0,0,0-.92,0,18.21,18.21,0,0,1-3.54.11,15.72,15.72,0,0,1-4.11-.78,14.44,14.44,0,0,1-4.36-1.58,7.29,7.29,0,0,1-1.35-1,5.59,5.59,0,0,0-3.78-1.59,5.46,5.46,0,0,0-3,.81,15.53,15.53,0,0,1-5.69,1.91,22,22,0,0,1-4.75.67,20.06,20.06,0,0,1-9.6-1.95,10.23,10.23,0,0,1-1.65-1.08,5.56,5.56,0,0,0-3.39-1.22,5.44,5.44,0,0,0-2.81.71,14.07,14.07,0,0,1-7,1.5l-.57,0c-.34,0-.67,0-1,0h-.29a5.56,5.56,0,0,0-5.08,3.94,3.61,3.61,0,0,1-1.57,1.66,9.59,9.59,0,0,1-1.16.63,13.92,13.92,0,0,1-6.89,1.92c-5.69.2-9.35-2.32-9.88-3.59s2.18-3.76,7.57-4.67c.43-.07.91-.18,1.53-.23l.43,0A7.6,7.6,0,0,0,279,226.4Z" transform="translate(-100.02 -9.68)"/><path class="cls-41" d="M358.46,240.71c-5.15,0-7.69-2.34-7.71-2.92a5,5,0,0,0-5-4.81,5.84,5.84,0,0,0-.93.08,19.63,19.63,0,0,1-3.61.34c-4.84,0-8.51-1.7-10-3.38a5,5,0,0,0-6.73-.69c-2.49,1.85-6.45,2.95-10.57,2.95-4.55,0-8.86-1.34-11.24-3.49a5,5,0,0,0-6.18-.44,14,14,0,0,1-7.65,2l-1,0h-.3a5,5,0,0,0-4.93,4.15c-.25,1.43-3.83,4.08-9.8,4.08s-9.81-2.77-9.81-4.22,3.82-4.22,9.81-4.22c.46,0,1,0,1.59.08h.42a5,5,0,0,0,4.87-3.83c.31-1.29,3.73-3.7,9.17-3.7a14.38,14.38,0,0,1,7.47,1.88,5,5,0,0,0,6.18-.63c1.83-1.77,5.79-3.67,11.42-3.67,6.09,0,10.53,2.3,12.08,4.43a5,5,0,0,0,6.73,1.3,16.49,16.49,0,0,1,8.5-2.13c6.64,0,10.7,3.09,10.7,4.77h0a1.36,1.36,0,0,1,0,.25,5,5,0,0,0,4.9,6.08l.41,0c.51,0,.92-.06,1.29-.06,5.16,0,7.73,2.36,7.73,2.92S363.62,240.71,358.46,240.71Z" transform="translate(-100.02 -9.68)"/><path class="cls-42" d="M304.54,176.74c-11.7,37.1-13.54,51.64-32.53,63-39.75,23.85,79.66,28.11,92.16,18.22s-20.11-15.92-25.51-34.36c-9.22-31.47-15.41-47.57-15.41-47.57Z" transform="translate(-100.02 -9.68)"/><path class="cls-43" d="M306.72,178.29c-9.35,36.43-10.82,50.71-26,61.91-31.8,23.42,63.73,27.6,73.73,17.89S338.34,242.45,334,224.35c-7.37-30.9-12.32-46.72-12.32-46.72Z" transform="translate(-100.02 -9.68)"/><path class="cls-44" d="M379.48,252.27c0-6.09-7.93-11-17.71-11l-.7,0c0-.12,0-.23,0-.35,0-6.09-7.93-11-17.71-11-.56,0-1.12,0-1.67.05-.62-2.68-5.28-4.77-11-4.77-6.09,0-11,2.41-11,5.39,0,2.46,3.39,4.53,8,5.18a7.88,7.88,0,0,0-2.08,5.18c0,3.63,2.83,6.84,7.19,8.85a23.12,23.12,0,0,0-10.35,4.94,17.5,17.5,0,0,0-8.29-1.85,18.85,18.85,0,0,0-7.11,1.28c-3-5.9-11.92-10.17-22.41-10.17-.48,0-1,0-1.43,0a9.66,9.66,0,0,0-3.21-4.62c3.61-.89,6.09-2.71,6.09-4.81,0-3-4.94-5.39-11-5.39s-11,2.41-11,5.39a2.33,2.33,0,0,0,0,.38c-9,.54-16,5.25-16,11,0,3.77,3.05,7.1,7.69,9.08a3.29,3.29,0,0,0-1,2.24c0,2.3,2.95,4.25,7.09,5,2.42,5.87,10.53,10.32,20.45,10.93,1.9,1.62,5.47,2.72,9.56,2.72a22.65,22.65,0,0,0,3.15-.23c2.71,3.91,8.95,6.66,16.24,6.66,5.59,0,10.56-1.63,13.81-4.16a20.93,20.93,0,0,0,3.9.36c4.31,0,8-1.22,9.85-3,.4,0,.78,0,1.18,0,9.64,0,15.31-3.93,18.43-7.36l.62,0c6.09,0,11-2.41,11-5.39a3.12,3.12,0,0,0-.05-.44C374.68,261.26,379.48,258.53,379.48,252.27Z" transform="translate(-100.02 -9.68)"/><path class="cls-45" d="M264.13,235.05a4.68,4.68,0,0,1,2.31-3.1,14.71,14.71,0,0,1,2.4-1.33,19.2,19.2,0,0,1,6.29-1,20.16,20.16,0,0,1,3.48.29,10.89,10.89,0,0,1,4.15,1.8,5.48,5.48,0,0,1,2.55,3.63,3.19,3.19,0,0,1-.86,2.34,8.16,8.16,0,0,1-4.09,2.57l.16.12a12,12,0,0,1,.93.78,9,9,0,0,1,2.35,3.32h1.43a31.57,31.57,0,0,1,13.91,3.28,39.15,39.15,0,0,1,4.64,2.86c.53.38,1,.77,1.48,1.16a13.42,13.42,0,0,1,2.38,2.71c.43-.16.89-.32,1.38-.45a20,20,0,0,1,5.74-.6c.87,0,1.72.1,2.55.19a29.92,29.92,0,0,1,3.55.58,12.65,12.65,0,0,1,2.13.72,20.31,20.31,0,0,1,5.73-3.37c1.46-.58,3-1.13,4.57-1.61-.36-.21-.72-.44-1.07-.67a18.4,18.4,0,0,1-4.51-4.18,7.44,7.44,0,0,1-1.51-4,6,6,0,0,1,.15-1.8,6.94,6.94,0,0,1,.82-1.94,15,15,0,0,1,1-1.44,17.71,17.71,0,0,1-3.2-1.09,9,9,0,0,1-4.21-3.16,2.57,2.57,0,0,1-.34-1.08c.08-1.44,1.41-2.74,3.5-3.62a18.38,18.38,0,0,1,7.28-1.25,21.48,21.48,0,0,1,2.37.19c3.92.61,7.12,2.24,8,4.15a2.35,2.35,0,0,1,.14.37c.53,0,1.07-.06,1.61-.06h.48c9.31.15,16.69,4.84,16.79,10.5,0,.11,0,.23,0,.34l.64,0,.18,0a37.47,37.47,0,0,1,3.72.62c1.28.26,2.54.56,3.73.91.21.06.47.12.68.19,5.65,1.71,9.47,5.33,9.47,9.33,0,5.8-4.37,8.5-9,9.71a1.79,1.79,0,0,1,0,.4,2.5,2.5,0,0,1-.28,1.06c-1.14,2.27-5.32,4.07-10.14,4.26H359a18.37,18.37,0,0,1-4.15,3.21c-.14.09-.33.18-.48.27-1.07.61-2.27,1.19-3.54,1.76a26.54,26.54,0,0,1-10.35,2.16c-.4,0-.78,0-1.18,0a9.55,9.55,0,0,1-3.2,1.71l-.4.13-.51.15-.13,0a30.48,30.48,0,0,1-3.6.74q-1,.13-2.07.18a21.38,21.38,0,0,1-3.95-.27,15.9,15.9,0,0,1-2.44,1.37l-.79.35c-.94.39-1.94.77-3,1.12a25.25,25.25,0,0,1-7.67,1.26,27.44,27.44,0,0,1-3.16-.14c-5-.49-9.21-2.33-11.71-4.8a15.51,15.51,0,0,1-1.44-1.64c-.78.07-1.59.11-2.43.14h-.72c-.7,0-1.38,0-2.05-.06a16.21,16.21,0,0,1-5.37-1.29,13.25,13.25,0,0,1-2.33-1.34c-7.31-.45-13.53-3-17.12-6.56a19.27,19.27,0,0,1-3.06-3.89c-.1-.16-.18-.32-.27-.49a16.59,16.59,0,0,1-1.75-.43,13.58,13.58,0,0,1-2.28-1.18c-1.6-1-2.71-2.27-2.82-3.58a2.94,2.94,0,0,1,.81-2.1c-3.31-1.43-5.76-3.56-6.76-6a6.66,6.66,0,0,1-.49-2.72c.15-5.39,6.84-9.87,15.49-10.39A2,2,0,0,1,264.13,235.05Z" transform="translate(-100.02 -9.68)"/><path class="cls-46" d="M264.16,235.54a5.6,5.6,0,0,1,2.44-3,19.63,19.63,0,0,1,2.27-1.46,18.29,18.29,0,0,1,6.26-1,21.14,21.14,0,0,1,3.49.29,8.61,8.61,0,0,1,3.39,2,7.36,7.36,0,0,1,2.45,3.77,3,3,0,0,1-.61,2.32,6.3,6.3,0,0,1-3.2,2.67l.17.11c.33.22.65.46,1,.7a9.28,9.28,0,0,1,2.54,3h1.43a29.38,29.38,0,0,1,13.74,3.65c1.62,1,3.21,1.95,4.63,2.84.54.35,1.05.68,1.52,1a13.14,13.14,0,0,1,2.51,2.36,11.28,11.28,0,0,1,1.39-.41,18.83,18.83,0,0,1,5.75-.42c.86.06,1.71.15,2.54.23,1.28.12,2.49.24,3.53.4a12.78,12.78,0,0,1,2.11.51,20.16,20.16,0,0,1,5.77-3.28c1.48-.56,3-1.17,4.47-1.75-.31-.23-.62-.48-.93-.74a32,32,0,0,1-4.34-4.27,7.31,7.31,0,0,1-1.72-3.87,5.17,5.17,0,0,1,.06-1.8,6.23,6.23,0,0,1,.83-1.93c.31-.49.64-1,1-1.45a22.7,22.7,0,0,1-2.89-1.33,12.37,12.37,0,0,1-4.18-3.17,2.48,2.48,0,0,1-.43-1c.17-1.32,1.48-2.52,3.5-3.29a17.78,17.78,0,0,1,7-1,18.71,18.71,0,0,1,2.27.23c3.6.75,6.69,2.33,7.7,4.08a3.18,3.18,0,0,1,.16.32c.51,0,1-.05,1.55-.05h.46c9.07.14,16.17,4.66,16.37,10,0,.11,0,.22,0,.33l.59.05.15,0c1.1.27,2.27.6,3.49.94s2.52.64,3.72,1c.2.05.5.11.68.17,5.85,1.54,9.79,5.16,9.79,9,0,5.34-3.93,8-8.57,9.24a1.61,1.61,0,0,1,0,.38,2.35,2.35,0,0,1-.31,1c-1.22,2.1-5.14,3.89-9.5,4.27l-.6,0a16.32,16.32,0,0,1-4.29,3c-.12.08-.35.17-.49.24-1.09.58-2.32,1.14-3.56,1.75A25.08,25.08,0,0,1,341,274.61c-.4,0-.79,0-1.18,0a10.42,10.42,0,0,1-3.26,1.57l-.41.12-.51.13-.14,0c-1.14.26-2.36.58-3.6.81a14,14,0,0,1-2.05.25,20.55,20.55,0,0,1-4-.17,17,17,0,0,1-2.5,1.2l-.81.31-3,1.11a23.55,23.55,0,0,1-7.64,1.42,25.74,25.74,0,0,1-3.18-.1c-5.11-.44-9.35-2.33-11.74-4.77-.53-.54-1-1.09-1.47-1.63l-2.43.06-.72,0a20.77,20.77,0,0,1-2.09,0,15,15,0,0,1-5.46-1.31,23.5,23.5,0,0,1-2.39-1.33c-7.45-.46-13.67-3.13-17-6.68a35.29,35.29,0,0,1-3.13-3.81l-.3-.45a14.71,14.71,0,0,1-1.74-.44,15.42,15.42,0,0,1-2-1.33c-1.47-1.1-2.62-2.33-2.83-3.58a2.53,2.53,0,0,1,.59-1.95c-3.19-1.41-5.52-3.47-6.42-5.8a6.19,6.19,0,0,1-.39-2.6c.3-5,6.67-9.28,15-9.79A1.69,1.69,0,0,1,264.16,235.54Z" transform="translate(-100.02 -9.68)"/><path class="cls-47" d="M264.19,236a7.25,7.25,0,0,1,2.57-2.85c.69-.53,1.41-1.09,2.14-1.59a17.81,17.81,0,0,1,6.23-1.06,19.78,19.78,0,0,1,3.49.31,7.3,7.3,0,0,1,2.63,2.18,11.58,11.58,0,0,1,2.37,3.89,3,3,0,0,1-.37,2.31c-.72,1.3-1.34,2.39-2.3,2.78l.16.09c.35.2.68.41,1,.62a9.63,9.63,0,0,1,2.72,2.72c.48,0,1,0,1.44,0a27.28,27.28,0,0,1,13.58,4c1.54,1,3.14,2,4.6,2.83l1.57.85a13.69,13.69,0,0,1,2.64,2,13.59,13.59,0,0,1,1.4-.37,18.23,18.23,0,0,1,5.76-.24c.85.11,1.7.21,2.53.28,1.27.11,2.48.16,3.51.21a13.35,13.35,0,0,1,2.08.3,20.33,20.33,0,0,1,5.82-3.18,41,41,0,0,0,4.38-1.89l-.79-.81c-1.39-1.41-2.9-3-4.19-4.36a7.43,7.43,0,0,1-1.93-3.73,4.84,4.84,0,0,1,0-1.78,5.41,5.41,0,0,1,.83-1.93c.32-.49.65-1,1-1.46-.83-.43-1.67-1-2.57-1.57a20.67,20.67,0,0,1-4.16-3.17,2.63,2.63,0,0,1-.52-.91c.26-1.19,1.55-2.29,3.51-3a17.8,17.8,0,0,1,6.79-.85,20.12,20.12,0,0,1,2.18.28c3.27.89,6.24,2.43,7.36,4a1.69,1.69,0,0,1,.17.29c.5,0,1-.05,1.5-.05h.45c8.82.12,15.65,4.46,15.94,9.45,0,.11,0,.21,0,.32l.53.09.13.06c1,.4,2.07.84,3.26,1.25s2.49.72,3.71,1c.18.05.52.1.68.16,6.05,1.36,10.12,5,10.12,8.66,0,4.88-3.5,7.52-8.16,8.78a1.94,1.94,0,0,1,0,.34,2.2,2.2,0,0,1-.35.88c-1.29,2-5,3.72-8.86,4.28l-.59.07a15,15,0,0,1-4.41,2.76c-.12.08-.38.15-.52.22-1.11.54-2.35,1.08-3.57,1.73a24,24,0,0,1-10.21,2.78c-.4,0-.79,0-1.18,0a11.17,11.17,0,0,1-3.33,1.42l-.42.1-.51.12-.15,0c-1.15.24-2.36.59-3.58.89a14.41,14.41,0,0,1-2,.32,19,19,0,0,1-4-.09,16,16,0,0,1-2.55,1l-.82.27c-1,.31-2,.69-3,1.11a22.82,22.82,0,0,1-7.62,1.58,26,26,0,0,1-3.19-.07c-5.23-.39-9.5-2.32-11.79-4.74-.52-.55-1-1.1-1.49-1.61-.76,0-1.58,0-2.43,0l-.72,0c-.71,0-1.43,0-2.12,0a14.31,14.31,0,0,1-5.56-1.33c-.89-.46-1.72-.92-2.46-1.31-7.58-.47-13.78-3.26-16.91-6.82-1.14-1.29-2.25-2.59-3.2-3.71l-.32-.42a16.44,16.44,0,0,1-1.75-.45c-.6-.44-1.18-1-1.78-1.48-1.33-1.17-2.52-2.38-2.84-3.59a2.22,2.22,0,0,1,.38-1.8c-3.06-1.37-5.28-3.37-6.08-5.58a5.72,5.72,0,0,1-.29-2.47c.45-4.7,6.5-8.71,14.51-9.21A.89.89,0,0,1,264.19,236Z" transform="translate(-100.02 -9.68)"/><path class="cls-48" d="M264.22,236.52a10.21,10.21,0,0,1,2.7-2.72c.68-.56,1.35-1.16,2-1.72a16.87,16.87,0,0,1,6.2-1.09,19.64,19.64,0,0,1,3.5.31,8.61,8.61,0,0,1,1.86,2.37,24.19,24.19,0,0,1,2.28,4,2.91,2.91,0,0,1-.12,2.28c-.6,1.41-.85,2.56-1.41,2.89l.16.09c.36.17.7.35,1,.54a10.43,10.43,0,0,1,2.92,2.4c.48,0,1,0,1.44.07,5.65.39,10.41,2.1,13.41,4.38a26,26,0,0,0,4.58,2.81c.57.26,1.11.49,1.61.7a13.5,13.5,0,0,1,2.78,1.65,12.1,12.1,0,0,1,1.41-.33,17.27,17.27,0,0,1,5.78-.06c.84.14,1.68.26,2.51.32a29.37,29.37,0,0,0,3.49,0,12.49,12.49,0,0,1,2.05.09,20.3,20.3,0,0,1,5.88-3.08,21.59,21.59,0,0,0,4.27-2l-.65-.86a45.86,45.86,0,0,0-4-4.45,7.52,7.52,0,0,1-2.14-3.59,4.5,4.5,0,0,1-.1-1.78,5,5,0,0,1,.84-1.93l1-1.46c-.66-.52-1.4-1.18-2.24-1.82-1.55-1.15-3.14-2.23-4.15-3.17a3,3,0,0,1-.6-.82c.35-1.07,1.62-2.06,3.51-2.65a17.37,17.37,0,0,1,6.55-.64,16.56,16.56,0,0,1,2.08.33c2.95,1,5.8,2.52,7,3.91a2.07,2.07,0,0,1,.19.25c.47,0,.95-.05,1.44-.05h.43c8.58.11,15.14,4.28,15.52,8.93,0,.11,0,.21,0,.31l.47.13.12.07a19.3,19.3,0,0,0,3,1.57,22.64,22.64,0,0,0,3.69,1.09c.16,0,.54.09.68.14,6.25,1.19,10.44,4.81,10.44,8.33,0,4.42-3.05,7-7.74,8.32,0,.1,0,.2,0,.3a2.14,2.14,0,0,1-.38.79c-1.38,1.8-4.79,3.55-8.23,4.3l-.58.09a14.21,14.21,0,0,1-4.54,2.55c-.1.06-.41.13-.53.18a33.41,33.41,0,0,0-3.59,1.73,22.89,22.89,0,0,1-10.14,3.09c-.4,0-.79,0-1.19,0a11.83,11.83,0,0,1-3.39,1.28c-.14,0-.28.06-.42.09l-.52.09-.15,0a30.46,30.46,0,0,0-3.57,1,12.73,12.73,0,0,1-2,.4,19.17,19.17,0,0,1-4.08,0,18.18,18.18,0,0,1-2.61.88l-.83.21a21.42,21.42,0,0,0-3,1.11,21.66,21.66,0,0,1-7.61,1.74,24.23,24.23,0,0,1-3.19,0c-5.36-.34-9.64-2.32-11.83-4.71-.51-.56-1-1.1-1.52-1.6a21.06,21.06,0,0,0-2.43-.1l-.72,0a19.45,19.45,0,0,1-2.16,0,13.67,13.67,0,0,1-5.66-1.35c-.88-.48-1.73-.95-2.51-1.3-7.72-.47-13.91-3.38-16.81-6.94a48.56,48.56,0,0,0-3.26-3.63,4.27,4.27,0,0,1-.36-.38,14.48,14.48,0,0,1-1.74-.46c-.49-.49-1-1.07-1.54-1.63a12.89,12.89,0,0,1-2.85-3.59,2,2,0,0,1,.18-1.65c-2.94-1.35-5-3.28-5.75-5.37a5.28,5.28,0,0,1-.18-2.35c.59-4.35,6.32-8.13,14-8.61A1.14,1.14,0,0,1,264.22,236.52Z" transform="translate(-100.02 -9.68)"/><path class="cls-49" d="M264.25,237a18.23,18.23,0,0,1,2.82-2.59,23.63,23.63,0,0,0,1.88-1.86,16.52,16.52,0,0,1,6.18-1.11,18.47,18.47,0,0,1,3.5.32c.27.4.54,1.36,1.11,2.55.65,1.37,1.54,2.88,2.18,4.17a2.93,2.93,0,0,1,.13,2.26,29.28,29.28,0,0,0-.52,3l.17.07c.36.15.72.29,1.06.46a11.76,11.76,0,0,1,3.11,2.1c.48,0,1,.05,1.43.09,5.75.49,10.49,2.37,13.25,4.74a16.46,16.46,0,0,0,4.57,2.81c.57.22,1.13.39,1.65.54a14.13,14.13,0,0,1,2.91,1.29c.46-.11.93-.21,1.42-.29a17,17,0,0,1,5.79.12,15.57,15.57,0,0,0,6,.21,14,14,0,0,1,2-.12,20.16,20.16,0,0,1,5.92-3A14.7,14.7,0,0,0,335,250.6c-.16-.29-.32-.61-.52-.93a20.5,20.5,0,0,0-3.86-4.54,7.58,7.58,0,0,1-2.34-3.45,4,4,0,0,1-.18-1.76,4.45,4.45,0,0,1,.84-1.93q.49-.72,1-1.47a17.64,17.64,0,0,0-1.93-2.06c-1.4-1.24-3-2.33-4.12-3.18a2.89,2.89,0,0,1-.68-.73c.43-1,1.69-1.83,3.51-2.32a17,17,0,0,1,6.3-.45,16.3,16.3,0,0,1,2,.38,29.06,29.06,0,0,1,6.7,3.83,1.37,1.37,0,0,1,.2.22c.46,0,.92-.05,1.39-.05h.42c8.33.09,14.62,4.09,15.09,8.4a1.51,1.51,0,0,1,0,.3c.15,0,.28.11.42.17l.09.09a11.56,11.56,0,0,0,2.8,1.88,16.08,16.08,0,0,0,3.68,1.16c.14,0,.56.07.68.11,6.45,1,10.77,4.64,10.77,8,0,4-2.62,6.54-7.32,7.86a2.68,2.68,0,0,1-.07.27,2.14,2.14,0,0,1-.42.7c-1.46,1.63-4.61,3.37-7.58,4.31l-.58.12a13.41,13.41,0,0,1-4.67,2.32,4.26,4.26,0,0,1-.54.16,20.71,20.71,0,0,0-3.61,1.71,21.88,21.88,0,0,1-10.07,3.4l-1.19.07a13.64,13.64,0,0,1-3.46,1.13l-.42.07-.53.08-.15,0a19.17,19.17,0,0,0-3.56,1,11,11,0,0,1-2,.48,18.17,18.17,0,0,1-4.14.08,16.53,16.53,0,0,1-2.66.72l-.84.17a14.65,14.65,0,0,0-3,1.1,20.31,20.31,0,0,1-7.58,1.9,24.56,24.56,0,0,1-3.21,0c-5.47-.29-9.78-2.32-11.87-4.68-.5-.57-1-1.11-1.53-1.59a12.77,12.77,0,0,0-2.43-.17l-.73,0a20.19,20.19,0,0,1-2.2,0,13.15,13.15,0,0,1-5.75-1.38,17.54,17.54,0,0,0-2.57-1.28c-7.86-.49-14-3.52-16.72-7.07a20.64,20.64,0,0,0-3.32-3.54c-.14-.11-.27-.23-.39-.34a15,15,0,0,1-1.73-.48c-.38-.54-.79-1.17-1.3-1.79a25.21,25.21,0,0,1-2.86-3.58,1.85,1.85,0,0,1,0-1.51c-2.81-1.31-4.8-3.18-5.41-5.15a4.73,4.73,0,0,1-.08-2.22c.72-4,6.15-7.56,13.51-8A1.43,1.43,0,0,1,264.25,237Z" transform="translate(-100.02 -9.68)"/><path class="cls-50" d="M264.28,237.5c.66-.71,1.86-1.45,3-2.47a13.42,13.42,0,0,0,1.75-2,15.82,15.82,0,0,1,6.15-1.14,18.29,18.29,0,0,1,3.51.33A6.52,6.52,0,0,0,279,235a20.89,20.89,0,0,0,2.1,4.3,3.08,3.08,0,0,1,.37,2.25,4.25,4.25,0,0,0,.37,3.11l.17.05c.37.12.74.24,1.09.38a13.61,13.61,0,0,1,3.31,1.8c.48,0,1,.06,1.43.11,5.84.59,10.54,2.64,13.09,5.11a11.94,11.94,0,0,0,4.54,2.79,11.76,11.76,0,0,0,1.7.39,13.43,13.43,0,0,1,3,.94c.46-.1.94-.19,1.44-.25a15.77,15.77,0,0,1,5.79.3,12.56,12.56,0,0,0,2.49.41,11.43,11.43,0,0,0,3.45-.34,13.67,13.67,0,0,1,2-.33,20.54,20.54,0,0,1,6-2.89,10.7,10.7,0,0,0,4.07-2.33,10.24,10.24,0,0,0-.37-1,13.19,13.19,0,0,0-3.7-4.64,7.75,7.75,0,0,1-2.55-3.3,3.81,3.81,0,0,1-.27-1.76,4.16,4.16,0,0,1,.85-1.92c.34-.48.66-1,.95-1.48a10.14,10.14,0,0,0-1.61-2.31,21,21,0,0,0-4.1-3.17,3.66,3.66,0,0,1-.77-.65,5.59,5.59,0,0,1,3.51-2,17.07,17.07,0,0,1,6.06-.25,13.58,13.58,0,0,1,1.88.44c2.31,1.3,4.9,2.7,6.38,3.74l.21.18c.44,0,.88,0,1.33,0h.4c8.09.08,14.12,3.9,14.68,7.89,0,.09,0,.18,0,.27l.36.21a.83.83,0,0,0,.08.12,8.2,8.2,0,0,0,2.56,2.19,11.93,11.93,0,0,0,3.67,1.22c.13,0,.58.05.68.09,6.65.85,11.09,4.47,11.09,7.67,0,3.5-2.18,6-6.9,7.39a2.44,2.44,0,0,1-.1.24,2,2,0,0,1-.44.61,28,28,0,0,1-6.95,4.33l-.57.14a13,13,0,0,1-4.8,2.11c-.07,0-.45.09-.55.12a14.52,14.52,0,0,0-3.62,1.7,21,21,0,0,1-10,3.71c-.39,0-.79.06-1.19.09a15,15,0,0,1-3.53,1c-.14,0-.28,0-.43.06l-.53.06-.15,0a12.88,12.88,0,0,0-3.55,1.08,9.38,9.38,0,0,1-2,.56,18,18,0,0,1-4.18.17,16.81,16.81,0,0,1-2.72.55c-.28,0-.57.08-.85.13a11.13,11.13,0,0,0-3,1.09,19.54,19.54,0,0,1-7.57,2.07,24.54,24.54,0,0,1-3.21,0c-5.59-.24-9.92-2.32-11.91-4.65a14.59,14.59,0,0,0-1.56-1.58,10.6,10.6,0,0,0-2.43-.25l-.73,0a20.75,20.75,0,0,1-2.23.05,12.72,12.72,0,0,1-5.85-1.4,11.94,11.94,0,0,0-2.63-1.27c-8-.49-14.16-3.65-16.62-7.2a13.43,13.43,0,0,0-3.39-3.45l-.42-.3a16.38,16.38,0,0,1-1.73-.49,11.27,11.27,0,0,0-1-1.94c-.93-1.34-2.17-2.52-2.88-3.59a1.79,1.79,0,0,1-.24-1.35c-2.68-1.29-4.56-3.09-5.06-4.94a4.27,4.27,0,0,1,0-2.1c.84-3.65,6-7,13-7.43A.64.64,0,0,1,264.28,237.5Z" transform="translate(-100.02 -9.68)"/><path class="cls-51" d="M264.31,238a28.61,28.61,0,0,0,3.08-2.34,10,10,0,0,0,1.62-2.12,14.93,14.93,0,0,1,6.12-1.17,17.18,17.18,0,0,1,3.51.34,3.71,3.71,0,0,0-.42,2.92,11.82,11.82,0,0,0,2,4.44,3.22,3.22,0,0,1,.62,2.23c-.17,1.75.63,3,1.26,3.21l.18.05c.38.09.75.18,1.12.29a15.89,15.89,0,0,1,3.5,1.5c.48,0,1,.07,1.43.13,5.93.7,10.6,2.92,12.92,5.48a9.36,9.36,0,0,0,4.53,2.77,8.27,8.27,0,0,0,1.73.24,13.5,13.5,0,0,1,3.18.59,13.3,13.3,0,0,1,1.45-.22,15.26,15.26,0,0,1,5.8.48,9.27,9.27,0,0,0,2.48.46,8.77,8.77,0,0,0,3.43-.53,14.06,14.06,0,0,1,2-.54,20.42,20.42,0,0,1,6-2.79,8.6,8.6,0,0,0,4-2.47,6.33,6.33,0,0,0-.23-1.06,9.74,9.74,0,0,0-3.54-4.72,8.11,8.11,0,0,1-2.75-3.16,3.56,3.56,0,0,1-.36-1.75,4,4,0,0,1,.86-1.93,11.46,11.46,0,0,0,.93-1.48,6.86,6.86,0,0,0-1.28-2.55,12.49,12.49,0,0,0-4.08-3.18,4.14,4.14,0,0,1-.86-.57,6.25,6.25,0,0,1,3.51-1.66,16.3,16.3,0,0,1,5.82,0,11.18,11.18,0,0,1,1.78.48,53.91,53.91,0,0,0,6.05,3.66l.23.15c.42,0,.84-.05,1.27-.05h.39c7.84.06,13.61,3.71,14.25,7.36l0,.26.3.25.06.13a6.47,6.47,0,0,0,2.33,2.51,9.58,9.58,0,0,0,3.66,1.28c.11,0,.6,0,.68.07,6.85.68,11.41,4.3,11.41,7.34s-1.74,5.56-6.48,6.93a1.32,1.32,0,0,1-.12.2,2.14,2.14,0,0,1-.48.53c-1.66,1.3-4.26,3-6.3,4.34l-.56.17a12.87,12.87,0,0,1-4.94,1.88c-.05,0-.47.07-.56.1a11.06,11.06,0,0,0-3.64,1.69,20.17,20.17,0,0,1-9.94,4c-.39.05-.79.08-1.2.11a16,16,0,0,1-3.59.85l-.43,0-.54.05h-.15a10.15,10.15,0,0,0-3.54,1.15,8.56,8.56,0,0,1-2,.64,17.76,17.76,0,0,1-4.23.26,16.19,16.19,0,0,1-2.77.38l-.87.09a8.64,8.64,0,0,0-3,1.09,18.72,18.72,0,0,1-7.55,2.22,23,23,0,0,1-3.22.08c-5.71-.19-10.07-2.32-12-4.62a10.65,10.65,0,0,0-1.58-1.57,8.35,8.35,0,0,0-2.43-.32l-.73,0a17.17,17.17,0,0,1-2.27.08,12.27,12.27,0,0,1-5.94-1.42,9.07,9.07,0,0,0-2.69-1.25c-8.14-.5-14.27-3.79-16.52-7.33a10.07,10.07,0,0,0-3.46-3.36l-.45-.27a13,13,0,0,1-1.72-.5,7.56,7.56,0,0,0-.8-2.09,24.31,24.31,0,0,0-2.89-3.59,1.92,1.92,0,0,1-.44-1.21c-2.56-1.26-4.34-3-4.73-4.72a3.82,3.82,0,0,1,.12-2c1-3.31,5.8-6.41,12.51-6.84C264.23,238.09,264.26,238,264.31,238Z" transform="translate(-100.02 -9.68)"/><path class="cls-52" d="M264.34,238.48a12.32,12.32,0,0,0,3.21-2.22A7.53,7.53,0,0,0,269,234a14.37,14.37,0,0,1,6.09-1.2,17.16,17.16,0,0,1,3.52.35,3.42,3.42,0,0,0-1.19,3.11,8.42,8.42,0,0,0,1.92,4.58,3.45,3.45,0,0,1,.87,2.21c0,1.86,1.12,3.17,2.15,3.32l.18,0c.39.07.78.13,1.16.22a18.36,18.36,0,0,1,3.69,1.19c.48,0,1,.09,1.43.15,6,.81,10.64,3.21,12.75,5.85a7.66,7.66,0,0,0,4.51,2.76,6.72,6.72,0,0,0,1.78.08,13.19,13.19,0,0,1,3.31.23c.47-.08,1-.14,1.46-.18a14.49,14.49,0,0,1,5.81.67,7.88,7.88,0,0,0,2.48.5,7.19,7.19,0,0,0,3.4-.72,13.32,13.32,0,0,1,1.95-.74,20.5,20.5,0,0,1,6.07-2.7,7.19,7.19,0,0,0,3.88-2.62,5.55,5.55,0,0,0-.1-1.12,7.76,7.76,0,0,0-3.37-4.81,8.38,8.38,0,0,1-3-3,3.22,3.22,0,0,1-.44-1.74,3.72,3.72,0,0,1,.85-1.92,8,8,0,0,0,.93-1.49,5.65,5.65,0,0,0-1-2.8,9,9,0,0,0-4.06-3.18,5.49,5.49,0,0,1-.94-.48,7.28,7.28,0,0,1,3.52-1.34,16.14,16.14,0,0,1,5.57.15,9.81,9.81,0,0,1,1.68.54,18.88,18.88,0,0,0,5.72,3.58l.24.1c.4,0,.81,0,1.22,0h.37c7.6,0,13.12,3.51,13.83,6.83,0,.08,0,.17,0,.25a3.07,3.07,0,0,1,.24.29.83.83,0,0,1,0,.15,5.74,5.74,0,0,0,2.1,2.83,8.23,8.23,0,0,0,3.65,1.34c.09,0,.62,0,.69,0,7,.51,11.73,4.13,11.73,7,0,2.57-1.31,5.07-6.07,6.47l-.14.17a2.75,2.75,0,0,1-.51.43,41.68,41.68,0,0,0-5.67,4.35c-.16.07-.34.13-.55.2a12.65,12.65,0,0,1-5.07,1.66s-.5.06-.57.08a8.77,8.77,0,0,0-3.66,1.67,19.33,19.33,0,0,1-9.87,4.32c-.39.06-.79.1-1.2.14a18.89,18.89,0,0,1-3.66.7c-.14,0-.29,0-.43,0l-.55,0h-.15a8.14,8.14,0,0,0-3.53,1.22,7,7,0,0,1-2,.71,16.08,16.08,0,0,1-4.28.35,15.71,15.71,0,0,1-2.82.23,6.55,6.55,0,0,0-.88,0,7.27,7.27,0,0,0-3,1.08,17.93,17.93,0,0,1-7.53,2.38,23.23,23.23,0,0,1-3.24.12c-5.82-.14-10.2-2.32-12-4.59a8.12,8.12,0,0,0-1.61-1.55,7,7,0,0,0-2.43-.41c-.24,0-.48,0-.73,0a17.78,17.78,0,0,1-2.31.1,11.91,11.91,0,0,1-6-1.44,7.25,7.25,0,0,0-2.76-1.23c-8.27-.52-14.38-3.93-16.41-7.46a8,8,0,0,0-3.52-3.28c-.17-.07-.33-.15-.48-.23a11.32,11.32,0,0,1-1.72-.51,6.15,6.15,0,0,0-.56-2.25,12.32,12.32,0,0,0-2.9-3.58,2.39,2.39,0,0,1-.65-1.06c-2.44-1.23-4.09-2.9-4.39-4.5a3.51,3.51,0,0,1,.23-1.86c1.07-3,5.62-5.83,12-6.24Z" transform="translate(-100.02 -9.68)"/><path class="cls-53" d="M264.38,239a8.13,8.13,0,0,0,3.33-2.09,6.34,6.34,0,0,0,1.36-2.38,13.53,13.53,0,0,1,6.06-1.23,16.81,16.81,0,0,1,3.52.36,3.67,3.67,0,0,0-1.94,3.29,6.63,6.63,0,0,0,1.83,4.71,3.82,3.82,0,0,1,1.11,2.19,3.6,3.6,0,0,0,3,3.43l.19,0c.39,0,.79.08,1.18.14a23.09,23.09,0,0,1,3.88.88q.74.08,1.44.18c6.11.92,10.69,3.49,12.58,6.22a6.54,6.54,0,0,0,4.5,2.74,5.84,5.84,0,0,0,1.82-.07,12.92,12.92,0,0,1,3.45-.12,13.63,13.63,0,0,1,1.46-.14,14.06,14.06,0,0,1,5.82.84,6.66,6.66,0,0,0,2.47.55,6.21,6.21,0,0,0,3.38-.9,13.76,13.76,0,0,1,1.92-1,20.79,20.79,0,0,1,6.13-2.6,6.24,6.24,0,0,0,3.77-2.76,4.6,4.6,0,0,0,0-1.18,6.49,6.49,0,0,0-3.2-4.91,8.64,8.64,0,0,1-3.17-2.87,3.1,3.1,0,0,1-.53-1.73,3.5,3.5,0,0,1,.86-1.93,6.59,6.59,0,0,0,.92-1.49,5,5,0,0,0-.65-3,7.06,7.06,0,0,0-4-3.19,6.6,6.6,0,0,1-1-.39,8.73,8.73,0,0,1,3.51-1,15.72,15.72,0,0,1,5.33.36,8.21,8.21,0,0,1,1.59.58,10.41,10.41,0,0,0,5.38,3.5l.26.07c.38,0,.77,0,1.16-.05h.36c7.36,0,12.62,3.33,13.4,6.31,0,.08,0,.16.05.24s.14.22.19.32a.88.88,0,0,0,0,.17,5.25,5.25,0,0,0,1.87,3.15,6.82,6.82,0,0,0,3.62,1.4l.7,0c7.24.34,12.05,4,12.05,6.68,0,2.11-.87,4.58-5.65,6l-.16.13a3.22,3.22,0,0,1-.55.34,14.16,14.16,0,0,0-5,4.37c-.16.07-.34.15-.55.22a12.73,12.73,0,0,1-5.2,1.45s-.52,0-.58,0a7.32,7.32,0,0,0-3.68,1.66,18.6,18.6,0,0,1-9.8,4.63l-1.2.16a20,20,0,0,1-3.72.56h-1.15a6.79,6.79,0,0,0-3.52,1.28,6.46,6.46,0,0,1-2,.79,16.07,16.07,0,0,1-4.32.44,16.33,16.33,0,0,1-2.88.06,6.61,6.61,0,0,0-.89,0,6.37,6.37,0,0,0-3.06,1.07,17.42,17.42,0,0,1-7.51,2.55,23.14,23.14,0,0,1-3.24.15c-5.94-.09-10.34-2.32-12-4.56a6.42,6.42,0,0,0-1.63-1.54,6,6,0,0,0-2.43-.48,6.06,6.06,0,0,0-.73,0,18.25,18.25,0,0,1-2.34.13,11.67,11.67,0,0,1-6.13-1.47,6.27,6.27,0,0,0-2.82-1.22c-8.41-.52-14.48-4.07-16.32-7.58a6.61,6.61,0,0,0-3.58-3.2c-.18-.06-.35-.12-.51-.19a12.47,12.47,0,0,1-1.72-.52,5.23,5.23,0,0,0-.31-2.4,8.18,8.18,0,0,0-2.91-3.58,3.29,3.29,0,0,1-.85-.92c-2.32-1.2-3.86-2.8-4.06-4.28a3.27,3.27,0,0,1,.33-1.73c1.17-2.62,5.45-5.25,11.52-5.66A1,1,0,0,1,264.38,239Z" transform="translate(-100.02 -9.68)"/><path class="cls-54" d="M264.41,239.46a6.12,6.12,0,0,0,3.46-2A5.56,5.56,0,0,0,269.1,235a12.92,12.92,0,0,1,6-1.26,16.7,16.7,0,0,1,3.53.37,4.26,4.26,0,0,0-2.71,3.49,5.64,5.64,0,0,0,1.74,4.84,4.28,4.28,0,0,1,1.36,2.17,4.24,4.24,0,0,0,3.94,3.54h.18l1.22.05a27.5,27.5,0,0,1,4.07.58l1.43.2c6.21,1,10.73,3.78,12.43,6.59a5.68,5.68,0,0,0,4.47,2.73,5.4,5.4,0,0,0,1.87-.23,12.92,12.92,0,0,1,3.58-.48c.48-.05,1-.09,1.47-.1a13.38,13.38,0,0,1,5.84,1,5.7,5.7,0,0,0,2.45.59,5.54,5.54,0,0,0,3.36-1.09,13,13,0,0,1,1.9-1.16,20.44,20.44,0,0,1,6.17-2.5,5.52,5.52,0,0,0,3.67-2.91,4.6,4.6,0,0,0,.19-1.25,5.63,5.63,0,0,0-3.05-5,9.16,9.16,0,0,1-3.37-2.74,3,3,0,0,1-.62-1.72,3.25,3.25,0,0,1,.87-1.92,6,6,0,0,0,.91-1.5,5,5,0,0,0-.33-3.29,5.86,5.86,0,0,0-4-3.18,8.77,8.77,0,0,1-1.11-.31,11.27,11.27,0,0,1,3.52-.69,15.21,15.21,0,0,1,5.08.55,7.13,7.13,0,0,1,1.49.63,6.87,6.87,0,0,0,5,3.42l.27,0c.37,0,.74,0,1.11,0h.34c7.12,0,12.14,3.13,13,5.78l.06.23a1.74,1.74,0,0,1,.13.36V241a5.05,5.05,0,0,0,1.64,3.46,5.9,5.9,0,0,0,3.61,1.46c.06,0,.68,0,.7,0,7.44.17,12.38,3.79,12.38,6.35,0,1.65-.44,4.09-5.24,5.54l-.19.1a5.09,5.09,0,0,1-.57.26,7.67,7.67,0,0,0-4.39,4.38c-.15.08-.33.16-.54.25a13.12,13.12,0,0,1-5.32,1.22l-.61,0a6.09,6.09,0,0,0-3.69,1.64,18.07,18.07,0,0,1-9.73,4.94l-1.2.19a23.78,23.78,0,0,1-3.79.41h-1.17a5.74,5.74,0,0,0-3.5,1.36,6.1,6.1,0,0,1-1.95.86,15.38,15.38,0,0,1-4.38.53,16.79,16.79,0,0,1-2.93-.11,5.43,5.43,0,0,0-.9,0,5.63,5.63,0,0,0-3.07,1.06,16.63,16.63,0,0,1-7.49,2.71,21.83,21.83,0,0,1-3.25.19c-6.06,0-10.48-2.33-12.08-4.53a5.7,5.7,0,0,0-1.65-1.53,5.49,5.49,0,0,0-2.44-.56,6.11,6.11,0,0,0-.73.05,18.78,18.78,0,0,1-2.38.15c-3.21,0-5.44-.88-6.22-1.5a5.56,5.56,0,0,0-2.88-1.19c-8.55-.53-14.59-4.21-16.22-7.72a5.66,5.66,0,0,0-3.65-3.1l-.54-.16a11,11,0,0,1-1.71-.53,5,5,0,0,0-.06-2.55,6.24,6.24,0,0,0-2.93-3.59,6.41,6.41,0,0,1-1.06-.76c-2.19-1.17-3.62-2.7-3.72-4.07a3,3,0,0,1,.44-1.61c1.25-2.28,5.27-4.67,11-5.06Z" transform="translate(-100.02 -9.68)"/><path class="cls-55" d="M311.31,277.33c-6.19,0-10.62-2.33-12.12-4.5a5,5,0,0,0-4.12-2.15,4.56,4.56,0,0,0-.73.05,17.45,17.45,0,0,1-2.42.17c-3.32,0-5.6-.91-6.31-1.52a5.06,5.06,0,0,0-2.94-1.18c-8.69-.54-14.69-4.35-16.12-7.84a5,5,0,0,0-3.72-3,11.06,11.06,0,0,1-2.28-.66,5,5,0,0,0-2.75-6.29c-2.78-1.19-4.65-3-4.65-4.47,0-2.21,4.3-5.55,11.29-6a5,5,0,0,0,3.58-1.84,4.92,4.92,0,0,0,1.1-2.64,12.33,12.33,0,0,1,6-1.29,15.74,15.74,0,0,1,3.53.38,5,5,0,0,0-1.82,8.64,4.82,4.82,0,0,1,1.61,2.16,5,5,0,0,0,4.83,3.64h.18l1.25,0c9.26,0,16,3.75,18,7.46a5,5,0,0,0,4.46,2.71,4.92,4.92,0,0,0,1.9-.38,14,14,0,0,1,5.2-.89,12.79,12.79,0,0,1,5.85,1.21,5,5,0,0,0,5.78-.64,18.18,18.18,0,0,1,8.1-3.78,5,5,0,0,0,1-9.45c-2.6-1.2-4.28-2.89-4.28-4.3a3,3,0,0,1,.87-1.92,5,5,0,0,0-3.12-8.23,12.08,12.08,0,0,1-1.19-.22,16.38,16.38,0,0,1,3.52-.37,11.49,11.49,0,0,1,6.23,1.44,5,5,0,0,0,4.72,3.33H342c.45,0,.91-.05,1.38-.05,7.49,0,12.5,3.48,12.69,5.88,0,.07,0,.14,0,.21a5,5,0,0,0,5,5.3l.7,0c7.63,0,12.7,3.63,12.7,6,0,1.25,0,3.87-5.63,5.31a5,5,0,0,0-3.75,4.4,12.37,12.37,0,0,1-6,1.28l-.62,0a5,5,0,0,0-3.7,1.64c-2.38,2.61-6.87,5.72-14.73,5.72l-.46,0-.55,0h-.17a5,5,0,0,0-3.49,1.43c-.53.5-2.76,1.55-6.36,1.55a16.38,16.38,0,0,1-3-.27,5.59,5.59,0,0,0-.91-.08,5,5,0,0,0-3.08,1.06C319.54,276.18,315.53,277.33,311.31,277.33Z" transform="translate(-100.02 -9.68)"/><path class="cls-56" d="M353.08,244.42c-8,0-14.78,3.32-17,7.87-.49.18-1,.37-1.43.58a34.77,34.77,0,0,0-25.36.15c-.65-.3-1.33-.59-2.05-.84-.22-6-8-10.77-17.69-10.77s-17.71,4.94-17.71,11c0,4.13,3.65,7.72,9,9.61.22,6,8,10.77,17.69,10.77a28.36,28.36,0,0,0,4.29-.33c4.07,3.95,11.18,6.57,19.28,6.57s15.1-2.58,19.18-6.48a28.09,28.09,0,0,0,3.71.24c8,0,14.78-3.32,17-7.87,5.24-1.91,8.76-5.45,8.76-9.51C370.79,249.35,362.86,244.42,353.08,244.42Z" transform="translate(-100.02 -9.68)"/><path class="cls-57" d="M272.28,252.37c0-3.71,3.32-7.12,8.36-8.91a25,25,0,0,1,9.9-1.36,19.15,19.15,0,0,1,2.67.36,48.07,48.07,0,0,1,4.94,1.33c.47.15.93.31,1.38.49.62.24,1.21.49,1.79.74s1.06.47,1.55.72c3.14,1.61,5.26,4,5.71,6.68.72.23,1.4.49,2.06.77a31.7,31.7,0,0,1,8.42-1.83l1.92-.14c.81-.05,1.64-.09,2.47-.11.39,0,.77,0,1.16,0,1.31,0,2.58,0,3.76.07a31.1,31.1,0,0,1,7.38,1.41c.47-.2.94-.38,1.44-.56a10.08,10.08,0,0,1,3.07-3.27c3.59-2.46,8.72-3.53,13.93-3.38,8.89.26,15.9,4.82,15.6,10.46a8.89,8.89,0,0,1-3.12,5.94,16.39,16.39,0,0,1-5.32,3.16c-2.19,4.27-8.66,7.39-16.34,7.39a28,28,0,0,1-3.06-.17l-.65-.08a31.66,31.66,0,0,1-3.05,2.23,30.21,30.21,0,0,1-16.13,4.25c-6.36,0-12.13-1.64-16.2-4.3a30.72,30.72,0,0,1-3.08-2.27l-.74.1a27.33,27.33,0,0,1-3.54.24c-6.41,0-11.91-2.15-14.74-5.2a10.14,10.14,0,0,1-2.8-5.55C275.81,259.73,272.28,256.28,272.28,252.37Z" transform="translate(-100.02 -9.68)"/><path class="cls-58" d="M272.69,252.3c0-3.57,3.49-7,8.79-8.61a24.25,24.25,0,0,1,10-.91,15.54,15.54,0,0,1,2.57.59c1.51.49,3.14,1.13,4.78,1.66.48.15,1,.32,1.41.5.62.25,1.23.49,1.82.71s1.09.41,1.59.62c3.16,1.28,5.43,3.39,6.23,5.8a20.94,20.94,0,0,1,2.07.7,31.24,31.24,0,0,1,8.42-1.46l1.92-.09,2.43-.15,1.15-.06c1.31,0,2.54-.25,3.67-.2a39.24,39.24,0,0,1,7.27.86q.71-.3,1.44-.54a10,10,0,0,1,3.24-3c3.95-2.29,9.1-2.74,13.8-2.44,8,.52,14.08,4.7,13.5,9.9a9.52,9.52,0,0,1-3.09,5.59,15.59,15.59,0,0,1-5,3.1c-2.2,4-8.37,6.91-15.71,6.91a27.94,27.94,0,0,1-3.06-.18l-.65-.07c-.95.68-2,1.41-3.1,2.15-4,2.67-9.75,4.33-16.08,4.33s-12.18-1.68-16.16-4.39c-1.11-.75-2.17-1.49-3.12-2.18l-.75.09a25.65,25.65,0,0,1-3.54.25c-6.53,0-12-2.27-14.53-5.28a13.38,13.38,0,0,1-2.86-5.45C276.1,259.29,272.69,256,272.69,252.3Z" transform="translate(-100.02 -9.68)"/><path class="cls-59" d="M273.1,252.23c0-3.44,3.66-6.92,9.22-8.32a23.3,23.3,0,0,1,10.13-.44,11,11,0,0,1,2.47.82,40.32,40.32,0,0,0,4.62,2c.48.15.95.32,1.42.51q.94.39,1.86.69c.56.19,1.11.34,1.63.5a11.15,11.15,0,0,1,6.75,4.93c.72.18,1.41.39,2.08.63a31.42,31.42,0,0,1,8.43-1.09c.62,0,1.26,0,1.91,0s1.59-.1,2.39-.19l1.15-.11c1.29-.09,2.49-.31,3.56-.45a25.92,25.92,0,0,1,7.17.3c.47-.19.95-.37,1.45-.53a10,10,0,0,1,3.39-2.71c4.34-2.12,9.49-2,13.68-1.5,7.08.78,12.27,4.58,11.39,9.33a10.5,10.5,0,0,1-3.06,5.25,14.21,14.21,0,0,1-4.74,3c-2.2,3.71-8.08,6.43-15.08,6.43a25.79,25.79,0,0,1-3.06-.18l-.65-.07c-1,.61-2.06,1.31-3.14,2.07-3.9,2.72-9.7,4.41-16,4.41s-12.21-1.71-16.12-4.47c-1.08-.77-2.17-1.48-3.16-2.1l-.75.1a27.54,27.54,0,0,1-3.53.24c-6.65,0-12.11-2.38-14.33-5.34a20.26,20.26,0,0,1-2.91-5.36C276.39,258.86,273.1,255.7,273.1,252.23Z" transform="translate(-100.02 -9.68)"/><path class="cls-60" d="M273.51,252.16c0-3.31,3.84-6.81,9.66-8a22.49,22.49,0,0,1,10.24,0,8.33,8.33,0,0,1,2.36,1,18.71,18.71,0,0,0,4.47,2.3c.48.16,1,.34,1.43.54a19.55,19.55,0,0,0,1.9.66c.58.16,1.14.28,1.67.39a12.46,12.46,0,0,1,7.27,4c.72.16,1.42.35,2.09.56A31.06,31.06,0,0,1,323,253c.62,0,1.26,0,1.91,0s1.57-.11,2.35-.22q.57-.09,1.14-.15a27.82,27.82,0,0,0,3.47-.71,22.68,22.68,0,0,1,7.06-.27c.47-.18,1-.35,1.45-.51a10.57,10.57,0,0,1,3.55-2.43c4.74-1.92,9.86-1.17,13.56-.56,6.17,1,10.45,4.46,9.28,8.77a12.32,12.32,0,0,1-3,4.91,13.39,13.39,0,0,1-4.44,2.95c-2.21,3.43-7.79,6-14.45,6a28.09,28.09,0,0,1-3.06-.18l-.65-.07a25.63,25.63,0,0,0-3.18,2c-3.83,2.78-9.66,4.5-16,4.5s-12.25-1.74-16.08-4.56a27,27,0,0,0-3.2-2l-.75.09a26.1,26.1,0,0,1-3.54.25c-6.77,0-12.2-2.51-14.12-5.42a48.52,48.52,0,0,1-3-5.25C276.68,258.43,273.51,255.41,273.51,252.16Z" transform="translate(-100.02 -9.68)"/><path class="cls-61" d="M273.92,252.09c0-3.18,4-6.7,10.09-7.74a21.6,21.6,0,0,1,10.35.5,6.4,6.4,0,0,1,2.27,1.27,12.34,12.34,0,0,0,4.3,2.62c.49.16,1,.34,1.46.55a12.06,12.06,0,0,0,1.93.63,14.13,14.13,0,0,0,1.71.28,14.35,14.35,0,0,1,7.79,3.18c.72.13,1.42.3,2.11.49a30.78,30.78,0,0,1,8.42-.35,15,15,0,0,0,1.91.07,16.32,16.32,0,0,0,2.31-.25c.37-.07.75-.14,1.13-.19a16.73,16.73,0,0,0,3.38-1,19.52,19.52,0,0,1,6.95-.82c.47-.18,1-.34,1.46-.49a10.75,10.75,0,0,1,3.7-2.15c5.15-1.71,10.22-.4,13.44.38,5.23,1.26,8.63,4.34,7.17,8.19a15.72,15.72,0,0,1-3,4.58,12.49,12.49,0,0,1-4.16,2.88c-2.21,3.14-7.5,5.46-13.82,5.46a25.62,25.62,0,0,1-3.05-.18l-.66-.06a15.62,15.62,0,0,0-3.22,1.89c-3.75,2.83-9.61,4.59-16,4.59s-12.29-1.78-16-4.65a16.18,16.18,0,0,0-3.24-1.93l-.75.09a26.07,26.07,0,0,1-3.53.25c-6.89,0-12.29-2.64-13.92-5.49-1-1.79-2.1-3.71-3-5.15C277,258,273.92,255.12,273.92,252.09Z" transform="translate(-100.02 -9.68)"/><path class="cls-62" d="M274.33,252c0-3.05,4.19-6.6,10.53-7.46a20.84,20.84,0,0,1,10.46,1,5.41,5.41,0,0,1,2.16,1.51,9.24,9.24,0,0,0,4.15,2.94c.49.16,1,.35,1.47.56a9.83,9.83,0,0,0,2,.61,13.86,13.86,0,0,0,1.76.16,18.9,18.9,0,0,1,8.3,2.3c.73.12,1.44.26,2.13.43a30.13,30.13,0,0,1,8.43,0,10.84,10.84,0,0,0,1.9.12,13.29,13.29,0,0,0,2.27-.28c.37-.09.74-.17,1.12-.24a11.21,11.21,0,0,0,3.28-1.23A17.06,17.06,0,0,1,341.1,251c.47-.17,1-.33,1.46-.47a12.18,12.18,0,0,1,3.86-1.87c5.57-1.47,10.56.37,13.31,1.32,4.29,1.48,6.83,4.22,5.07,7.63a24.55,24.55,0,0,1-3,4.24A11.62,11.62,0,0,1,358,264.7c-2.22,2.86-7.21,5-13.19,5a25.92,25.92,0,0,1-3.06-.19l-.65-.06a11.24,11.24,0,0,0-3.26,1.81c-3.68,2.88-9.56,4.67-15.93,4.67s-12.32-1.81-16-4.73a11.5,11.5,0,0,0-3.29-1.84c-.25,0-.5,0-.75.08a24.56,24.56,0,0,1-3.53.26c-7,0-12.36-2.79-13.71-5.57a26,26,0,0,0-3.08-5.05C277.26,257.56,274.33,254.83,274.33,252Z" transform="translate(-100.02 -9.68)"/><path class="cls-63" d="M274.74,252c0-2.92,4.36-6.48,11-7.17a20.05,20.05,0,0,1,10.57,1.43,4.85,4.85,0,0,1,2.07,1.73,7.41,7.41,0,0,0,4,3.26c.49.17,1,.36,1.48.58a8,8,0,0,0,2,.59,8.43,8.43,0,0,0,1.8.05,19.18,19.18,0,0,1,8.82,1.42c.73.1,1.44.21,2.14.36a29.67,29.67,0,0,1,8.43.39,9.27,9.27,0,0,0,1.9.17,9.38,9.38,0,0,0,2.23-.32c.37-.09.74-.19,1.12-.27a8.61,8.61,0,0,0,3.18-1.5,14.69,14.69,0,0,1,6.74-1.94q.7-.26,1.47-.45a12.88,12.88,0,0,1,4-1.59c6-1.22,10.88,1.11,13.19,2.26,3.33,1.64,5,4.1,3,7.06-.78,1.13-1.84,2.5-2.93,3.9a10.45,10.45,0,0,1-3.57,2.74c-2.22,2.58-6.92,4.5-12.56,4.5a23.79,23.79,0,0,1-3.05-.2l-.66,0a9,9,0,0,0-3.3,1.72c-3.6,2.94-9.51,4.76-15.88,4.76s-12.36-1.85-16-4.82a9,9,0,0,0-3.32-1.75c-.25,0-.5,0-.76.07a24.76,24.76,0,0,1-3.52.27c-7.13,0-12.44-2.94-13.51-5.65a14.13,14.13,0,0,0-3.13-4.95C277.56,257.13,274.74,254.54,274.74,252Z" transform="translate(-100.02 -9.68)"/><path class="cls-64" d="M275.15,251.89c0-2.79,4.54-6.37,11.4-6.88a19.33,19.33,0,0,1,10.68,1.9,4.42,4.42,0,0,1,2,2,6.37,6.37,0,0,0,3.82,3.58,15.79,15.79,0,0,1,1.51.6,6.82,6.82,0,0,0,2,.55,6.27,6.27,0,0,0,1.84-.06,21.94,21.94,0,0,1,9.34.55c.73.07,1.45.17,2.15.29a29.08,29.08,0,0,1,8.43.76,7.59,7.59,0,0,0,1.9.22,8.15,8.15,0,0,0,2.19-.35l1.11-.32a7,7,0,0,0,3.08-1.75c1.22-1.14,3.63-2.06,6.63-2.51.48-.16,1-.3,1.48-.43a14.58,14.58,0,0,1,4.17-1.31c6.41-.94,11.51,1.46,13.07,3.2,2.67,1.2,3.2,4,.85,6.5a35.11,35.11,0,0,0-2.89,3.56,9.54,9.54,0,0,1-3.28,2.66c-2.23,2.3-6.63,4-11.93,4a25.92,25.92,0,0,1-3.06-.19c-.21,0-.44-.05-.65-.06a7.48,7.48,0,0,0-3.34,1.64c-3.53,3-9.47,4.84-15.85,4.84S309.41,273,305.89,270a7.45,7.45,0,0,0-3.37-1.68c-.25,0-.5,0-.76.07a23.38,23.38,0,0,1-3.52.27c-7.25,0-12.49-3.08-13.3-5.72a9.71,9.71,0,0,0-3.19-4.85C277.85,256.69,275.15,254.25,275.15,251.89Z" transform="translate(-100.02 -9.68)"/><path class="cls-65" d="M275.56,251.82c0-2.66,4.71-6.25,11.83-6.59,4.64-.22,8.49.85,10.8,2.37a4.16,4.16,0,0,1,1.86,2.18,5.71,5.71,0,0,0,3.67,3.91,13.77,13.77,0,0,1,1.52.61,6.14,6.14,0,0,0,2.07.53,5.87,5.87,0,0,0,1.88-.17,24.45,24.45,0,0,1,9.86-.33c.73,0,1.45.12,2.16.22a28.39,28.39,0,0,1,8.43,1.13,6.47,6.47,0,0,0,1.9.27,6.58,6.58,0,0,0,2.15-.38c.36-.13.72-.25,1.1-.36a6.1,6.1,0,0,0,3-2c1.05-1.28,3.43-2.45,6.52-3.06.48-.16,1-.29,1.49-.42a16.88,16.88,0,0,1,4.33-1c6.82-.65,11.9,2.18,12.94,4.13,1.78,1.35,1.38,3.86-1.26,5.94a13.31,13.31,0,0,0-2.86,3.22,8.54,8.54,0,0,1-3,2.59c-2.24,2-6.35,3.54-11.31,3.54a23.91,23.91,0,0,1-3-.2c-.22,0-.44,0-.66-.05a6.34,6.34,0,0,0-3.38,1.56c-3.45,3-9.41,4.92-15.8,4.92s-12.44-1.91-15.87-5a6.33,6.33,0,0,0-3.41-1.59,6.51,6.51,0,0,0-.76.07,25,25,0,0,1-3.52.27c-7.37,0-12.54-3.24-13.1-5.8a7.37,7.37,0,0,0-3.24-4.75C278.14,256.26,275.56,254,275.56,251.82Z" transform="translate(-100.02 -9.68)"/><path class="cls-66" d="M276,251.75c0-2.52,4.89-6.12,12.27-6.3,4.84-.11,8.72,1.2,10.9,2.83a4,4,0,0,1,1.77,2.42,5.24,5.24,0,0,0,3.51,4.22c.51.18,1,.39,1.54.63a5.58,5.58,0,0,0,2.1.51,5.39,5.39,0,0,0,1.92-.29,26.51,26.51,0,0,1,10.38-1.2c.73,0,1.46.07,2.18.14a28.32,28.32,0,0,1,8.43,1.51,5.56,5.56,0,0,0,1.89.32,5.66,5.66,0,0,0,2.11-.41c.35-.15.72-.28,1.09-.4a5.47,5.47,0,0,0,2.9-2.28c.9-1.43,3.22-2.84,6.41-3.63.48-.14,1-.28,1.49-.39a19.48,19.48,0,0,1,4.49-.75c7.23-.33,12,3,12.82,5.08.66,1.61-.44,3.74-3.37,5.36A7.68,7.68,0,0,0,358,262a7.52,7.52,0,0,1-2.69,2.53c-2.24,1.74-6.06,3.05-10.68,3.05a22.07,22.07,0,0,1-3-.2,4.87,4.87,0,0,0-.66,0,5.57,5.57,0,0,0-3.43,1.47c-3.36,3.09-9.36,5-15.76,5s-12.47-1.95-15.83-5.07a5.59,5.59,0,0,0-3.45-1.51,6.51,6.51,0,0,0-.76.07,23.68,23.68,0,0,1-3.52.27c-7.49,0-12.57-3.38-12.89-5.87a6,6,0,0,0-3.3-4.65C278.43,255.83,276,253.67,276,251.75Z" transform="translate(-100.02 -9.68)"/><path class="cls-67" d="M321.67,273.29c-6.47,0-12.51-2-15.79-5.15a5,5,0,0,0-4.26-1.36,23.82,23.82,0,0,1-3.52.28c-7.6,0-12.59-3.52-12.68-5.95a5,5,0,0,0-3.35-4.54c-3.35-1.18-5.69-3.18-5.69-4.89,0-2.39,5.06-6,12.7-6s12.59,3.52,12.68,5.94a5,5,0,0,0,3.35,4.55,15.55,15.55,0,0,1,1.56.64,5,5,0,0,0,2.14.49,5.09,5.09,0,0,0,2-.4,29.74,29.74,0,0,1,21.52-.13,5,5,0,0,0,1.89.37,5.13,5.13,0,0,0,2.07-.44q.53-.24,1.08-.45a5,5,0,0,0,2.8-2.54c1.17-2.43,5.93-5,12.45-5,7.64,0,12.7,3.62,12.7,6,0,1.65-2.25,3.62-5.47,4.8A5,5,0,0,0,357,262c-1.17,2.44-5.93,5-12.45,5a24,24,0,0,1-3.05-.2,4.89,4.89,0,0,0-.66-.05,5,5,0,0,0-3.46,1.39C334.1,271.34,328.07,273.29,321.67,273.29Z" transform="translate(-100.02 -9.68)"/><path class="cls-68" d="M357.91,238.38a4.23,4.23,0,0,0,.54-2c0-3.56-4.62-6.44-10.33-6.44l-.53,0a5.31,5.31,0,0,0,.17-1.26c0-4.54-5.93-8.23-13.23-8.23a20.26,20.26,0,0,0-5.54.76,14.15,14.15,0,0,0-7.19-1.81c-3.78,0-7.08,1.27-8.88,3.16a18.82,18.82,0,0,0-8.58-1.93c-5.25,0-9.78,1.88-12,4.61a15,15,0,0,0-5.72-1.08c-5.7,0-10.33,2.88-10.33,6.43a4.22,4.22,0,0,0,.34,1.61,20.37,20.37,0,0,0-6.73-1.11c-7.56,0-13.69,3.82-13.69,8.53a6.2,6.2,0,0,0,1.8,4.2c-2.73,1.71-4.41,4.06-4.41,6.66,0,4.82,5.8,8.79,13.29,9.37.09,4.84,6.42,8.76,14.22,8.76,5.28,0,9.87-1.79,12.33-4.45,3.16,3.21,8.83,5.36,15.32,5.36,5.6,0,10.6-1.6,13.89-4.1a25.44,25.44,0,0,0,11.17,2.43c9.45,0,17.18-4.54,17.9-10.3h.14c8.83,0,16-4.45,16-9.95C367.84,243.42,363.73,239.86,357.91,238.38Zm-38,11.17a25.39,25.39,0,0,0-11.16-2.43c-7.55,0-14,2.89-16.66,7a17.22,17.22,0,0,0-8.2-3.06,5.87,5.87,0,0,0,.05-.59,7.53,7.53,0,0,0-3.13-5.74,6.75,6.75,0,0,0,2.77-5.12,5.8,5.8,0,0,0-.94-3.09,15.69,15.69,0,0,0,4,.5,13.57,13.57,0,0,0,7.92-2.3,18,18,0,0,0,9.8,2.65c6,0,11.06-2.44,12.8-5.81a15.6,15.6,0,0,0,4.66.69l.81,0c2.13,2.77,6.66,4.68,11.92,4.68a21.79,21.79,0,0,0,3.28-.26,5.51,5.51,0,0,0,2.63,4,9.77,9.77,0,0,0-4.22,4.93c-.79-.06-1.58-.11-2.4-.11C328.22,245.45,323.22,247.05,319.92,249.55Z" transform="translate(-100.02 -9.68)"/><path class="cls-69" d="M307.73,266.35c-5.42,0-10.47-1.71-13.17-4.47a3,3,0,0,0-2.15-.89h0a3,3,0,0,0-2.17,1c-1.95,2.12-5.92,3.48-10.11,3.48-6.55,0-11.17-3.06-11.21-5.8a3,3,0,0,0-2.78-2.95c-6.49-.5-10.51-3.7-10.51-6.37,0-1.41,1.09-2.91,3-4.1a3,3,0,0,0,.62-4.58,3.26,3.26,0,0,1-1-2.18c0-2.6,4.56-5.51,10.68-5.51a17.52,17.52,0,0,1,5.73.93,2.84,2.84,0,0,0,1,.17,3,3,0,0,0,2.78-4.16,1.09,1.09,0,0,1-.11-.45c0-1.37,2.92-3.43,7.32-3.43a11.87,11.87,0,0,1,4.56.85,3.15,3.15,0,0,0,1.16.23,3,3,0,0,0,2.33-1.11c1.73-2.13,5.52-3.5,9.67-3.5a16,16,0,0,1,7.19,1.59,3,3,0,0,0,3.56-.6c1-1,3.32-2.22,6.71-2.22a11.23,11.23,0,0,1,5.63,1.38,3,3,0,0,0,1.55.43,3,3,0,0,0,.84-.11,16.94,16.94,0,0,1,4.7-.65c5.85,0,10.23,2.76,10.23,5.23a2.29,2.29,0,0,1-.09.54,3,3,0,0,0,.59,2.61,3,3,0,0,0,2.33,1.11h.54c4.4,0,7.32,2.06,7.32,3.42a1.35,1.35,0,0,1-.18.62,3,3,0,0,0-.11,2.63,3,3,0,0,0,2,1.71c4.52,1.15,7.67,3.73,7.67,6.29,0,3.28-5.33,6.94-13,6.94h-.14a3,3,0,0,0-3,2.63c-.47,3.69-6.31,7.68-14.92,7.68a22.69,22.69,0,0,1-9.83-2.12,3,3,0,0,0-3.16.3C316.89,265.07,312.49,266.35,307.73,266.35Zm-26.11-33a3,3,0,0,0-2.55,4.6,2.74,2.74,0,0,1,.49,1.49,4,4,0,0,1-1.68,2.8,3,3,0,0,0,0,4.66,4.73,4.73,0,0,1,2,3.4l0,.29a3,3,0,0,0,2.62,3.29,14.28,14.28,0,0,1,6.75,2.47,3,3,0,0,0,1.82.61,2.92,2.92,0,0,0,.51,0,3,3,0,0,0,2-1.33c1.82-2.8,6.9-5.62,14.13-5.62a22.54,22.54,0,0,1,9.83,2.12,3,3,0,0,0,1.34.31,3.06,3.06,0,0,0,1.82-.61c2.92-2.22,7.32-3.49,12.08-3.49.63,0,1.31,0,2.15.1h.24a3,3,0,0,0,2.86-2.06,7,7,0,0,1,3-3.34,3,3,0,0,0,.1-5,2.73,2.73,0,0,1-1.34-1.74,3,3,0,0,0-1.14-2.14,3,3,0,0,0-1.86-.65,2.59,2.59,0,0,0-.48,0,18.14,18.14,0,0,1-2.81.23c-4.71,0-8.19-1.77-9.53-3.51a3,3,0,0,0-2.39-1.18h-.14l-.66,0a12.53,12.53,0,0,1-3.76-.56,3.13,3.13,0,0,0-.9-.14,3,3,0,0,0-2.67,1.63c-1.08,2.08-4.9,4.19-10.13,4.19a15.06,15.06,0,0,1-8.14-2.16,3.08,3.08,0,0,0-1.67-.5,3,3,0,0,0-1.79.59,10.65,10.65,0,0,1-6.12,1.71,12.57,12.57,0,0,1-3.22-.4A3.22,3.22,0,0,0,281.62,233.36Z" transform="translate(-100.02 -9.68)"/><path class="cls-70" d="M307.49,262.48c-4.83,0-9.44-1.52-11.74-3.87a5,5,0,0,0-3.58-1.49h-.08a5,5,0,0,0-3.6,1.61c-1.31,1.41-4.49,2.83-8.64,2.83-5.94,0-9.19-2.72-9.21-3.83a5,5,0,0,0-4.62-4.91c-5.61-.44-8.67-3.12-8.67-4.37,0-.68.81-1.63,2.06-2.41a5,5,0,0,0,1-7.63,1.59,1.59,0,0,1-.48-.82c0-.91,3-3.51,8.67-3.51a15.36,15.36,0,0,1,5.07.82,5,5,0,0,0,1.66.28,5.16,5.16,0,0,0,1-.1,5.19,5.19,0,0,0,.73,2.08,1,1,0,0,1,.18.43c0,.23-.3.72-.95,1.25a5,5,0,0,0,0,7.76,3.17,3.17,0,0,1,1.28,1.76l0,.18A5,5,0,0,0,282,254a12.45,12.45,0,0,1,5.79,2.09,5,5,0,0,0,7.23-1.27c1.48-2.27,6-4.71,12.45-4.71a20.59,20.59,0,0,1,8.94,1.91,5,5,0,0,0,5.26-.5c2.54-1.93,6.6-3.08,10.87-3.08.58,0,1.21,0,2,.1H335a5,5,0,0,0,4.76-3.43,5.06,5.06,0,0,1,2.16-2.28,5,5,0,0,0,.16-8.35,2.45,2.45,0,0,1-.5-.44,5,5,0,0,0-5-4.45,4.29,4.29,0,0,0-.79.07,16.38,16.38,0,0,1-2.49.2c-4,0-6.93-1.42-7.95-2.73a5,5,0,0,0-4-2h-.25l-.56,0a10.69,10.69,0,0,1-3.14-.46,5,5,0,0,0-1.51-.24,5.16,5.16,0,0,0-1.57.25,4.54,4.54,0,0,0,1-.79,7.86,7.86,0,0,1,5.25-1.6,9.15,9.15,0,0,1,4.6,1.1,5,5,0,0,0,4,.52,14.91,14.91,0,0,1,4.15-.57c5.31,0,8.22,2.42,8.22,3.22h0a.3.3,0,0,0,0,.06,5,5,0,0,0,4.87,6.21h.53a8.2,8.2,0,0,1,5.18,1.5,5,5,0,0,0,3.38,6.81c3.8,1,6.15,3,6.15,4.35,0,1.74-4.13,4.92-10.89,4.94h-.21a5,5,0,0,0-5,4.39c-.31,2.47-5.38,5.92-12.92,5.92a20.59,20.59,0,0,1-8.94-1.91,5,5,0,0,0-5.26.5C315.82,261.32,311.76,262.48,307.49,262.48Zm-4.41-32.14a13,13,0,0,1-7-1.82,5,5,0,0,0-2.72-.84,5,5,0,0,0,1.64-1.31c1.08-1.33,4.07-2.76,8.11-2.76a13.93,13.93,0,0,1,6.27,1.37,5,5,0,0,0,3.87.31,5,5,0,0,0-1.8,2C310.78,228.49,307.68,230.34,303.08,230.34ZM285.36,230a10.82,10.82,0,0,1-2.71-.33,5.22,5.22,0,0,0-2.3-.06,5,5,0,0,0-.2-.91,8.09,8.09,0,0,1,5.21-1.54,9.85,9.85,0,0,1,3.8.7,5,5,0,0,0,1.86.38,5.51,5.51,0,0,0-.73.45A8.69,8.69,0,0,1,285.36,230Z" transform="translate(-100.02 -9.68)"/><path class="cls-71" d="M307.49,259.47c-3.94,0-7.88-1.22-9.6-3l-.2-.2c.92-1.14,4.23-3.17,9.8-3.17a17.55,17.55,0,0,1,7.61,1.6,8,8,0,0,0,8.4-.8c2-1.52,5.48-2.47,9.06-2.47.5,0,1.05,0,1.72.08l.67,0a8,8,0,0,0,7.58-5.39,3.7,3.7,0,0,1,1-.79,8.06,8.06,0,0,0,3.24-9.47H347a7.27,7.27,0,0,1,1.68.19,8.23,8.23,0,0,0,.67,3.49,8,8,0,0,0,5.37,4.55,10.29,10.29,0,0,1,3.31,1.43,13,13,0,0,1-7.27,1.93h-.25a8,8,0,0,0-7.95,6.91c-.49,1-4,3.39-9.95,3.39a17.52,17.52,0,0,1-7.61-1.6,8,8,0,0,0-8.41.8C314.54,258.52,311.07,259.47,307.49,259.47Zm-27.64-.91c-3.54,0-5.57-1.13-6.26-1.69a8,8,0,0,0-7.34-7.05,11.87,11.87,0,0,1-5-1.39A8,8,0,0,0,263.82,238a11.37,11.37,0,0,1,4.81-.94,12.54,12.54,0,0,1,4.07.65l.45.15a8,8,0,0,0,1.34,11.06l.13.1a8,8,0,0,0,7,8,11.84,11.84,0,0,1,2.9.72A12.63,12.63,0,0,1,279.85,258.56Zm23.23-31.23a13.34,13.34,0,0,1-3-.35,12.54,12.54,0,0,1,3-.36,13.3,13.3,0,0,1,3,.35A12.49,12.49,0,0,1,303.08,227.33Zm30.18-.46a12.58,12.58,0,0,1-2.35-.21,12,12,0,0,1,2.35-.22,12.79,12.79,0,0,1,2.39.21l-.37,0A12.91,12.91,0,0,1,333.26,226.87Z" transform="translate(-100.02 -9.68)"/><circle class="cls-72" cx="287.32" cy="124.92" r="3.37"/><path class="cls-73" d="M337.86,141.07,359,152.33V138.08a11.06,11.06,0,0,0-1.11-5.14l-9.13-17.37c-2-3.73-6.22-4.4-10.89-1.7h0Z" transform="translate(-100.02 -9.68)"/><path class="cls-74" d="M290.07,141.07l-21.14,11.26V138.08a11.06,11.06,0,0,1,1.11-5.14l9.13-17.37c2-3.73,6.22-4.4,10.9-1.7h0Z" transform="translate(-100.02 -9.68)"/><path class="cls-75" d="M325.19,189.24c0,12-5,43.26-11.23,43.26s-11.23-31.3-11.23-43.26c0-10.53,5-13.06,11.23-13.06S325.19,178.71,325.19,189.24Z" transform="translate(-100.02 -9.68)"/><path class="cls-76" d="M324.59,189.09c0,11.68-4.76,42.68-10.63,42.68s-10.63-31-10.63-42.68c0-10.27,4.76-12.75,10.63-12.75S324.59,178.82,324.59,189.09Z" transform="translate(-100.02 -9.68)"/><path class="cls-77" d="M324,189c0,11.39-4.49,42.09-10,42.09s-10-30.7-10-42.09c0-10,4.49-12.44,10-12.44S324,178.92,324,189Z" transform="translate(-100.02 -9.68)"/><path class="cls-78" d="M323.39,188.8c0,11.11-4.22,41.51-9.43,41.51s-9.43-30.4-9.43-41.51c0-9.77,4.22-12.13,9.43-12.13S323.39,179,323.39,188.8Z" transform="translate(-100.02 -9.68)"/><path class="cls-79" d="M322.79,188.66c0,10.82-4,40.93-8.83,40.93s-8.83-30.11-8.83-40.93c0-9.53,3.95-11.82,8.83-11.82S322.79,179.13,322.79,188.66Z" transform="translate(-100.02 -9.68)"/><path class="cls-80" d="M322.2,188.51c0,10.54-3.69,40.35-8.24,40.35s-8.23-29.81-8.23-40.35c0-9.27,3.68-11.51,8.23-11.51S322.2,179.24,322.2,188.51Z" transform="translate(-100.02 -9.68)"/><path class="cls-81" d="M321.6,188.37c0,10.25-3.42,39.76-7.64,39.76s-7.63-29.51-7.63-39.76c0-9,3.41-11.2,7.63-11.2S321.6,179.34,321.6,188.37Z" transform="translate(-100.02 -9.68)"/><path class="cls-82" d="M321,188.22c0,10-3.15,39.18-7,39.18s-7-29.21-7-39.18c0-8.77,3.15-10.89,7-10.89S321,179.45,321,188.22Z" transform="translate(-100.02 -9.68)"/><path class="cls-83" d="M320.4,188.08c0,9.68-2.89,38.59-6.44,38.59s-6.43-28.91-6.43-38.59c0-8.53,2.88-10.58,6.43-10.58S320.4,179.55,320.4,188.08Z" transform="translate(-100.02 -9.68)"/><path class="cls-84" d="M319.8,187.93c0,9.4-2.62,38-5.84,38s-5.83-28.61-5.83-38c0-8.27,2.61-10.27,5.83-10.27S319.8,179.66,319.8,187.93Z" transform="translate(-100.02 -9.68)"/><path class="cls-85" d="M319.2,187.79c0,9.11-2.35,37.42-5.24,37.42s-5.23-28.31-5.23-37.42c0-8,2.34-10,5.23-10S319.2,179.76,319.2,187.79Z" transform="translate(-100.02 -9.68)"/><path class="cls-86" d="M318.6,187.64c0,8.83-2.08,36.84-4.64,36.84s-4.63-28-4.63-36.84c0-7.77,2.07-9.65,4.63-9.65S318.6,179.87,318.6,187.64Z" transform="translate(-100.02 -9.68)"/><path class="cls-87" d="M324,172.54H303.9v2.84h0v.08c0,3.24,4.5,5.86,10.06,5.86S324,178.7,324,175.46v-.08h0Z" transform="translate(-100.02 -9.68)"/><path class="cls-88" d="M338,147.37H289.93v14.28h0c0,.07,0,.13,0,.2,0,7.73,10.76,14,24,14s24-6.26,24-14v-.2h0Z" transform="translate(-100.02 -9.68)"/><path class="cls-89" d="M338,147.87H289.93v11.39h0c0,.05,0,.1,0,.15,0,6.17,10.76,11.16,24,11.16s24-5,24-11.16v-.15h0Z" transform="translate(-100.02 -9.68)"/><path class="cls-90" d="M351.54,100.1a84.41,84.41,0,0,0-13.94-58c-.48-.71-1-1.42-1.49-2.11L314,9.68,291.81,40c-.5.69-1,1.4-1.49,2.11a84.35,84.35,0,0,0-13.93,58L282,147.41h0c0,.08,0,.17,0,.25,0,10.27,14.29,18.59,31.92,18.59s31.92-8.32,31.92-18.59c0-.08,0-.17,0-.25h0Z" transform="translate(-100.02 -9.68)"/><path class="cls-91" d="M336.11,40,314,9.68,291.81,40l-.36.51c3.83,5,12.47,8.53,22.51,8.53s18.68-3.51,22.51-8.53Z" transform="translate(-100.02 -9.68)"/><path class="cls-92" d="M336.11,40,314,9.68,291.81,40l-.36.51c3.83,5,12.47,8.53,22.51,8.53s18.68-3.51,22.51-8.53Z" transform="translate(-100.02 -9.68)"/><path class="cls-93" d="M351.54,100.1a84.41,84.41,0,0,0-13.94-58c-.48-.71-1-1.42-1.49-2.11L314,9.68,291.81,40c-.5.69-1,1.4-1.49,2.11a84.35,84.35,0,0,0-13.93,58L282,147.41h0c0,.08,0,.17,0,.25,0,10.27,14.29,18.59,31.92,18.59s31.92-8.32,31.92-18.59c0-.08,0-.17,0-.25h0Z" transform="translate(-100.02 -9.68)"/><path class="cls-94" d="M329,73.81C322.62,48.32,309.47,19,312.59,17.53c5.5-2.49,28.47,26.11,34.82,51.61,5.59,22.44-.71,78.33-6.52,79.77S334.55,96.26,329,73.81Z" transform="translate(-100.02 -9.68)"/><path class="cls-95" d="M309.13,112.67c0,4.41-1.53,7.54-4,9-.08,0-2.38,1.51-2.46,1.55-2.57,1.44-.92-1.83-4.84-4.09-7.87-4.54-14.25-15.55-14.25-24.58,0-4.47-4.13-4.5-1.6-6L284.92,87c2.57-1.39,6.08-1.14,9.95,1.1C302.74,92.63,309.13,103.64,309.13,112.67Z" transform="translate(-100.02 -9.68)"/><path class="cls-96" d="M306.31,114.33c0,9-6.38,12.68-14.25,8.13s-14.25-15.55-14.25-24.58,6.38-12.67,14.25-8.13S306.31,105.3,306.31,114.33Z" transform="translate(-100.02 -9.68)"/><path class="cls-97" d="M303.63,112.79c0,7.33-5.18,10.29-11.57,6.6s-11.57-12.63-11.57-20,5.18-10.29,11.57-6.6S303.63,105.45,303.63,112.79Z" transform="translate(-100.02 -9.68)"/><path class="cls-98" d="M301.23,109.13c0,5.52-3.9,7.74-8.71,5s-8.71-9.5-8.71-15,3.9-7.74,8.71-5S301.23,103.61,301.23,109.13Z" transform="translate(-100.02 -9.68)"/><path class="cls-99" d="M294.34,118.43c-6.39-3.69-11.58-12.63-11.58-20,0-3.38,1.11-5.83,2.92-7.13-3.13.57-5.19,3.46-5.19,8.08,0,7.34,5.18,16.28,11.57,20,3.45,2,6.54,2,8.66.52A9.5,9.5,0,0,1,294.34,118.43Z" transform="translate(-100.02 -9.68)"/><path class="cls-100" d="M292.48,89.39c-3.77-2.18-7.68-2-9.49-1.18a12.13,12.13,0,0,1,8.93,1.58c7.88,4.55,14.26,15.55,14.26,24.59,0,4.7-2.15,8-4.92,9.41,2.91-1.07,5.47-4.45,5.47-9.82C306.73,104.94,300.35,93.93,292.48,89.39Z" transform="translate(-100.02 -9.68)"/><path class="cls-101" d="M290.3,160.61l-16.82,32.21-3.4-2V177.17a20,20,0,0,1,1.06-6.15l8.74-26.7c1.87-5.75,5.94-11.08,10.42-13.66h0l3.27,2Z" transform="translate(-100.02 -9.68)"/><path class="cls-102" d="M293.7,162.62l-20.22,30.2V179.18a20,20,0,0,1,1.06-6.15l8.74-26.7c1.88-5.75,6-11.08,10.42-13.67h0Z" transform="translate(-100.02 -9.68)"/><path class="cls-103" d="M273.78,179.55a20,20,0,0,1,1.06-6.15l8.73-26.7c1.8-5.49,5.6-10.6,9.83-13.3v-.81h0c-4.47,2.58-8.54,7.92-10.42,13.67L274.24,173a20.29,20.29,0,0,0-1.06,6.15v13.64l.6-.89Z" transform="translate(-100.02 -9.68)"/><path class="cls-104" d="M337.62,160.61l16.82,32.21,3.4-2V177.17a20,20,0,0,0-1.06-6.15l-8.73-26.7c-1.88-5.75-5.95-11.08-10.43-13.66h0l-3.27,2Z" transform="translate(-100.02 -9.68)"/><path class="cls-105" d="M334.22,162.62l20.22,30.2V179.18a20,20,0,0,0-1.06-6.15l-8.74-26.7c-1.87-5.75-5.94-11.08-10.42-13.67h0Z" transform="translate(-100.02 -9.68)"/><path class="cls-106" d="M353.83,173l-8.74-26.7c-1.88-5.75-5.95-11.08-10.42-13.67h0v.18a26.07,26.07,0,0,1,9.36,13l8.74,26.7a20,20,0,0,1,1.06,6.15v12.56l1.06,1.58V179.18A20.34,20.34,0,0,0,353.83,173Z" transform="translate(-100.02 -9.68)"/></g></g></svg>