<svg id="Layer_1" data-name="Layer 1" xmlns="http://www.w3.org/2000/svg" viewBox="0 0 512 413.6"><defs><style>.cls-1{fill:none;}.cls-2{fill:#07c1db;}.cls-3{fill:#ffd250;}</style></defs><path class="cls-1" d="M341.63,388.19c-4.84,5.57-14.4,5.57-19.25,0a47.32,47.32,0,0,0-36-16.59H225.6a47.32,47.32,0,0,0-36,16.59c-4.85,5.57-14.41,5.57-19.25,0a47.34,47.34,0,0,0-36-16.59H73.6a48.06,48.06,0,0,0-48,48v17.6H486.4V419.6a48.06,48.06,0,0,0-48-48h-60.8A47.34,47.34,0,0,0,341.63,388.19Z" transform="translate(0 -49.2)"/><path class="cls-1" d="M308.44,349.62A73.76,73.76,0,0,1,332,362.11a73.94,73.94,0,0,1,23.56-12.49,73.59,73.59,0,0,1-13.45-18.82H321.88A73.8,73.8,0,0,1,308.44,349.62Z" transform="translate(0 -49.2)"/><path class="cls-1" d="M486.4,74.8H25.6V305.2h5.15c-.23-2.35-.35-4.74-.35-7.15V298c0-1.83.08-3.63.22-5.42a73.58,73.58,0,0,1,73.09-68.18H104A73.6,73.6,0,0,1,177.6,298c0,2.43-.13,4.83-.36,7.2h5.51q-.34-3.56-.35-7.2A73.6,73.6,0,0,1,256,224.4h0c.4,0,.79,0,1.18,0A73.52,73.52,0,0,1,329.6,298c0,.07,0,.15,0,.22q0,3.52-.35,7h5.51q-.35-3.56-.35-7.2A73.6,73.6,0,0,1,408,224.4h0A73.6,73.6,0,0,1,481.6,298c0,2.43-.13,4.83-.36,7.2h5.16Z" transform="translate(0 -49.2)"/><path class="cls-1" d="M203.56,349.62a73.59,73.59,0,0,1-13.45-18.82H169.88a73.8,73.8,0,0,1-13.44,18.82A73.45,73.45,0,0,1,180,362.11,74,74,0,0,1,203.56,349.62Z" transform="translate(0 -49.2)"/><path class="cls-2" d="M256,224.4h0l1.18,0C256.79,224.42,256.4,224.4,256,224.4Z" transform="translate(0 -49.2)"/><path class="cls-3" d="M321.88,330.8h20.23a73.18,73.18,0,0,1-7.36-25.6h-5.51A73.18,73.18,0,0,1,321.88,330.8Z" transform="translate(0 -49.2)"/><path class="cls-2" d="M329.59,298.22c0-.07,0-.15,0-.22a74,74,0,0,0-.85-11.21A74,74,0,0,1,329.6,298C329.6,298.07,329.59,298.15,329.59,298.22Z" transform="translate(0 -49.2)"/><path class="cls-2" d="M408,224.4h0Z" transform="translate(0 -49.2)"/><path class="cls-2" d="M308.44,349.62a73.37,73.37,0,0,1-52.44,22h30.41a47.32,47.32,0,0,1,36,16.59c4.85,5.57,14.41,5.57,19.25,0a47.34,47.34,0,0,1,36-16.59H408a73.33,73.33,0,0,1-52.44-22A73.94,73.94,0,0,0,332,362.11,73.76,73.76,0,0,0,308.44,349.62Z" transform="translate(0 -49.2)"/><path class="cls-2" d="M30.4,298.05V298c0-1.83.09-3.63.22-5.42-.14,1.79-.22,3.59-.22,5.42Z" transform="translate(0 -49.2)"/><path class="cls-2" d="M408,371.6h30.41a48.06,48.06,0,0,1,48,48v17.6H25.6V419.6a48.06,48.06,0,0,1,48-48H104a73.41,73.41,0,0,1-52.36-21.88C21.82,359.12,0,386.71,0,419.6V450a12.79,12.79,0,0,0,12.8,12.8H499.2A12.8,12.8,0,0,0,512,450V419.6c0-32.89-21.82-60.48-51.65-69.89A73.35,73.35,0,0,1,408,371.6Z" transform="translate(0 -49.2)"/><path class="cls-3" d="M182.75,305.2h-5.51a73.18,73.18,0,0,1-7.36,25.6h20.23A73.18,73.18,0,0,1,182.75,305.2Z" transform="translate(0 -49.2)"/><path class="cls-2" d="M170.38,388.19c4.84,5.57,14.4,5.57,19.25,0a47.32,47.32,0,0,1,36-16.59H256a73.37,73.37,0,0,1-52.44-22A74,74,0,0,0,180,362.11a73.45,73.45,0,0,0-23.56-12.49,73.37,73.37,0,0,1-52.44,22h30.4A47.34,47.34,0,0,1,170.38,388.19Z" transform="translate(0 -49.2)"/><path class="cls-3" d="M25.6,305.2V74.8H486.4V305.2h-5.16a73.18,73.18,0,0,1-7.36,25.6H486.4A25.6,25.6,0,0,0,512,305.2V74.8a25.6,25.6,0,0,0-25.6-25.6H25.6A25.6,25.6,0,0,0,0,74.8V305.2a25.6,25.6,0,0,0,25.6,25.6H38.11a73.18,73.18,0,0,1-7.36-25.6Z" transform="translate(0 -49.2)"/><path class="cls-2" d="M103.71,224.4h0Z" transform="translate(0 -49.2)"/><path class="cls-2" d="M169.54,330.8a74,74,0,0,1-13.17,18.8l.07,0a73.8,73.8,0,0,0,13.44-18.82Z" transform="translate(0 -49.2)"/><path class="cls-2" d="M30.62,292.58a73.67,73.67,0,0,1,73.09-68.18A73.58,73.58,0,0,0,30.62,292.58Z" transform="translate(0 -49.2)"/><path class="cls-2" d="M31.12,305.2c-.23-2.39-.72-4.7-.72-7.15,0,2.41.12,4.8.35,7.15Z" transform="translate(0 -49.2)"/><path class="cls-2" d="M104,224.4h0A73.68,73.68,0,0,1,177.6,298a71.65,71.65,0,0,1-.73,7.2h.37c.23-2.37.36-4.77.36-7.2A73.6,73.6,0,0,0,104,224.4Z" transform="translate(0 -49.2)"/><path class="cls-2" d="M38.46,330.8h-.35a74,74,0,0,0,13.53,18.92l.07,0A73.91,73.91,0,0,1,38.46,330.8Z" transform="translate(0 -49.2)"/><path class="cls-2" d="M104,371.6a73.37,73.37,0,0,0,52.44-22l-.07,0a74,74,0,0,0,13.17-18.8h.34a73.18,73.18,0,0,0,7.36-25.6h-.37a71.65,71.65,0,0,0,.73-7.2A73.68,73.68,0,0,0,104,224.4h-.29a73.67,73.67,0,0,0-73.09,68.18c-.13,1.79-.22,3.59-.22,5.42v.05c0,2.45.49,4.76.72,7.15h-.37a73.18,73.18,0,0,0,7.36,25.6h.35a73.91,73.91,0,0,0,13.25,18.89l-.07,0A73.41,73.41,0,0,0,104,371.6ZM104,250a48,48,0,1,1-48,48A48.06,48.06,0,0,1,104,250Z" transform="translate(0 -49.2)"/><path class="cls-2" d="M308.37,349.6l.07,0a73.8,73.8,0,0,0,13.44-18.82h-.34A74,74,0,0,1,308.37,349.6Z" transform="translate(0 -49.2)"/><path class="cls-2" d="M329.24,305.2q.33-3.45.35-7c0,2.38-.48,4.65-.71,7Z" transform="translate(0 -49.2)"/><path class="cls-2" d="M190.46,330.8h-.35a73.59,73.59,0,0,0,13.45,18.82l.07,0A74.5,74.5,0,0,1,190.46,330.8Z" transform="translate(0 -49.2)"/><path class="cls-2" d="M182.4,298A73.67,73.67,0,0,1,256,224.4h0A73.6,73.6,0,0,0,182.4,298q0,3.64.35,7.2h.38A71.65,71.65,0,0,1,182.4,298Z" transform="translate(0 -49.2)"/><path class="cls-2" d="M328.75,286.79a73.6,73.6,0,0,0-71.57-62.36A73.7,73.7,0,0,1,328.75,286.79Z" transform="translate(0 -49.2)"/><path class="cls-2" d="M190.46,330.8a74.5,74.5,0,0,0,13.17,18.8l-.07,0a73.55,73.55,0,0,0,104.88,0l-.07,0a74,74,0,0,0,13.17-18.8h.34a73.18,73.18,0,0,0,7.36-25.6h-.36c.23-2.33.68-4.6.71-7,0-.07,0-.15,0-.22a73.52,73.52,0,0,0-72.42-73.57l-1.18,0A73.67,73.67,0,0,0,182.4,298a71.65,71.65,0,0,0,.73,7.2h-.38a73.18,73.18,0,0,0,7.36,25.6ZM256,250a48,48,0,1,1-48,48A48.06,48.06,0,0,1,256,250Z" transform="translate(0 -49.2)"/><path class="cls-2" d="M335.12,305.2c-.23-2.41-.72-4.74-.72-7.2q0,3.64.35,7.2Z" transform="translate(0 -49.2)"/><path class="cls-2" d="M473.54,330.8a73.91,73.91,0,0,1-13.25,18.89l.06,0a73.93,73.93,0,0,0,13.53-18.91Z" transform="translate(0 -49.2)"/><path class="cls-2" d="M334.4,298A73.67,73.67,0,0,1,408,224.4h0A73.6,73.6,0,0,0,334.4,298Z" transform="translate(0 -49.2)"/><path class="cls-2" d="M355.63,349.6a74,74,0,0,1-13.17-18.8h-.35a73.59,73.59,0,0,0,13.45,18.82Z" transform="translate(0 -49.2)"/><path class="cls-2" d="M408,224.4A73.69,73.69,0,0,1,481.6,298a71.65,71.65,0,0,1-.73,7.2h.37c.23-2.37.36-4.77.36-7.2A73.6,73.6,0,0,0,408,224.4Z" transform="translate(0 -49.2)"/><path class="cls-2" d="M473.54,330.8h.34a73.18,73.18,0,0,0,7.36-25.6h-.37a71.65,71.65,0,0,0,.73-7.2A73.69,73.69,0,0,0,408,224.4h0A73.67,73.67,0,0,0,334.4,298c0,2.46.49,4.79.72,7.2h-.37a73.18,73.18,0,0,0,7.36,25.6h.35a74,74,0,0,0,13.17,18.8l-.07,0a73.54,73.54,0,0,0,104.79.09l-.06,0A73.91,73.91,0,0,0,473.54,330.8ZM408,346a48,48,0,1,1,48-48A48.06,48.06,0,0,1,408,346Z" transform="translate(0 -49.2)"/></svg>