<?xml version="1.0" encoding="utf-8"?>
<!-- Generator: Adobe Illustrator 24.1.1, SVG Export Plug-In . SVG Version: 6.00 Build 0)  -->
<svg version="1.1" id="Layer_1" xmlns="http://www.w3.org/2000/svg" xmlns:xlink="http://www.w3.org/1999/xlink" x="0px" y="0px"
	 viewBox="0 0 200 200" style="enable-background:new 0 0 200 200;" xml:space="preserve">
<style type="text/css">
	.st0{opacity:0.5;fill:none;stroke:#07C1DB;stroke-width:4;stroke-miterlimit:10;enable-background:new    ;}
	.st1{fill:none;stroke:#07C1DB;stroke-width:5;stroke-miterlimit:10;}
	.st2{fill:none;stroke:#07C1DB;stroke-width:8;stroke-miterlimit:10;}
</style>
<path class="st0" d="M129.5,191.3h-59c-34.1,0-61.8-27.7-61.8-61.8v-59c0-34.1,27.7-61.8,61.8-61.8h59.1c34.1,0,61.8,27.7,61.8,61.8
	v59.1C191.3,163.7,163.7,191.3,129.5,191.3z"/>
<path class="st1" d="M69.6,131.5"/>
<path class="st2" d="M122.4,148.7H77.7c-6.3,0-11.4-5.1-11.4-11.4v-78c0-6.3,5.1-11.4,11.4-11.4h44.7c6.3,0,11.4,5.1,11.4,11.4v78
	C133.8,143.5,128.7,148.7,122.4,148.7z"/>
<line class="st2" x1="76.6" y1="75" x2="123.9" y2="75"/>
<line class="st2" x1="76.6" y1="87" x2="123.9" y2="87"/>
<line class="st2" x1="76.6" y1="99" x2="123.9" y2="99"/>
<line class="st2" x1="76.6" y1="111" x2="123.9" y2="111"/>
<line class="st2" x1="76.6" y1="123" x2="102.4" y2="123"/>
</svg>
