<?xml version="1.0" encoding="utf-8"?>
<!-- Generator: Adobe Illustrator 24.1.1, SVG Export Plug-In . SVG Version: 6.00 Build 0)  -->
<svg version="1.1" id="Layer_1" xmlns="http://www.w3.org/2000/svg" xmlns:xlink="http://www.w3.org/1999/xlink" x="0px" y="0px"
	 viewBox="0 0 200 200" style="enable-background:new 0 0 200 200;" xml:space="preserve">
<style type="text/css">
	.st0{opacity:0.5;fill:none;stroke:#07C1DB;stroke-width:4;stroke-miterlimit:10;enable-background:new    ;}
	.st1{fill:none;stroke:#07C1DB;stroke-width:8;stroke-miterlimit:10;}
</style>
<path class="st0" d="M129.5,191.3h-59c-34.1,0-61.8-27.7-61.8-61.8v-59c0-34.1,27.7-61.8,61.8-61.8h59.1c34.1,0,61.8,27.7,61.8,61.8
	v59.1C191.3,163.7,163.7,191.3,129.5,191.3z"/>
<g>
	<path class="st1" d="M72.2,104.2L34.5,84.3c-0.6-0.3-0.4-1.6,0.2-1.7L160.4,57c1.4-0.3,2.8,0.6,3.1,2.1c0.1,0.5,0.1,1.1-0.2,1.6
		l-32.9,74.7c-0.3,0.6-1,0.9-1.6,0.6h-0.1l-43.9-23.7c-0.9-0.5-1.3-1.6-0.8-2.5c0.1-0.3,0.4-0.5,0.6-0.7l54.8-35.5
		c0.1-0.1,0.2-0.2,0.1-0.4l-0.3-0.8c-0.1-0.2-0.3-0.3-0.4-0.2l0,0l-64.6,32.1C73.6,104.6,72.8,104.6,72.2,104.2z"/>
	<path class="st1" d="M72.2,104.2v34.2c0,1.1,1.3,1.8,2.2,1.1l25.1-19.3"/>
</g>
<line class="st1" x1="72.2" y1="139.8" x2="84" y2="109.8"/>
</svg>
