<?xml version="1.0" encoding="utf-8"?>
<!-- Generator: Adobe Illustrator 24.1.1, SVG Export Plug-In . SVG Version: 6.00 Build 0)  -->
<svg version="1.1" id="Layer_1" xmlns="http://www.w3.org/2000/svg" xmlns:xlink="http://www.w3.org/1999/xlink" x="0px" y="0px"
	 viewBox="0 0 595.3 841.9" style="enable-background:new 0 0 595.3 841.9;" xml:space="preserve">
<style type="text/css">
	.st0{opacity:8.000000e-02;fill:#07C1DB;}
	.st1{fill:#07C1DB;}
	.st2{fill:#FFD250;}
</style>
<rect x="-445.9" y="284.5" class="st0" width="236.3" height="329.4"/>
<g>
	<path class="st1" d="M-247.8,539.2h-64.9c-2.1,0-3.9-1.7-3.9-3.9l0,0c0-2.1,1.7-3.9,3.9-3.9h64.9c2.1,0,3.9,1.7,3.9,3.9l0,0
		C-243.9,537.5-245.7,539.2-247.8,539.2z"/>
	<path class="st1" d="M-247.8,569.2h-84.7c-2.1,0-3.9-1.7-3.9-3.9l0,0c0-2.1,1.7-3.9,3.9-3.9h84.7c2.1,0,3.9,1.7,3.9,3.9l0,0
		C-243.9,567.5-245.7,569.2-247.8,569.2z"/>
</g>
<g>
	<path class="st1" d="M-247.8,464.2h-64.9c-2.1,0-3.9-1.7-3.9-3.9l0,0c0-2.1,1.7-3.9,3.9-3.9h64.9c2.1,0,3.9,1.7,3.9,3.9l0,0
		C-243.9,462.5-245.7,464.2-247.8,464.2z"/>
	<path class="st1" d="M-247.8,494.2h-84.7c-2.1,0-3.9-1.7-3.9-3.9l0,0c0-2.1,1.7-3.9,3.9-3.9h84.7c2.1,0,3.9,1.7,3.9,3.9l0,0
		C-243.9,492.5-245.7,494.2-247.8,494.2z"/>
</g>
<g>
	<path class="st1" d="M-247.8,388.2h-64.9c-2.1,0-3.9-1.7-3.9-3.9l0,0c0-2.1,1.7-3.9,3.9-3.9h64.9c2.1,0,3.9,1.7,3.9,3.9l0,0
		C-243.9,386.5-245.7,388.2-247.8,388.2z"/>
	<path class="st1" d="M-247.8,418.2h-84.7c-2.1,0-3.9-1.7-3.9-3.9l0,0c0-2.1,1.7-3.9,3.9-3.9h84.7c2.1,0,3.9,1.7,3.9,3.9l0,0
		C-243.9,416.5-245.7,418.2-247.8,418.2z"/>
</g>
<path class="st1" d="M-292.7,318.7h-69.5c-2.1,0-3.9-1.7-3.9-3.9l0,0c0-2.1,1.7-3.9,3.9-3.9h69.5c2.1,0,3.9,1.7,3.9,3.9l0,0
	C-288.9,316.9-290.6,318.7-292.7,318.7z"/>
<g>
	<path class="st1" d="M-350.7,393.4l-36.8,14.9c-2,0.8-4.2-0.2-5-2.1l0,0c-0.8-2,0.2-4.2,2.1-5l36.8-14.9c2-0.8,4.2,0.2,5,2.1l0,0
		C-347.8,390.3-348.7,392.6-350.7,393.4z"/>
	<path class="st1" d="M-391.9,391.3l4.9,12c0.8,2-0.2,4.2-2.1,5h0c-2,0.8-4.2-0.2-5-2.1l-4.9-12c-0.8-2,0.2-4.2,2.1-5l0,0
		C-394.9,388.4-392.7,389.3-391.9,391.3z"/>
</g>
<path class="st2" d="M-456.3,294v310.4c0,11.6,9.4,21,21,21h215.2c11.6,0,21-9.4,21-21V294c0-11.6-9.4-21-21-21h-215.2
	C-447,273.1-456.3,282.5-456.3,294z M-222.1,613.9h-211.3c-6.9,0-12.5-5.6-12.5-12.5V297c0-6.9,5.6-12.5,12.5-12.5h211.3
	c6.9,0,12.5,5.6,12.5,12.5v304.4C-209.6,608.3-215.2,613.9-222.1,613.9z"/>
<path class="st1" d="M-391.4,449.4c14.2-0.1,25.7,11.3,25.8,25.5c0.1,14.3-11.1,25.6-25.5,25.7c-14.4,0.1-25.7-11.1-25.8-25.4
	C-416.9,461-405.6,449.5-391.4,449.4z M-391,457.4c-9.9-0.1-17.9,7.5-18,17.4c-0.2,9.7,7.7,17.9,17.4,18.1c9.6,0.2,17.8-7.8,18-17.5
	C-373.4,465.5-381.1,457.6-391,457.4z"/>
<path class="st1" d="M-391.3,373.4c-14.1,0-25.6,11.5-25.6,25.6c0,14.1,11.5,25.6,25.6,25.6c14.1,0,25.6-11.5,25.6-25.6
	C-365.7,384.9-377.1,373.4-391.3,373.4z M-391.3,417.2c-10.1,0-18.2-8.2-18.2-18.2s8.2-18.2,18.2-18.2s18.2,8.2,18.2,18.2
	S-381.2,417.2-391.3,417.2z"/>
<path class="st1" d="M-391.3,524.4c-14.1,0-25.6,11.5-25.6,25.6c0,14.1,11.5,25.6,25.6,25.6c14.1,0,25.6-11.5,25.6-25.6
	C-365.7,535.9-377.1,524.4-391.3,524.4z M-391.3,568.2c-10.1,0-18.2-8.2-18.2-18.2s8.2-18.2,18.2-18.2s18.2,8.2,18.2,18.2
	S-381.2,568.2-391.3,568.2z"/>
<g>
	<path class="st1" d="M-350.7,469.4l-36.8,14.9c-2,0.8-4.2-0.2-5-2.1l0,0c-0.8-2,0.2-4.2,2.1-5l36.8-14.9c2-0.8,4.2,0.2,5,2.1l0,0
		C-347.8,466.3-348.7,468.6-350.7,469.4z"/>
	<path class="st1" d="M-391.9,467.3l4.9,12c0.8,2-0.2,4.2-2.1,5h0c-2,0.8-4.2-0.2-5-2.1l-4.9-12c-0.8-2,0.2-4.2,2.1-5l0,0
		C-394.9,464.4-392.7,465.3-391.9,467.3z"/>
</g>
<path class="st1" d="M-163.7,359.5c0-5-4-9-9-9h0h-0.2l0,0c-5,0-9,4-9,9v203.6c0,1.1,0.2,2.2,0.7,3.2l8.3,18.9l0.1,0.2l0,0l0,0
	l0.1-0.2l8.3-18.9c0.5-1,0.7-2.1,0.7-3.2V359.5z"/>
</svg>
