<?xml version="1.0" encoding="utf-8"?>
<!-- Generator: Adobe Illustrator 24.1.1, SVG Export Plug-In . SVG Version: 6.00 Build 0)  -->
<svg version="1.1" id="Layer_1" xmlns="http://www.w3.org/2000/svg" xmlns:xlink="http://www.w3.org/1999/xlink" x="0px" y="0px"
	 viewBox="0 0 216 162" style="enable-background:new 0 0 216 162;" xml:space="preserve">
<style type="text/css">
	.st0{opacity:0.3;fill:#E6E6E6;enable-background:new    ;}
	.st1{fill:#F4A28C;}
	.st2{fill:#68E1FD;}
	.st3{opacity:8.000000e-02;enable-background:new    ;}
	.st4{opacity:0.45;fill:#E6E6E6;enable-background:new    ;}
	.st5{opacity:0.31;fill:#CE8172;enable-background:new    ;}
	.st6{fill:#251E8C;}
	.st7{fill:#07C1DB;}
	.st8{fill:none;stroke:#251E8C;stroke-width:1.08;stroke-miterlimit:5.4;}
	.st9{fill:#FFD200;}
	.st10{fill:#E6E6E6;}
	.st11{fill:#C9C9C9;}
	.st12{opacity:0.31;fill:#FFFFFF;enable-background:new    ;}
	.st13{opacity:0.46;fill:#FFFFFF;enable-background:new    ;}
	.st14{fill:#24285B;}
	.st15{opacity:0.2;fill:#FFFFFF;enable-background:new    ;}
</style>
<path class="st0" d="M76.1,22.6C54,28,36.5,45.3,31.4,67.5C27.6,84,30.9,101,56.5,107.1c55.4,13.4,115.2,9,122.4-17.8
	s-6.4-67.2-38-70C122.9,17.7,96,17.7,76.1,22.6z"/>
<path class="st1" d="M103,94.4c0,0-4.1,2.1-2.5,4.5c1.6,2.4,5-2.2,5-2.2L103,94.4z"/>
<path class="st2" d="M93.7,53.5c-0.4-1.3,0.4-2.6,1.7-3c0.4-0.1,0.9-0.1,1.3,0c7.8,2.1,14.6,6.8,19.3,13.3c0.8,1.2,1.7,2.3,2.4,3.4
	c5.3,7.5,3.6,17.8-3.7,23.3l-8.8,6.6l-3.5-3.2l7.1-6.7c3.7-3.5,3.8-9.4,0.3-13.1c-0.1-0.1-0.2-0.2-0.3-0.3L95.6,60.5L93.7,53.5z"/>
<path class="st3" d="M93.7,53.5c-0.4-1.3,0.4-2.6,1.7-3c0.4-0.1,0.9-0.1,1.3,0c7.8,2.1,14.6,6.8,19.3,13.3c0.8,1.2,1.7,2.3,2.4,3.4
	c5.3,7.5,3.6,17.8-3.7,23.3l-8.8,6.6l-3.5-3.2l7.1-6.7c3.7-3.5,3.8-9.4,0.3-13.1c-0.1-0.1-0.2-0.2-0.3-0.3L95.6,60.5L93.7,53.5z"/>
<ellipse class="st4" cx="111.5" cy="137.3" rx="74.4" ry="7.1"/>
<path class="st1" d="M85.5,41.5c0.7,1.4,1.2,2.8,1.5,4.3c0.1,0.8-0.4,1.5-1.2,1.6c0,0,0,0,0,0c-1.2,0.2-2.4-0.2-3.1-1.2l-1.7-1.9
	c-0.6-0.9-0.6-2,0-2.9C82.1,39.8,84.8,40,85.5,41.5z"/>
<polygon class="st1" points="82,43.6 81.6,52.6 86.6,52.5 84.8,45.9 "/>
<path class="st1" d="M83.7,44.8c0,0-0.4-1-1.1-0.6c-0.7,0.4-0.1,1.8,1,1.5L83.7,44.8z"/>
<path class="st1" d="M86.3,43.1l1.1,0.7c0.2,0.1,0.3,0.4,0.1,0.6c0,0.1-0.1,0.1-0.1,0.1l-0.9,0.6L86.3,43.1z"/>
<path class="st5" d="M85.2,47.4c-0.6-0.1-1.2-0.4-1.7-0.8c0,0,0.3,1.6,2.2,3L85.2,47.4z"/>
<path class="st6" d="M81.8,46l-1.9-3.3c0,0-1.8-0.5-1-2c0.8-1.4,1.9-0.8,2.4-2.6c0.1-0.9,0.9-1.5,1.8-1.4c0.5,0.1,0.9,0.3,1.2,0.7
	c0.7,1,3-0.1,2.9,1.6c0,1.7-2.2,2.4-2.8,2.6C81.6,42.5,84.9,45.4,81.8,46z"/>
<path class="st7" d="M96.4,132.6c0,0,0.7,2,2.6,2.2s2.3,1.9,0.7,2.4c-1.7,0.5-5.9-1.7-5.9-1.7l0.1-2.7L96.4,132.6z"/>
<path class="st7" d="M71.5,132.6c0,0-0.7,2-2.6,2.2c-1.8,0.2-2.3,1.9-0.7,2.4c1.7,0.5,5.9-1.7,5.9-1.7l-0.1-2.7L71.5,132.6z"/>
<path class="st7" d="M93.4,50c-8.2,0.2-16.3,1.9-23.8,5.1c-4.7,2-6.9,7.4-4.9,12c0.1,0.2,0.2,0.4,0.2,0.5l13,25.8l24-1.4
	c0,0,4.4-14.5,3.5-30.9C105.1,54.7,99.8,49.8,93.4,50z"/>
<path class="st6" d="M77.9,93.4l-7.2,39.5h3.6l9-21.4c3.2-7.6,8.8-13.9,16-18L102,92L77.9,93.4z"/>
<path class="st6" d="M102,92l-3.7,40.9h-4.8c0,0,1.1-30.8-7.5-37.3L102,92z"/>
<path class="st7" d="M76.4,56.9c0,0,6.1,3.9,4.2,16.1c-1.1,7.2,1,14.5,5.8,19.9l-8.4,0.5c0,0-5.4-11.2-6.8-13.6
	C69.7,77.4,76.4,56.9,76.4,56.9z"/>
<path class="st2" d="M77.6,60.6c0-5.5-6.8-8-10.5-3.9c-3.2,3.5-5.2,7.9-5.8,12.5c-1.5,12.1,0.1,38.4,0.1,38.4h4.4
	c0,0,2.9-26.3,9.4-38.4C76.9,65.8,77.6,63,77.6,60.6z"/>
<path class="st3" d="M77.6,60.6c0-5.5-6.8-8-10.5-3.9c-3.2,3.5-5.2,7.9-5.8,12.5c-1.5,12.1,0.1,38.4,0.1,38.4h4.4
	c0,0,2.9-26.3,9.4-38.4C76.9,65.8,77.6,63,77.6,60.6z"/>
<path class="st8" d="M59.8,115.2v-1.9c0-1.4,1.1-2.5,2.5-2.5l0,0h2.4c1.4,0,2.5,1.1,2.5,2.5l0,0v2"/>
<rect x="49.1" y="119.9" class="st9" width="29.5" height="6.4"/>
<rect x="49.1" y="119.9" class="st3" width="29.5" height="6.4"/>
<polygon class="st9" points="75,114.5 78.6,119.9 49.1,119.9 52.7,114.5 "/>
<path class="st1" d="M62.1,107.6c0,0-1.3,4.3,0.4,4.3c1.7,0,3.8,0.8,2.5-4.3H62.1z"/>
<rect x="162" y="120.8" transform="matrix(0.2701 -0.9628 0.9628 0.2701 11.1421 258.2525)" class="st10" width="27.8" height="2"/>
<path class="st11" d="M181.6,109.7c-0.2,0-0.3,0-0.5-0.1l-3.3-0.9c-0.9-0.3-1.4-1.2-1.2-2.1l0.7-2.4c0.3-0.9,1.2-1.4,2.1-1.2
	c0,0,0,0,0,0l3.3,0.9c0.4,0.1,0.8,0.4,1,0.8c0.2,0.4,0.3,0.9,0.2,1.3l-0.7,2.4C183,109.2,182.3,109.7,181.6,109.7z M181.4,108.6
	c0.3,0.1,0.7-0.1,0.8-0.4c0,0,0,0,0,0l0.7-2.4c0.1-0.3-0.1-0.7-0.4-0.8l-3.3-0.9c-0.3-0.1-0.7,0.1-0.8,0.4c0,0,0,0,0,0l-0.7,2.4
	c-0.1,0.3,0.1,0.7,0.4,0.8c0,0,0,0,0,0L181.4,108.6z"/>
<path class="st11" d="M176.9,136.7l1.6-5.8l-9.7-2.7l-1.7,6.1c-0.2,0.8-0.2,1.7-0.1,2.5L176.9,136.7z"/>
<rect x="123.9" y="94.2" class="st2" width="4.4" height="42.2"/>
<rect x="147.9" y="94.2" class="st2" width="4.4" height="42.2"/>
<rect x="123.9" y="94.2" class="st7" width="4.4" height="42.2"/>
<rect x="147.9" y="94.2" class="st7" width="4.4" height="42.2"/>
<rect x="118.6" y="99.5" class="st7" width="39" height="13.8"/>
<polygon class="st6" points="120.6,99.5 125.2,113.2 131.7,113.2 126.4,99.5 "/>
<polygon class="st6" points="132.5,99.5 137.2,113.2 143.6,113.2 138.3,99.5 "/>
<polygon class="st6" points="144.4,99.5 149.1,113.2 155.5,113.2 150.2,99.5 "/>
<rect x="118.6" y="118.4" class="st7" width="39" height="6.4"/>
<polygon class="st3" points="147.1,99.5 157.6,109.6 157.6,104.8 "/>
<path class="st9" d="M78.3,40.7l9.3-1.3c0.2,0,0.3-0.2,0.3-0.4c0-0.1-0.1-0.2-0.2-0.2l-0.4-0.3c-0.5-0.3-0.8-0.8-0.9-1.3
	c-0.4-1.5-1.4-4.4-4.2-4.5c-3.6-0.2-7.1,2.5-5,7.5C77.5,40.6,77.9,40.8,78.3,40.7z"/>
<path class="st12" d="M77.5,37.5c0-1.3,0.6-2.5,1.6-3.3c0.1-0.1,0.3-0.1,0.4,0.1c0.1,0.1,0.1,0.2,0,0.3c-0.5,0.9-0.7,1.9-0.7,3
	c0,0.3-0.2,0.6-0.5,0.6l0,0c-0.3,0.1-0.7-0.2-0.7-0.5C77.5,37.5,77.5,37.5,77.5,37.5z"/>
<path class="st10" d="M165.1,61.4c0-2.8-2.2-5-5-5c-0.3,0-0.6,0-0.9,0.1c-1.2-2.2-3.5-3.6-5.9-3.6h-0.2c1.1-4.3-1.5-8.7-5.8-9.8
	s-8.7,1.5-9.8,5.8c-0.3,1.3-0.3,2.7,0,4h-0.2c-3.7,0-6.8,3-6.8,6.8s3,6.8,6.8,6.8h23.4v0C163.3,66,165.1,63.9,165.1,61.4z"/>
<path class="st10" d="M37,45.3c0-2,1.7-3.7,3.7-3.7c0.2,0,0.4,0,0.6,0c0.9-1.6,2.6-2.6,4.4-2.6h0.2c-0.1-0.5-0.2-1-0.2-1.4
	c0-3.3,2.6-6,5.9-6s6,2.6,6,5.9c0,0.5-0.1,1-0.2,1.5h0.2c2.8,0,5,2.2,5,5c0,2.8-2.2,5-5,5c0,0,0,0,0,0H40.3v0
	C38.4,48.7,37,47.1,37,45.3z"/>
<path class="st6" d="M77.8,94.4c0,0,2.9-15.4,2.9-23.9c0-12.6-4.6-18-4.6-18l1.9-0.6c0,0,4,6.4,10.4,5.1c6-1.3,4.5-7.1,4.5-7.2h1.7
	c0,0,5.6,4.6,7,12c2.2,12.6,0.3,30.2,0.3,30.2L77.8,94.4z"/>
<rect x="75.9" y="92" class="st11" width="25.8" height="3.3"/>
<path class="st9" d="M76,90.3h2.9c0.6,0,1.1,0.5,1.1,1.1v5.4c0,0.6-0.5,1.1-1.1,1.1H76c-0.6,0-1.1-0.5-1.1-1.1v-5.4
	C74.8,90.8,75.3,90.3,76,90.3z"/>
<path class="st13" d="M76,90.3h2.9c0.6,0,1.1,0.5,1.1,1.1v1.4c0,0.6-0.5,1.1-1.1,1.1H76c-0.6,0-1.1-0.5-1.1-1.1v-1.4
	C74.8,90.8,75.3,90.3,76,90.3z"/>
<circle class="st14" cx="77.4" cy="92.1" r="0.7"/>
<path class="st9" d="M82.1,90.3h2.9c0.6,0,1.1,0.5,1.1,1.1v5.4c0,0.6-0.5,1.1-1.1,1.1h-2.9c-0.6,0-1.1-0.5-1.1-1.1v-5.4
	C81,90.8,81.5,90.3,82.1,90.3z"/>
<path class="st13" d="M82.1,90.3h2.9c0.6,0,1.1,0.5,1.1,1.1v1.4c0,0.6-0.5,1.1-1.1,1.1h-2.9c-0.6,0-1.1-0.5-1.1-1.1v-1.4
	C81,90.8,81.5,90.3,82.1,90.3z"/>
<circle class="st14" cx="83.6" cy="92.1" r="0.7"/>
<path class="st9" d="M98.6,90.3h2.9c0.6,0,1.1,0.5,1.1,1.1v5.4c0,0.6-0.5,1.1-1.1,1.1h-2.9c-0.6,0-1.1-0.5-1.1-1.1v-5.4
	C97.4,90.8,97.9,90.3,98.6,90.3z"/>
<path class="st13" d="M98.6,90.3h2.9c0.6,0,1.1,0.5,1.1,1.1v1.4c0,0.6-0.5,1.1-1.1,1.1h-2.9c-0.6,0-1.1-0.5-1.1-1.1v-1.4
	C97.4,90.8,97.9,90.3,98.6,90.3z"/>
<circle class="st14" cx="100" cy="92.1" r="0.7"/>
<path class="st10" d="M115.9,134.3c0,0,2-2.9-1-3.7c-3-0.8,0.7-4.6-2-5.2c-2.8-0.5-2.3,3.6-2.3,3.6s-1.9-1.6-3.2-0.3
	c-1.3,1.4,0.5,2.9,0.5,2.9s-2.7,0.9-1,2.6H115.9z"/>
<path class="st11" d="M111.9,134.7c0,0,1.3-2.2,3.1-1.9c1,0,1.7,0.8,1.7,1.8c0,0,0,0.1,0,0.1H111.9z"/>
<path class="st15" d="M99.8,71.7c0,0-11.5,0.7-15,0l-0.5,9.4c0,0,11.6,1.6,15,0.4L99.8,71.7z"/>
</svg>
