<?xml version="1.0" encoding="utf-8"?>
<!-- Generator: Adobe Illustrator 24.1.1, SVG Export Plug-In . SVG Version: 6.00 Build 0)  -->
<svg version="1.1" id="Layer_1" xmlns="http://www.w3.org/2000/svg" xmlns:xlink="http://www.w3.org/1999/xlink" x="0px" y="0px"
	 viewBox="0 0 4017 1861.4" style="enable-background:new 0 0 4017 1861.4;" xml:space="preserve">
<style type="text/css">
	.st0{fill:#07C1DB;}
	.st1{fill:none;stroke:#251E8C;stroke-width:1.08;stroke-miterlimit:5.4;}
	.st2{fill:#FFD200;}
	.st3{opacity:8.000000e-02;enable-background:new    ;}
	.st4{fill:#F4A28C;}
	.st5{fill:#251E8C;}
	.st6{fill:#68E1FD;}
	.st7{opacity:0.46;fill:#FFFFFF;enable-background:new    ;}
	.st8{opacity:0.31;fill:#CE8172;enable-background:new    ;}
	.st9{fill:#FFFFFF;}
	.st10{opacity:0.3;fill:#FFFFFF;enable-background:new    ;}
	.st11{fill:#C9C9C9;}
	.st12{fill:#E6E6E6;}
</style>
<path class="st0" d="M2314.3,3042.1c0,0,26.1,72.4,91.4,78c65.3,5.6,82.6,69.3,23.8,86s-211.3-59-211.3-59l4.2-94.3L2314.3,3042.1z"
	/>
<path class="st0" d="M1428.8,3042.1c0,0-26.1,72.4-91.4,78s-82.6,69.3-23.8,86c58.8,16.7,211.3-59,211.3-59l-4.2-94.3L1428.8,3042.1
	z"/>
<path class="st1" d="M1012.6,2424.6v-66.3c0-50.1,40.6-90.7,90.7-90.7l0,0h85.9c50.1,0,90.7,40.6,90.7,90.7l0,0v71.1"/>
<rect x="632.1" y="2591.7" class="st2" width="1047.9" height="228.4"/>
<rect x="632.1" y="2591.7" class="st3" width="1047.9" height="228.4"/>
<polygon class="st2" points="1552.1,2398.5 1680,2591.7 632.1,2591.7 760.2,2398.5 "/>
<path class="st4" d="M1094.8,2154.2c0,0-46.5,154.6,14.8,154.6s134.5,29.4,88.2-154.6H1094.8z"/>
<path class="st4" d="M432.4,1168.8l-77.6,247.5c-21.1,67.5-69.4,123.1-133.3,153.5l-113.6,54.1l4.5,33.6l170.1-36.7
	c80.7-23.9,147.6-80.6,184.3-156.3l120.1-247.2L432.4,1168.8z"/>
<polygon class="st4" points="688.8,1238.6 725.1,1768.7 691.3,1780.4 556.7,1284.5 "/>
<path class="st0" d="M732,1777.8c0,0,7.3,31.4,31,41.2s11.7,43.7-23.9,23.2c-11.1-6.4-21.6-13.8-31.5-22c-9.3-7.3-20.3-12-31.9-13.6
	c-4.5-0.8-7.9-4.3-8.7-8.7c-4.8-17.5,34.5-33.7,34.5-33.7L732,1777.8z"/>
<path class="st0" d="M112.3,1657.4c0,0-23.9,18.4-23.2,42.3s-33,26.8-28.9-11.5c1.2-11.8,3.5-23.5,6.6-35
	c2.7-10.7,2.5-21.9-0.6-32.4c-0.9-4.2,0.9-8.6,4.5-10.9c13-10.7,42.1,16.6,42.1,16.6L112.3,1657.4z"/>
<polygon class="st4" points="485.9,470.3 498.5,521.3 457.2,543.1 449.9,455.9 "/>
<path class="st4" d="M440.2,406.8c8.1-15.2,27-20.9,42.1-12.8c3.8,2,7.1,4.8,9.8,8.2c15.3,19.2,33.2,49.3,8.7,62.9
	c-36.8,20.9-65.4-26.2-65.4-26.2C433.9,428,435.6,416.8,440.2,406.8z"/>
<rect x="87.4" y="631.8" transform="matrix(0.7883 -0.6152 0.6152 0.7883 -440.0106 284.3902)" class="st2" width="211.8" height="299.8"/>
<path class="st4" d="M270.5,630.2c0,0-177.9,278.3-142.4,319.3c113.1,130,364.2-162.9,364.2-162.9L270.5,630.2z"/>
<path class="st0" d="M673.1,588.6c-104.6-76.4-245.9-79-353.3-6.4c-46.6,31.7-82.5,78.7-66.1,147.7
	c38.5,160.8,161.8,266.8,166.1,408.3l291.7-19.6V936.6c-0.2-34.8,14.3-68.1,39.8-91.9c25.4-23.4,50.7-61.6,33.4-114.1
	C768.9,684,729.2,629.8,673.1,588.6z"/>
<path class="st4" d="M463.4,439.3c0,0-8.7-8.2-13.3,2.1c-4.5,10.3,10.5,16.7,15.6,11.7S463.4,439.3,463.4,439.3z"/>
<path class="st3" d="M528.7,664.4c0,0-63,120.5,10.1,238s-65.5,232.3-65.5,232.3l237.9-16v-103.8c0,0-14.7-131.1,30.7-160.9
	c0,0,77.6-55.9,35.8-140.6C735.9,628.7,528.7,664.4,528.7,664.4"/>
<path class="st5" d="M407.2,592.7c5.6-21.8,31.5-61.2-5.1-132.8c-7.7-15.1-13.8-50.5,0.8-75c35-58.6,90.7-38.6,84.1-5.8
	c-6.6,32.9-11.3,48.5-11.3,48.5s105.9,75.9,90.5,132C552.4,609,383.6,683,407.2,592.7z"/>
<polygon class="st5" points="406.6,1063.8 711.2,1063.8 759.7,1485.2 307.8,1464.9 "/>
<path class="st4" d="M540.7,750c-30-36.5-24.8-90.4,11.7-120.4c0.3-0.2,0.6-0.5,0.9-0.7c17.6-13.8,36.3-26.1,55.8-37.1
	c116.1-66.5,309.2-213.5,390.5-416.3c0,0,19.1-74.1,75.6-71.5c56.5,2.6,37.1,72.9-19.2,72.2c0,0-46.1,440-384,603.6
	C626.6,801.3,572.4,789,540.7,750L540.7,750z"/>
<g>
	<path class="st4" d="M3256,868.8c0,0-55.7-58.6-58.5-47.5c-1.1,8.1,1,16.3,5.6,23c0,0-30.6-18.8-39-16c-8.4,2.8-12.5,32.2-9.7,40.5
		s94.7,49,94.7,49l4.9-63.6"/>
	<path class="st6" d="M3591.3,693.7c0,0-131.8,190.8-186.2,203.3s-154.5-40.4-154.5-40.4l-19.7,70.2c0,0,167.5,107,228.4,87.2
		c60.9-19.9,206.1-158.9,206.1-158.9L3591.3,693.7z"/>
	<path class="st7" d="M3591.3,693.7c0,0-131.8,190.8-186.2,203.3s-154.5-40.4-154.5-40.4l-19.7,70.2c0,0,167.5,107,228.4,87.2
		c60.9-19.9,206.1-158.9,206.1-158.9L3591.3,693.7z"/>
	<polygon class="st4" points="3769.7,1413.7 3907.9,1806.5 3935.9,1804.4 3878.9,1405.8 	"/>
	<path class="st0" d="M3906.4,1800.5c0,0-8.6,23.8-27.9,29.2c-19.3,5.3-13.2,33.2,16.5,20.3c9.2-4,18.1-8.7,26.6-14.2
		c7.9-4.8,16.9-7.3,26-7.4c3.5-0.4,6.5-3,7.4-6.4c5.3-13.1-23.8-29.7-23.8-29.7L3906.4,1800.5z"/>
	<polygon class="st4" points="3615.5,1390.5 3587,1805.9 3613.4,1815.1 3718.9,1426.5 	"/>
	<path class="st0" d="M3587.9,1799.8c0,0-17.3,18.4-37.1,15.7c-19.8-2.7-25.2,25.2,7.4,25.1c10.1,0,20.1-0.9,30-2.5
		c9.1-1.3,18.4-0.1,26.9,3.3c3.3,0.8,6.8-0.4,8.9-3c10.1-9.9-10.2-36.4-10.2-36.4L3587.9,1799.8z"/>
	<path class="st0" d="M3935.7,1764.2h-62.2c0,0-91.4-244.8-123.2-364.9c-3.7-13.8-7.4-28.3-10.5-43c-37.8,136.6-86.4,408-86.4,408
		l-79,5.9c0,0-5.9-257.3,0-379.6c3.7-67.1,11.6-133.8,23.8-199.8l0,0c-0.1-0.3-0.1-0.7,0-1c4.2-22.9,7.4-36.6,7.4-36.6l97.7-18.7
		c-2.1-17-3.1-27.1-3.1-27.1h186.6c20.5,49.2,29.2,102.6,25.4,155.8c-2.8,32.9-2.7,107.1-0.4,188.9
		C3914.9,1580.8,3924.1,1728.8,3935.7,1764.2z"/>
	<path class="st3" d="M3911.6,1262.8c-2.8,32.9-2.7,107.1-0.4,188.9c-10.2-26.9-19.9-54.1-29-81.6c-11.1-33.5-22.3-68.3-45.8-94.3
		c-19.1-20.8-45-34.2-71.1-45.1c-47.9-20-98.4-33.3-150-39.5c-5.8-0.6-11.6-1.3-17.4-2.2c4.2-22.9,7.4-36.6,7.4-36.6l97.7-18.7
		c-2.1-17-3.1-27.1-3.1-27.1h186.6C3906.9,1156,3915.5,1209.5,3911.6,1262.8z"/>
	<path class="st2" d="M3720.6,380.8v-97.1c0,0,133.5-27.1,170.6,63.6l-67.9,131.3C3823.3,478.6,3797.4,385.9,3720.6,380.8z"/>
	<path class="st2" d="M3697.2,430.7c0,0-85,124.4,23.4,116.2c108.4-8.2,57.9-123.6,57.9-123.6L3697.2,430.7z"/>
	<path class="st5" d="M3697.2,430.7c0,0-85,124.4,23.4,116.2c108.4-8.2,57.9-123.6,57.9-123.6L3697.2,430.7z"/>
	<path class="st4" d="M3706.5,423.9c0,0-8.7,41.9-4.9,70.8c1.6,11.8,12.4,20.1,24.2,18.5c0,0,0.1,0,0.1,0
		c18.6-1.4,34.7-13.5,41-31.1l17.1-35.6c5.4-15.4,0.6-32.5-12-42.7C3750.2,383.8,3710.6,398.1,3706.5,423.9z"/>
	<polygon class="st4" points="3780.9,453 3786.5,593.1 3709.1,590.6 3736.1,489.7 	"/>
	<path class="st4" d="M3747.4,465.6c0,0,2.2-16.3,14.4-13.6c12.2,2.7,9,26.3-7.9,26.6L3747.4,465.6z"/>
	<path class="st4" d="M3702.5,450.6l-13.8,14.8c-2.6,2.8-2.3,7.2,0.5,9.7c0.7,0.7,1.6,1.2,2.5,1.5l15.9,5L3702.5,450.6z"/>
	<path class="st8" d="M3729.2,511.5c9.8-1.3,19.1-5.4,26.6-11.9c0,0-4.1,25.7-35.3,47.2L3729.2,511.5z"/>
	<path class="st0" d="M3709.1,590.6c0,0-341.2,185.4-181.9,360l77.9,202.1h244.8c0,0,225.7-421.6-63.3-559.7L3709.1,590.6z"/>
	<path class="st3" d="M3733,706.5c0,0-97.1,80.5-5,186.2c92.1,105.7-62.2,89-101,13l-53.2,166.2l31.2,80.9h258.9l36-103l26-157
		L3733,706.5z"/>
	<path class="st3" d="M3596.1,1189.1l1,1.1l-4.5-1.7C3593.7,1188.8,3594.9,1188.9,3596.1,1189.1z"/>
	<path class="st3" d="M3597.7,1190.4l4,1.6c-1.4-0.1-2.8-0.5-4-1.3l-0.5-0.4L3597.7,1190.4z"/>
	
		<rect x="3475.1" y="876.1" transform="matrix(0.1321 -0.9912 0.9912 0.1321 2169.5164 4390.4448)" class="st2" width="233.6" height="160.4"/>
	<path class="st3" d="M3673.5,951.3c0,0-56.2-11-63.9,34.4c-3.9,25.7-13.1,50.4-26.9,72.5l-8.8,13.6l82.1,11L3673.5,951.3z"/>
	<path class="st4" d="M3708.9,1011.7c0,0-37.7-44.5-62.5-25.9c-24.8,18.6,40.4,63.9,40.4,63.9L3708.9,1011.7z"/>
	<path class="st6" d="M3734.6,726.6c-14.8-74.2,74.2-124.9,131.7-75.7c30.1,25.7,54.7,60.3,81,132.8
		c80.6,223.1,61.2,577.6-272.4,266l30.1-42.3c0,0,157.9,128.6,170.6,28.5C3884.9,965.9,3755.8,834.1,3734.6,726.6z"/>
	<path class="st7" d="M3734.6,726.6c-14.8-74.2,74.2-124.9,131.7-75.7c30.1,25.7,54.7,60.3,81,132.8
		c80.6,223.1,61.2,577.6-272.4,266l30.1-42.3c0,0,157.9,128.6,170.6,28.5C3884.9,965.9,3755.8,834.1,3734.6,726.6z"/>
	<path class="st5" d="M3700.7,372.2c-11.9,9.1-19,23.1-19.4,38.1c0,13,5.6,26.6,28,29.1c44.5,5,59.9,5,59.9,5
		s-49.7,122.4,38.1,113.7c87.8-8.7,54.4-82.9,16.1-149.6C3788.7,348.3,3743.2,338.3,3700.7,372.2z"/>
	<polygon class="st9" points="3803,315.6 3789.4,312.4 3792.5,298.9 3777,295.3 3773.8,308.9 3760.2,305.7 3756.7,321.3 
		3770.3,324.5 3767.1,338 3782.6,341.6 3785.8,328 3799.4,331.2 	"/>
</g>
<g>
	<path class="st4" d="M2302.5,588.4c-128.5,141.5-606,428,305.9,594.3l16.9-80.7c0,0-408.6-91.3-375-252.7"/>
	<path class="st5" d="M2599.3,1093.5l53.5,0.5c24.6,0.2,45.9,17.3,51.5,41.3l4.1,17.7c3.4,15.3-6.2,30.4-21.4,34l-15.4,3.5
		c-31.2,7-63.9,1.9-91.4-14.3l-7.7-4.5L2599.3,1093.5z"/>
	<path class="st3" d="M2302.5,588.4c-128.5,141.5-606,428,305.9,594.3l16.9-80.7c0,0-408.6-91.3-375-252.7"/>
	<path class="st0" d="M2052,1598.8c0,0-25.1,22.2-16.7,49.6s-14.8,44.6-31.1,23.6c-16.3-21.1-10.2-94.7-10.2-94.7l42.8-14.9
		L2052,1598.8z"/>
	<path class="st0" d="M2394.6,1772c0,0,5.7,33,33.4,40.3c27.6,7.4,30.1,35.7,3.6,38.8s-85.7-41.2-85.7-41.2l9.9-44.3L2394.6,1772z"
		/>
	<path class="st4" d="M2698,458.7c0,0-15.9,48.3-37.1,76.1c-8.6,11.1-24.5,13.1-35.7,4.6c-13.8-10.9-29.3-29.5-23.9-56.5l3.5-46.9
		c3.5-19.1,18.6-33.9,37.8-37C2676.9,391.3,2709.2,429.6,2698,458.7z"/>
	<polygon class="st4" points="2626.3,443.5 2481,563 2560.9,616.4 2627.5,515 	"/>
	
		<rect x="2740.1" y="683.5" transform="matrix(0.7287 -0.6848 0.6848 0.7287 -126.8175 2233.8813)" class="st2" width="31.8" height="1187.1"/>
	
		<rect x="2740.1" y="683.5" transform="matrix(0.7287 -0.6848 0.6848 0.7287 -126.8175 2233.8813)" class="st7" width="31.8" height="1187.1"/>
	<path class="st5" d="M2685.6,455.6c-14.7-5.5-28.7-12.7-41.8-21.4c3,16.7-4.2,33.5-18.4,42.8c-13.6,9.4-32,7.8-43.8-3.8l26.6-59.8
		c7.2-17.7,23.4-30,42.3-32.2c8.1-0.9,16.2-1.3,24.3-1.1c20.4,0.4,40.8,22.9,61.3,17.8c9-2.1-8.4,17.1-10.8,26
		c-5.1,19.5,4.9,35.7-24.2,35.7C2695.7,459.1,2690.5,457.8,2685.6,455.6z"/>
	<path class="st4" d="M2631.1,477.4c0,0,7.1-18.1-6.8-22.6s-25,21.4-7.6,32.1L2631.1,477.4z"/>
	<path class="st5" d="M2397.9,1233.5c0,0,167.2,135.3,131.5,295.2c-35.7,159.8-131.3,247.2-131.3,247.2l-52.4-18.6
		c0,0,123.5-225,29.5-320.8c-94-95.8-122.1-188.1-122.1-188.1L2397.9,1233.5z"/>
	<path class="st5" d="M2298.9,1232.3l92.8,114.3c37.9,46.7,30.8,115.3-15.9,153.2c-10.4,8.4-22.2,14.8-34.8,19l-289,94.5l-25.4-70.2
		l217.3-87c15.9-6.3,23.6-24.3,17.3-40.2c-2.8-7.1-8.2-12.9-15.1-16.3c-85.7-42.1-223.2-122.5-199.5-197.2
		C2080.8,1095.1,2298.9,1232.3,2298.9,1232.3z"/>
	<path class="st4" d="M2686.4,488.6l5.3,23.6c1,4.4-1.7,8.8-6.1,9.8c-1.2,0.3-2.4,0.3-3.6,0l-19.4-4.3L2686.4,488.6z"/>
	<path class="st8" d="M2625.6,517.9c-6.2-9.4-9.8-20.4-10.3-31.7c0,0-30.2,20.6-8.8,60.8L2625.6,517.9z"/>
	<path class="st2" d="M2595.7,421.2l139.5,66.1c1.7,0.8,3.7,0.1,4.5-1.6c0.4-0.8,0.4-1.7,0.2-2.5l0,0c-4.3-13.5-3.8-28,1.6-41.1
		c9.9-24.3,7-51.9-7.6-73.6C2702.5,319.4,2600.4,330.1,2595.7,421.2z"/>
	<path class="st0" d="M2678.2,780.3C2643.1,570,2392.6,470.8,2224,601.8c-26.7,20.7-49.4,46-67.3,74.7
		c-103.7,165.3-119.5,486.2-119.5,486.2l374.9,82.1c0,0,62.3-157.1,176.5-190.5C2652.1,1035.9,2699.5,907.8,2678.2,780.3z"/>
	<path class="st3" d="M2452.6,684.9c0,0-1.4,142.8-116,273c-114.6,130.1,151,165.5,151,165.5s-49.4,68.7-58.1,84.9
		s-103.4,39.3-103.4,39.3l-234.8-110.1L2203,873.3L2452.6,684.9z"/>
	
		<rect x="2659.7" y="756.5" transform="matrix(0.6226 -0.7825 0.7825 0.6226 -40.1429 2600.1047)" class="st2" width="31.8" height="1170.4"/>
	
		<rect x="2659.7" y="756.5" transform="matrix(0.6226 -0.7825 0.7825 0.6226 -40.1429 2600.1047)" class="st7" width="31.8" height="1170.4"/>
	<path class="st4" d="M2445.8,648.9c-9.5-77.3-96-119.3-165-83.5c-65.4,34.6-118.8,88.1-153.3,153.5
		c-91.8,168-429.4,636.4,334.6,577.9v-90.1c0,0-323,29.5-328.5-135.3C2129.1,938.7,2463.6,794.1,2445.8,648.9z"/>
	<path class="st6" d="M2341.8,545.1c0,0-137.3-24.3-237.5,195.2l191.4,137.4C2295.6,877.7,2623.5,638.2,2341.8,545.1z"/>
	<path class="st10" d="M2341.8,545.1c0,0-137.3-24.3-237.5,195.2l191.4,137.4C2295.6,877.7,2623.5,638.2,2341.8,545.1z"/>
	<path class="st5" d="M2455.2,1209.9l50-18.6c23.1-8.5,49.1-0.1,62.8,20.3l10.1,15c8.6,13.1,5.1,30.7-7.9,39.4l-13.3,8.7
		c-26.7,17.6-59.1,24.4-90.6,19l-8.8-1.5L2455.2,1209.9z"/>
	<polygon class="st2" points="2820.6,1104.7 2740.5,1414.9 3153.1,1750.6 3435.5,1573.3 	"/>
	<path class="st3" d="M2795.4,1202.5c0,0,6.2,158.4,140.3,256.8c134,98.4,388.1,184.3,388.1,184.3l-170.6,107.1l-412.6-335.8
		L2795.4,1202.5z"/>
	<path class="st11" d="M2860,1134.5c0,0,98.6-97.5,189.5-5.9s192.2,70.4,263.8,53.5c137.3-32.2,365.5,185,91.4,367.6L2860,1134.5z"
		/>
	
		<ellipse transform="matrix(0.2933 -0.956 0.956 0.2933 527.5952 4271.4502)" class="st5" cx="3152.9" cy="1778.9" rx="69.6" ry="69.6"/>
	<circle class="st2" cx="3152.9" cy="1778.9" r="29.9"/>
</g>
<g>
	<path class="st6" d="M1260.3,783.6c0,0-0.5,5.2-1.8,14.2c-7.2,54.2-39.9,245.4-142.4,266.7c-119.6,24.9-247.9-30.9-247.9-30.9
		l-25.1,57.4c0,0,196.6,199.9,341.8,137.7s202.1-228.5,202.1-228.5L1260.3,783.6z"/>
	<path class="st7" d="M1260.3,783.6c0,0-0.5,5.2-1.8,14.2c-7.2,54.2-39.9,245.4-142.4,266.7c-119.6,24.9-247.9-30.9-247.9-30.9
		l-25.1,57.4c0,0,196.6,199.9,341.8,137.7s202.1-228.5,202.1-228.5L1260.3,783.6z"/>
	<path class="st4" d="M1433.1,393.4c-12.3,23.1-21.5,47.7-27.3,73.2c-2,12.8,6.7,24.9,19.5,27c19.9,4.4,40.6-3.2,52.9-19.5
		l29.2-32.3c10.6-14.4,10.8-34,0.7-48.7C1491.5,364.7,1445.4,367.4,1433.1,393.4z"/>
	<polygon class="st4" points="1486,447.5 1522.9,597.1 1439,611.5 1445.6,499.7 	"/>
	<path class="st4" d="M1420.4,420.3l-19.5,11.4c-3.5,2.3-4.5,7-2.3,10.5c0.6,0.9,1.4,1.7,2.3,2.3l15.2,9.7L1420.4,420.3z"/>
	<path class="st8" d="M1445.4,493.5c0,0,30.8-6.6,41-16.4c0,0-2.9,70.1-44.1,79.2L1445.4,493.5z"/>
	<path class="st4" d="M1469.3,445.3c0,0,7.4-16.6,19.5-9.7c12.1,6.8,1.3,30.5-16.7,25.4L1469.3,445.3z"/>
	<path class="st5" d="M1528.5,442.3c-2.1,0-4.6,0-6.8,0c-8.8,0.6-7,11.4-17.3,11c-1.7-0.3-3.5-0.5-5.3-0.6c-3.9,0.5-7.5,2.6-9.7,5.8
		c-2.1,3.2-4.7,6-7.8,8.3c-3.1,1.8-6.8,2.1-10.2,1c-1.1-0.3-2.2-1-2.9-1.9c-1.4-2.1,0-5,1.1-7.3c1.9-3.7,3.4-7.5,4.7-11.4
		c1.1-3.4,1.9-6.8,2.8-9.7c0.9-2.9,4.6-11.5,2.9-14.2c-1.7-2.7-6.5-3.4-8.8-5.3c-2.2-1.9-4.2-5.3-7.8-7.2c-8.1-4.5-17.9-4.8-26.2-9
		c-3.3-1.4-6-3.9-7.7-7c-1.7-3.2-1.2-7,1.1-9.7c3.1-3.1,9.7-4.5,8.7-8.8c0-1.8-1.9-2.9-3.4-4c-7.9-5.5-12.9-14.3-13.4-23.9
		c-0.4-9.8,6.2-18.5,15.8-20.8c5.7-1,13.1,0,15.7-5c0.9-2.8,1.1-5.7,0.6-8.6c-0.2-10.1,7.8-18.5,17.9-18.7c4.9-0.1,9.7,1.8,13.2,5.2
		c2.4,2.4,4.5,5.7,7.8,6.2c3.3,0.6,8-3.7,11.8-6.3c5.9-3.8,13.3-4.1,19.5-0.9c6.1,3.3,10.7,8.8,13,15.4c0.6,2.6,1.8,5,3.4,7.1
		c1.8,1.6,3.9,2.7,6.2,3.1c9.7,2.4,21.8,0,29.2,6.3c6.3,5.6,7.3,15,2.3,21.7c-2.5,3.1-6.3,5.8-6.4,9.7c0.1,2.2,0.9,4.4,2.2,6.1
		c5,8,10.7,17.3,7.4,26c-3.3,8.8-14.8,16.4-21.3,22.4c-6.5,6-19.5,3.8-24.2,11.8c-2,3.6-1.5,8.7-4.5,11.5
		C1530.9,441.6,1529.7,442.1,1528.5,442.3z"/>
	<path class="st4" d="M1499.7,433.3c0,0,25.2-8.1,29.2,11.5s-23.7,27.8-38.2,13.3C1496.6,451.2,1499.8,442.4,1499.7,433.3z"/>
	<rect x="1298.4" y="1437.1" class="st12" width="544.8" height="389.3"/>
	<polygon class="st3" points="1442.2,1826.5 1416,1483.6 1306.7,1500.3 1274.2,1631.8 1298.4,1826.5 	"/>
	<path class="st0" d="M1428.5,1781.5c0,0-11.6,32.5-40.9,34.9c-29.3,2.4-37,31.2-10.6,39c26.4,7.8,94.3-26.4,94.3-26.4l-1.9-42.3
		L1428.5,1781.5z"/>
	<path class="st0" d="M1431.9,609.7l83.8-14.4c0,0,279,0,327.9,96c48.8,96,39,451.2-122.8,743.1l-330.4,9.7
		c0,0,18.3-214.4-43.3-331.4S1094.6,747.9,1431.9,609.7z"/>
	<path class="st5" d="M1720.7,1434.4l-161.6-24.4c-84.5-12.8-163.3,45.3-176.1,129.8c-2,12.9-2.3,26-0.9,39l21.1,205.3h79.2
		l-6.8-192.2c-1.5-40.1,29.8-73.9,69.9-75.4c4.8-0.2,9.6,0.1,14.3,0.9C1628.7,1528.5,1714,1523.7,1720.7,1434.4z"/>
	<path class="st0" d="M1264,1781.5c0,0-11.7,32.5-40.9,34.9c-29.2,2.4-37,31.2-10.7,39c26.3,7.8,94.4-26.4,94.4-26.4l-1.9-42.3
		L1264,1781.5z"/>
	<path class="st3" d="M1692.5,725.5c0,0-91.6,80.3-73.3,169c3,14.3,6.1,31.7,9.2,50.7c24.1,148.9-19.4,300.7-118.7,414.2l-57.8,66.1
		l268.9,9l23-45l125.5-208.6L1692.5,725.5z"/>
	<path class="st5" d="M1556.2,1434.4l-161.6-24.4c-84.5-12.8-163.3,45.3-176.1,129.8c-2,12.9-2.3,26-0.9,39l21.1,205.3h79.3
		l-6.8-192.2c-1.5-40.1,29.8-73.9,69.9-75.4c4.8-0.2,9.6,0.1,14.3,0.9C1464.2,1528.5,1549.5,1523.7,1556.2,1434.4z"/>
	<path class="st6" d="M1848.2,700.1c61.2,86.2,115.7,276.4,68.2,544.5c-14.6,81.5-83,142.6-165.7,147.7l-252.5,16v-82.4l191.9-27.8
		c40.2-5.8,68.1-43,62.3-83.2c-0.5-3.7-1.4-7.5-2.5-11.1c-33.7-111.3-86.2-312.9-72.6-456.6C1685.7,660,1797.4,628.6,1848.2,700.1z"
		/>
	<path class="st7" d="M1848.2,700.1c61.2,86.2,115.7,276.4,68.2,544.5c-14.6,81.5-83,142.6-165.7,147.7l-252.5,16v-82.4l191.9-27.8
		c40.2-5.8,68.1-43,62.3-83.2c-0.5-3.7-1.4-7.5-2.5-11.1c-33.7-111.3-86.2-312.9-72.6-456.6C1685.7,660,1797.4,628.6,1848.2,700.1z"
		/>
	<path class="st4" d="M1498.3,1345.9c0,0-102.4-2.6-87.7,50.8c14.7,53.4,87.7,11.6,87.7,11.6V1345.9z"/>
	<polygon class="st2" points="1157.3,1427.5 1116,1193.7 1409.4,1193.7 1434.8,1393 1569.3,1394.9 1569.3,1427.5 	"/>
	<circle class="st9" cx="1274.2" cy="1305.8" r="29.3"/>
	<path class="st4" d="M868.1,1033.7c0,0-17.4-43.2-25.1-36.9c-4.5,3.8-5.8,10.1-3.3,15.4c0,0-18-29.2-26.7-30.3
		c-8.7-1.1-24.9,23.6-23.7,42.9c1.3,19.3,53.7,66.4,53.7,66.4L868.1,1033.7z"/>
</g>
</svg>
