<?xml version="1.0" encoding="utf-8"?>
<!-- Generator: Adobe Illustrator 24.1.1, SVG Export Plug-In . SVG Version: 6.00 Build 0)  -->
<svg version="1.1" id="Layer_1" xmlns="http://www.w3.org/2000/svg" xmlns:xlink="http://www.w3.org/1999/xlink" x="0px" y="0px"
	 viewBox="0 0 24 24" style="enable-background:new 0 0 24 24;" xml:space="preserve">
<style type="text/css">
	.st0{fill:none;stroke:#07C1DB;stroke-width:1.5;stroke-linecap:round;stroke-linejoin:round;}
</style>
<path class="st0" d="M2,20v-1c0-3.9,3.1-7,7-7l0,0"/>
<path class="st0" d="M15.8,12.3c0.6-0.7,1.8-0.7,2.4,0l0,0c0.3,0.4,0.8,0.5,1.3,0.5l0,0c1,0,1.7,0.7,1.7,1.7l0,0
	c0,0.5,0.2,0.9,0.5,1.3l0,0c0.7,0.6,0.7,1.8,0,2.4l0,0c-0.4,0.3-0.5,0.8-0.5,1.3l0,0c0,1-0.7,1.7-1.7,1.7l0,0
	c-0.5,0-0.9,0.2-1.3,0.5l0,0c-0.6,0.7-1.8,0.7-2.4,0l0,0c-0.3-0.4-0.8-0.5-1.3-0.5l0,0c-1,0-1.7-0.7-1.7-1.7l0,0
	c0-0.5-0.2-0.9-0.5-1.3l0,0c-0.7-0.6-0.7-1.8,0-2.4l0,0c0.4-0.3,0.5-0.8,0.5-1.3l0,0c0-1,0.7-1.7,1.7-1.7l0,0
	C15,12.9,15.5,12.7,15.8,12.3L15.8,12.3z"/>
<path class="st0" d="M15.4,17l1.1,1.1l2.2-2.2"/>
<path class="st0" d="M9,12c2.2,0,4-1.8,4-4s-1.8-4-4-4S5,5.8,5,8S6.8,12,9,12z"/>
</svg>
