<?xml version="1.0" encoding="utf-8"?>
<!-- Generator: Adobe Illustrator 24.1.1, SVG Export Plug-In . SVG Version: 6.00 Build 0)  -->
<svg version="1.1" id="Layer_1" xmlns="http://www.w3.org/2000/svg" xmlns:xlink="http://www.w3.org/1999/xlink" x="0px" y="0px"
	 viewBox="0 0 4017 1861.4" style="enable-background:new 0 0 4017 1861.4;" xml:space="preserve">
<style type="text/css">
	.st0{fill:#C1C1C1;}
	.st1{fill:#E6E6E6;}
	.st2{fill:#FFD200;}
	.st3{fill:#FFFFFF;}
	.st4{fill:#68E1FD;}
	.st5{opacity:0.2;fill:#FFFFFF;enable-background:new    ;}
	.st6{fill:#F4A28C;}
	.st7{fill:#07C1DB;}
	.st8{opacity:0.31;fill:#CE8172;enable-background:new    ;}
	.st9{opacity:8.000000e-02;enable-background:new    ;}
	.st10{fill:#251E8C;}
	.st11{opacity:0.46;fill:#FFFFFF;enable-background:new    ;}
	.st12{opacity:0.16;fill:#FFFFFF;enable-background:new    ;}
	.st13{opacity:0.44;fill:#FFFFFF;enable-background:new    ;}
</style>
<g>
	<path class="st0" d="M2595.2,1095.3L2595.2,1095.3c0,14.2-11.5,25.6-25.7,25.6H1131.6c-14.2,0-25.7-11.5-25.7-25.6l0,0
		c0-14.2,11.5-25.6,25.7-25.6h1437.9C2583.7,1069.7,2595.2,1081.2,2595.2,1095.3z"/>
	<rect x="1137.7" y="297.3" class="st1" width="1400.1" height="772.4"/>
	<rect x="1642.9" y="444.8" class="st0" width="635.9" height="22.6"/>
	<rect x="1331.8" y="444.8" class="st0" width="278" height="22.6"/>
	<rect x="2033.1" y="527.5" class="st0" width="221.9" height="22.6"/>
	<rect x="1420.1" y="527.5" class="st0" width="579.9" height="22.6"/>
	<rect x="1788.3" y="610.3" class="st0" width="410.6" height="22.6"/>
	<rect x="1331.8" y="610.3" class="st0" width="431" height="22.6"/>
	<rect x="1908.2" y="693" class="st0" width="370.6" height="22.6"/>
	<rect x="1461.8" y="693" class="st0" width="418.3" height="22.6"/>
	<rect x="1594.4" y="775.7" class="st0" width="497.3" height="22.6"/>
	<rect x="2117.3" y="775.7" class="st0" width="147.9" height="22.6"/>
	<rect x="1392.9" y="775.7" class="st0" width="163.3" height="22.6"/>
	<polygon class="st0" points="1331.8,858.4 1331.8,881.1 1693.9,881.1 1693.9,859.1 1716.9,859.1 1716.9,881.1 2231.3,881.1 
		2231.3,858.4 	"/>
	<path class="st2" d="M1517.7,1041.8v13.8c0,7.8-6.3,14.1-14.1,14.1h-156.8c-7.8,0-14.1-6.3-14.1-14.1v-13.8l0,0H1517.7
		L1517.7,1041.8z"/>
	<path class="st3" d="M1494.7,1005.9c6.1,0,11,4.9,11,11v24.8l0,0h-160.8l0,0v-24.8c0-6.1,4.9-11,11-11H1494.7L1494.7,1005.9z"/>
</g>
<g>
	<path class="st4" d="M2184.3,1012.6l-163.5,155.2c-28.4,27-73.2,25.9-100.2-2.4l-273.4-286.1l47.9-56.7l234.7,175.2
		c68.5-360.7,256.2-406.4,256.2-406.4L2184.3,1012.6z"/>
	<path class="st5" d="M2184.3,1012.6l-163.5,155.2c-28.4,27-73.2,25.9-100.2-2.4l-273.4-286.1l47.9-56.7l234.7,175.2
		c68.5-360.7,256.2-406.4,256.2-406.4L2184.3,1012.6z"/>
	<path class="st6" d="M2290.3,328c18.8,12.1,27.9,34.6,22.8,56.4l-17.5,51.3c-6.5,31.1-31.5,43.8-51,49c-0.1,0-0.1,0-0.2,0
		c-15.8,4-31.8-5.5-35.8-21.3c-9.9-38.9-4.8-97.5-4.8-97.5C2205.1,330.2,2256.7,304.2,2290.3,328z"/>
	<polygon class="st6" points="2266.8,471.3 2284.2,610.2 2371.4,545.5 2304.3,397.9 	"/>
	<path class="st7" d="M2102.2,804.1l83.8,441.7l350.3,30.5c0,0,205.6-510.3,137.1-677.8c-57.1-139.9-257.4-88.9-322.1-68.4
		c-14.5,4.6-29.2,8.7-43.9,12.3C2030,609.1,2102.2,804.1,2102.2,804.1z"/>
	<path class="st6" d="M2215.1,444.8l-22.8-4.3c-1.4-0.3-2.6-0.8-3.8-1.6c-4.2-3-5.1-8.9-2.1-13.1l16.4-22.8L2215.1,444.8z"/>
	<path class="st8" d="M2272.4,515c42.6-30.7,21.7-67.3,21.7-67.3c-6.3,11.5-15.6,21-26.9,27.6L2272.4,515z"/>
	<path class="st9" d="M2276.6,551.1l86.1-24.1c-38.1,114.2-202.7,83.1-202.7,83.1C2194.6,583.1,2234.3,563,2276.6,551.1z"/>
	<path class="st7" d="M2078.6,1802.8l-4.6,38.7c0,0-66.6,20.5-89.5,9.9c-22.8-10.6-11.9-35.6,15.2-33.4
		c27.1,2.1,42.3-25.6,42.3-25.6L2078.6,1802.8z"/>
	<path class="st7" d="M2405.1,1743.2l20.8,32.9c0,0-39.1,58.3-63.4,64.4c-24.3,6-31.4-20.4-9.1-35.7c22.3-15.3,16.8-46.5,16.8-46.5
		L2405.1,1743.2z"/>
	<path class="st9" d="M2666.2,859l-87,301.7l-42.9,115.6l-350.3-30.5l-39.2-217.5c0,0,335.1,86.3,309.7-119.3
		c-25.4-205.6,42.3-299.6,42.3-299.6L2666.2,859z"/>
	<polygon class="st2" points="2132.8,1019.7 1981.4,971 1940,711.2 2089.3,760.5 2225.1,674.7 2267.3,917.1 	"/>
	<path class="st4" d="M2595.7,531.2c-48.3-5.1-91.6,29.9-96.8,78.2c-20.7,205.1,82,418.3,82,418.3L2210.4,982l-17.7,71.1
		l474.6,131.9c0.7,0.2,1.4,0.4,2.1,0.5c36.6,8.8,73.3-13.6,82.2-50.2c73.5-309.5-21.8-491.5-101.1-577
		C2636.1,543,2616.6,533.4,2595.7,531.2z"/>
	<path class="st9" d="M2267.3,916.7l-134.4,102.6l-151.5-48.7c9.1-55.1,93.1-27.6,155.2-32.3c62.1-4.7,118.6-91.4,118.6-91.4
		L2267.3,916.7z"/>
	<path class="st5" d="M2595.7,531.2c-48.3-5.1-91.6,29.9-96.8,78.2c-20.7,205.1,82,418.3,82,418.3L2210.4,982l-17.7,71.1
		l474.6,131.9c0.7,0.2,1.4,0.4,2.1,0.5c36.6,8.8,73.3-13.6,82.2-50.2c73.5-309.5-21.8-491.5-101.1-577
		C2636.1,543,2616.6,533.4,2595.7,531.2z"/>
	<path class="st6" d="M2210.4,982c-63.6-58.9-155-29.9-134.7,15.8c20.3,45.7,116.8,55.3,116.8,55.3l310.7,86.4v-121.4L2210.4,982z"
		/>
	<polygon class="st3" points="2439.1,1010.2 2439.1,1120.7 2503.1,1139.5 2503.1,1018.1 	"/>
	<polygon class="st2" points="2197,692.4 2187.1,650.3 2089.3,760.5 	"/>
	<path class="st10" d="M2186,1245.6l50.7,65.9c19,24.6,25.3,56.7,17.1,86.7l0,0c-25.1,92.7-10.5,191.6,40.3,273.1l60.1,96.1
		l65.5-33.5l-42.7-85.1c-35.1-70-25.1-154.2,25.4-214.1l133.9-158.6L2186,1245.6z"/>
	<polygon class="st2" points="1966.5,720 1966.5,674.7 2089.3,760.5 	"/>
	<polygon class="st10" points="1631.8,926.3 1452,561.5 1467,552.4 1667,907.6 	"/>
	<path class="st10" d="M2319.1,1322.6c-112,157.5-225.3,485-225.3,485l-73.9-15.2l166-546.6L2319.1,1322.6z"/>
	<path class="st6" d="M1694.7,822.6c-96.5-83.8-148.6-21.6-132.1,15.2c16.5,36.8,84.2,41.4,84.2,41.4l163.6,170.8l68-90.6
		L1694.7,822.6z"/>
	<polygon class="st3" points="1856,942.8 1794.8,1033.8 1839.5,1080.5 1905.6,979.8 	"/>
	<path class="st10" d="M2336.3,324.3c-19-34.3-95.2-41.9-122.5-30.5c-27.3,11.4-29.7,29.7-17.4,61.8c12.3,32.1,70.2,0,70.2,0
		c-2.7,22.8,22.8,27.6,22.8,27.6c3.7,23.8-15.2,61.3-15.2,61.3c-40-8.1-74.3-19-77.1,11c-4.2,48.4,36.1,44.7,64.4,37.1
		c28.3-7.6,47.8-63.6,47.8-63.6S2355.4,358.6,2336.3,324.3z"/>
	<path class="st6" d="M2307.5,434.7c28.4,5.9,42.4-33,22.8-42c-6.1-3.2-13.6-2.3-18.8,2.3c-7.3,6.5-10.3,16.6-7.6,26L2307.5,434.7z"
		/>
</g>
<g>
	<path class="st4" d="M3277.9,1167.3c0,0,47.5,140.5,178.2,125.3c130.7-15.2,129.4-328,129.4-328L3277.9,1167.3z"/>
	<path class="st9" d="M3277.9,1167.3c0,0,47.5,140.5,178.2,125.3c130.7-15.2,129.4-328,129.4-328L3277.9,1167.3z"/>
	
		<rect x="3493.7" y="555.3" transform="matrix(0.9882 -0.1533 0.1533 0.9882 -45.463 545.9107)" class="st2" width="45.7" height="24.8"/>
	
		<rect x="3493.7" y="555.3" transform="matrix(0.9882 -0.1533 0.1533 0.9882 -45.463 545.9107)" class="st9" width="45.7" height="24.8"/>
	
		<rect x="3504.5" y="624.7" transform="matrix(0.9882 -0.1533 0.1533 0.9882 -55.9816 548.387)" class="st2" width="45.7" height="24.8"/>
	
		<rect x="3504.5" y="624.7" transform="matrix(0.9882 -0.1533 0.1533 0.9882 -55.9816 548.387)" class="st9" width="45.7" height="24.8"/>
	
		<rect x="3513.9" y="688.6" transform="matrix(0.9882 -0.1533 0.1533 0.9882 -65.6643 550.5844)" class="st2" width="45.7" height="24.8"/>
	
		<rect x="3513.9" y="688.6" transform="matrix(0.9882 -0.1533 0.1533 0.9882 -65.6643 550.5844)" class="st9" width="45.7" height="24.8"/>
	
		<rect x="3528.4" y="751.4" transform="matrix(0.9882 -0.1533 0.1533 0.9882 -75.1187 553.5471)" class="st2" width="45.7" height="24.8"/>
	
		<rect x="3528.4" y="751.4" transform="matrix(0.9882 -0.1533 0.1533 0.9882 -75.1187 553.5471)" class="st9" width="45.7" height="24.8"/>
	
		<rect x="3538.4" y="815.5" transform="matrix(0.9882 -0.1533 0.1533 0.9882 -84.8308 555.8463)" class="st2" width="45.7" height="24.8"/>
	
		<rect x="3538.4" y="815.5" transform="matrix(0.9882 -0.1533 0.1533 0.9882 -84.8308 555.8463)" class="st9" width="45.7" height="24.8"/>
	<path class="st6" d="M3391.3,368.8c0,0,3.4,50.9-5.8,84.5c-3.8,13.7-18,21.7-31.7,17.9c0,0-0.1,0-0.1,0
		c-16.8-4.9-38.2-16.4-43.3-43.4l-14.3-44.8c-4-19.1,4.5-38.7,21.2-48.7C3346.4,314.3,3390.8,337.7,3391.3,368.8z"/>
	<polygon class="st6" points="3305,381 3247.8,537.9 3336.5,563.3 3342.4,442 	"/>
	<path class="st10" d="M3290.8,360.3l-2.2,65.5c15.3,6.3,32.9,0.8,42.1-13c9.6-14,10-32.3,0.9-46.7c21.6,4.5,51.3-5.2,60.2-5.4
		c5.3,0-1.1,3.9,0-19.1c-5.5-14.9-17.3-26.5-32.3-31.6C3333.8,300.6,3288.6,307,3290.8,360.3z"/>
	<polygon class="st6" points="3391.8,399.5 3406.4,424.5 3389.9,428.3 	"/>
	<path class="st7" d="M3195.6,1762.3c0,0,0,30.4,23.3,41.3c23.3,10.9,21.2,37-2.8,35.1c-24.1-1.8-70-50.4-70-50.4l14.4-34.4
		L3195.6,1762.3z"/>
	<path class="st7" d="M3547.7,1780c0,0,5.5,29.8,30.6,36.2c25.1,6.4,27.7,32.4,3.7,35.1c-24,2.7-78.2-36.4-78.2-36.4l7.7-36.5
		L3547.7,1780z"/>
	<path class="st10" d="M3247.8,353.1c0,0,117.8,48.1,197.6,27.8l-30.7-16.8c-10.4-5.8-17.9-15.8-20.4-27.5l-11.9-54.7l-87.2,8.9
		l-3.8,30.9c-1.6,12.8-10.9,23.3-23.4,26.4L3247.8,353.1z"/>
	<path class="st7" d="M3115.8,514.9c17.1,3.1,34.3,6,51.6,7.9c56.4,6.3,180.5,23.9,282.8,64.9c137.1,54.8,168.4,407-123.3,650.1
		h-303.5c0,0-188-381.3-137.1-580.8C2927.1,497,3063,505.3,3115.8,514.9z"/>
	<path class="st10" d="M3023.4,1237.8l145,189.5c46,60,57.8,139.5,31.3,210.3l-43.1,115.3l54.8,25.7l73.7-141.3
		c42.3-81.1,43.4-177.5,3-259.5l-45.9-93l84.7-46.8L3023.4,1237.8z"/>
	<path class="st10" d="M3390,566.7c0,0,85.1,417.8-86,671.1h22.9c0,0,162.5-176.4,109-660.5C3435.9,577.2,3408,571.6,3390,566.7z"/>
	<path class="st10" d="M3115.8,514.9c0,0,255.7,253,44.6,722.8h-44.6c0,0,232.6-476.2-67.4-726.4
		C3070.8,506.5,3094.1,507.8,3115.8,514.9z"/>
	<path class="st9" d="M3080.5,605.5c0,0,70.1,123.4,52.5,237s297.7-227.2,297.7-227.2l45.1,179.2c0,0-64.6,339.5-452.3,443.3
		l-42.9-97.9C2980.6,1139.9,2930.1,764,3080.5,605.5z"/>
	<path class="st2" d="M3382.3,447.3l37.6-9.1c36.4-8.8,73.1,13.7,81.8,50.1c0.3,1.4,0.6,2.8,0.9,4.2l91.9,523.7
		c5.5,30.7,34.8,51.1,65.5,45.7c14.7-2.6,27.7-10.9,36.3-23.1l65.9-94.4l229.2,287.6l-210.3,88.9c-119.7,50.6-257.8-5.4-308.4-125.1
		c-11.3-26.8-17.6-55.4-18.5-84.5l-19.1-611.7c-0.5-19.8-15.8-36.1-35.5-37.9l-16.6-1.6c-3.6-1.2-5.5-5-4.3-8.6
		C3379.3,449.5,3380.6,448.1,3382.3,447.3z"/>
	<polygon class="st10" points="3326.9,1237.8 3557.2,1778.4 3494.6,1778.4 3204.9,1284.6 	"/>
	<polygon class="st10" points="3197.7,526.5 3252.5,493.2 3297.9,543.6 3266.2,583.7 	"/>
	<polygon class="st10" points="3297.9,543.6 3339.6,519.1 3358.6,560.1 3320.2,591 	"/>
	<circle class="st3" cx="3295.6" cy="650.3" r="17.6"/>
	<circle class="st3" cx="3313.2" cy="914.4" r="17.6"/>
	<circle class="st3" cx="3283.2" cy="1095.6" r="17.6"/>
	<circle class="st3" cx="3277.9" cy="794.4" r="17.6"/>
	<path class="st6" d="M3377.4,612.3c0,0,33.9-56.9,63.5-54.3c29.6,2.6,16.5,75.3-39.8,95L3377.4,612.3z"/>
	<path class="st4" d="M3092.7,682.6c20.4-115.3-121-186-200.2-100.1c-33.3,36.1-57.1,87.7-57.1,161.8c0,244.8,2,385.7,144.9,395.6
		s428.2-489.5,428.2-489.5l-36.6-44.8c0,0-266.3,258.5-362.3,319.2C3049.3,848.6,3077.3,767,3092.7,682.6z"/>
	<path class="st11" d="M3092.7,679.6c20.4-115.3-121-186-200.2-100.1c-33.3,36.1-57.1,87.7-57.1,161.8c0,244.8,2,385.7,144.9,395.6
		s428.2-489.5,428.2-489.5l-36.6-44.8c0,0-266.3,258.5-362.3,319.2C3049.3,845.6,3077.3,764,3092.7,679.6z"/>
	
		<ellipse transform="matrix(0.8079 -0.5893 0.5893 0.8079 111.2239 2496.7402)" class="st2" cx="3885.2" cy="1077.8" rx="71.7" ry="186.9"/>
	
		<ellipse transform="matrix(0.8079 -0.5893 0.5893 0.8079 111.2239 2496.7402)" class="st11" cx="3885.2" cy="1077.8" rx="71.7" ry="186.9"/>
	
		<ellipse transform="matrix(0.8079 -0.5893 0.5893 0.8079 115.5894 2499.3225)" class="st2" cx="3891.3" cy="1072.4" rx="34.7" ry="136.6"/>
	
		<ellipse transform="matrix(0.8079 -0.5893 0.5893 0.8079 115.5894 2499.3225)" class="st9" cx="3891.3" cy="1072.4" rx="34.7" ry="136.6"/>
	<path class="st7" d="M3291.7,318c32.7,6.2,66.2,7.8,99.4,4.6l9,28c0,0-34.6,6.8-116.9-11.6L3291.7,318z"/>
	<path class="st6" d="M3585.5,964.6c0,0,34.7-61.1,0-85.8C3550.8,854,3531.4,935.5,3585.5,964.6z"/>
	<path class="st12" d="M3597.9,1251c-7.7-2-15.6,2.7-17.6,10.4c-1.6,6.1,1,12.6,6.5,15.9c33.1,20.9,72.5,29.5,111.3,24.4
		c47.1-6.1,93-19.9,135.7-40.7c16.5-8.2,23.1-28.2,14.9-44.7c-1.8-3.6-4.2-6.9-7.2-9.6l0,0c-17.5-16.2-44.8-15.1-61,2.4
		c-0.5,0.5-1,1.1-1.4,1.6C3754,1242.2,3701.7,1276.3,3597.9,1251z"/>
</g>
<g>
	<rect x="930.5" y="333" class="st1" width="61.8" height="203.3"/>
	<circle class="st1" cx="961.4" cy="624.1" r="108"/>
	<path class="st2" d="M877,593.4c-15.5,46.6,9.8,97,56.5,112.4c46.6,15.5,97-9.8,112.4-56.5c6-18.2,6-37.8,0-56H877z"/>
	<path class="st1" d="M923.3,316.7h76.3c5.2,0,9.4,4.2,9.4,9.4v13.7c0,5.2-4.2,9.4-9.4,9.4h-76.3c-5.2,0-9.4-4.2-9.4-9.4v-13.7
		C913.9,320.9,918.1,316.7,923.3,316.7z"/>
	<path class="st13" d="M1020.6,617.3c-0.7-1.9-2.1-3.3-4-4c-0.9-0.5-1.9-0.7-2.9-0.6l-2,0.3c-1.3,0.3-2.4,1-3.3,1.9l-1.2,1.5
		c-0.7,1.2-1.1,2.5-1,3.8v0.8c0,1,0.2,2,0.6,2.9c0.7,1.8,2.2,3.3,4,4c0.9,0.5,1.9,0.7,2.9,0.6l2-0.3c1.3-0.4,2.4-1,3.3-2l1.2-1.5
		c0.7-1.2,1-2.5,1-3.8v-0.8C1021.3,619.2,1021.1,618.2,1020.6,617.3z"/>
	<path class="st13" d="M962.8,669.8c-0.7-1.8-2.1-3.3-3.9-4c-0.9-0.5-1.9-0.7-2.9-0.6l-2,0.3c-1.3,0.3-2.4,1-3.3,2l-1.2,1.5
		c-0.7,1.2-1,2.5-1,3.8v0.8c0,1,0.2,2,0.7,2.9c0.3,0.9,0.8,1.8,1.6,2.4c0.7,0.7,1.5,1.3,2.4,1.6c0.9,0.5,1.9,0.7,2.9,0.6l2-0.3
		c1.3-0.3,2.4-1,3.3-1.9l1.2-1.5c0.7-1.2,1.1-2.5,1-3.8v-0.8C963.5,671.7,963.2,670.7,962.8,669.8z"/>
	<path class="st13" d="M928,605.7c-9.7,0-9.8,15.1,0,15.1S937.7,605.7,928,605.7z"/>
	<path class="st13" d="M977.5,627.4c-15.6,0-15.6,24.2,0,24.2S993.1,627.4,977.5,627.4z"/>
	<path class="st13" d="M923.7,648.3c-0.3-1.3-1-2.4-1.9-3.4l-1.5-1.2c-1.2-0.7-2.5-1-3.8-1h-0.8c-1-0.1-2,0.2-2.9,0.6
		c-0.9,0.3-1.8,0.8-2.4,1.6c-0.7,0.7-1.3,1.5-1.6,2.4c-0.5,0.9-0.7,1.9-0.7,2.9c0,0.7,0.2,1.3,0.3,2c0.4,1.3,1,2.4,2,3.4l1.5,1.2
		c1.2,0.7,2.5,1,3.8,1h0.8c1,0,2-0.2,2.9-0.6c0.9-0.3,1.8-0.8,2.4-1.6c1.3-1.5,2.1-3.4,2.2-5.4L923.7,648.3z"/>
	<path class="st13" d="M1009.5,672.8c-0.2-0.5-0.5-1-0.8-1.5c-0.4-0.9-1.1-1.6-1.9-2.1c-0.8-0.7-1.7-1.2-2.7-1.4c-1-0.3-2-0.3-3-0.1
		c-1,0-2,0.4-2.8,0.9l-1.5,1.2c-0.9,0.9-1.6,2.1-1.9,3.3c0,0.7-0.2,1.3-0.3,2c0,1.3,0.3,2.7,1,3.8l0.8,1.6c0.5,0.9,1.1,1.6,1.9,2.1
		c0.8,0.7,1.7,1.1,2.7,1.3c1,0.3,2,0.4,3,0.1c1-0.1,1.9-0.4,2.7-0.9l1.5-1.2c0.9-0.9,1.6-2.1,2-3.4c0-0.7,0.2-1.3,0.3-2
		C1010.5,675.3,1010.2,674,1009.5,672.8z"/>
</g>
<polygon class="st6" points="641.2,1300.7 676.2,1808.8 643.8,1820 514.8,1344.6 "/>
<path class="st7" d="M675,1801.4c0,0,21.1,22.5,45.4,19.2c24.3-3.2,30.9,30.9-8.6,30.6c-12.3,0-24.6-1-36.8-3
	c-11.1-1.6-22.5-0.3-32.9,4c-4.3,1.5-9.2,0.1-12-3.5c-12-12,12-44.6,12-44.6L675,1801.4z"/>
<polygon class="st6" points="330.3,1300.7 295.4,1808.8 327.8,1820 456.8,1344.6 "/>
<path class="st7" d="M296.6,1801.4c0,0-21.1,22.5-45.4,19.2s-30.9,30.9,8.6,30.6c12.3,0,24.6-1,36.8-3c11.1-1.6,22.5-0.3,32.9,4
	c4.3,1.6,9.2,0.2,12-3.5c12-12-12-44.6-12-44.6L296.6,1801.4z"/>
<polygon class="st6" points="438.6,430.3 429.2,485 380,488.6 409.9,401.2 "/>
<path class="st6" d="M194.1,568.7C128.5,624.8,44.4,728.9,12.9,846.4C-8,924,28.4,1005.6,100.2,1041.8l216.2,108.8l28-38.7
	L195.3,990c-33.9-27.8-39-77.8-11.2-111.7c0.1-0.1,0.2-0.2,0.3-0.3c48.8-59.2,116.1-153.2,132.1-238.6c7.7-40.6-18.9-79.8-59.5-87.5
	C234.5,547.6,211.4,553.8,194.1,568.7z"/>
<path class="st6" d="M421.5,349.6c14.2-11.2,34.9-8.7,46,5.6c2.8,3.6,4.8,7.7,6,12.1c6.6,25,11.2,61.6-17.8,64.6
	c-44.4,4.6-52.2-52.7-52.2-52.7C406.4,367.8,412.7,357.5,421.5,349.6z"/>
<rect x="142" y="1064.5" transform="matrix(0.7883 -0.6152 0.6152 0.7883 -660.1126 433.5865)" class="st2" width="316.2" height="223.4"/>
<path class="st7" d="M600.1,555.5c-110.3-80.3-259.2-83-372.3-6.6c-49.1,33.4-87,83.3-69.7,156.1
	c40.7,169.7,170.7,281.6,174.7,430.8l307.7-20.7V923c-0.1-36.7,15.2-71.9,42-96.9C709.3,801.3,736,761,717.7,706
	C701.2,656.1,659.1,598.8,600.1,555.5z"/>
<path class="st6" d="M430.4,390.8c0,0-4.6-12-13.7-3.6s3,20.7,10.1,18S430.4,390.8,430.4,390.8z"/>
<path class="st9" d="M447.6,635.5c0,0-66.4,127.1,10.7,251s-69.1,245-69.1,245l250.9-16.8v-109.5L447.6,635.5z"/>
<path class="st10" d="M310.3,514.9c14.8-18.7,56.6-46,51.5-130.4c-0.4-27.6,11.4-54.1,32.4-72.1c58.5-41.9,104,1.2,84.1,30.1
	c-19.9,28.9-31.5,42-31.5,42s70.1,118.3,31.5,165.9C444,592.6,250.2,592.5,310.3,514.9z"/>
<path class="st6" d="M447.6,635.5c1.3-38.8,30.6-71,69.2-75.9c22.6-2.4,49,5,75.7,34.7C641.8,649,685.8,789.1,708,869.7
	c4.5,16.2,21.3,25.7,37.6,21.2c6.3-1.8,11.9-5.5,15.9-10.6l157.9-202.5c0,0,31.6-51,49.4-39.8c17.8,11.3-20.9,39.8-20.9,39.8
	c15.6,3.3,25.5,18.6,22.2,34.2c-0.3,1.5-0.7,2.9-1.3,4.4c-10.7,30.5-163.9,305.5-224,316.9C632,1054,436.5,854.6,447.6,635.5z"/>
<polygon class="st10" points="318.9,1056.8 640.2,1056.8 691.3,1501.4 265.5,1628.3 "/>
</svg>
