<?xml version="1.0" encoding="utf-8"?>
<!-- Generator: Adobe Illustrator 24.1.1, SVG Export Plug-In . SVG Version: 6.00 Build 0)  -->
<svg version="1.1" id="Layer_1" xmlns="http://www.w3.org/2000/svg" xmlns:xlink="http://www.w3.org/1999/xlink" x="0px" y="0px"
	 viewBox="0 0 216 162" style="enable-background:new 0 0 216 162;" xml:space="preserve">
<style type="text/css">
	.st0{opacity:0.3;fill:#E6E6E6;enable-background:new    ;}
	.st1{opacity:0.45;fill:#E6E6E6;enable-background:new    ;}
	.st2{fill:#07C1DB;}
	.st3{fill:#C9C9C9;}
	.st4{fill:#FFFFFF;}
	.st5{fill:#E6E6E6;}
	.st6{opacity:8.000000e-02;enable-background:new    ;}
	.st7{opacity:0.56;fill:#FFFFFF;enable-background:new    ;}
	.st8{opacity:0.12;enable-background:new    ;}
	.st9{fill:#F4A28C;}
	.st10{opacity:0.31;fill:#CE8172;enable-background:new    ;}
	.st11{fill:#24285B;}
	.st12{fill:#FFD200;}
	.st13{opacity:0.57;fill:#FFFFFF;enable-background:new    ;}
	.st14{fill:#68E1FD;}
	.st15{fill:#251E8C;}
</style>
<path class="st0" d="M54.1,35.7c-17.5,7-30.5,24.7-33.1,46.2c-2.2,18.1,3,38.1,33.4,43.7c59.1,11.1,114.5,14.2,128.7-15.7
	c14.1-29.9,9.8-81.1-20.2-84.4C139,23,88.3,22.1,54.1,35.7z"/>
<ellipse class="st1" cx="111.9" cy="134.1" rx="78.3" ry="10.9"/>
<path class="st2" d="M63.4,134.6c0,0-0.5,1.8-2.1,2c-1.5,0.2-1.9,1.8-0.4,2.1c1.4,0.3,4.9-1.7,4.9-1.7l-0.2-2.2L63.4,134.6z"/>
<rect x="80.8" y="25.3" class="st3" width="61.6" height="108.8"/>
<rect x="85.9" y="37.9" class="st4" width="51" height="77.8"/>
<rect x="96.9" y="64" class="st5" width="29.5" height="41.2"/>
<path class="st6" d="M113.8,71.7l1.2-5.9l5.4,4.8l5.3,17.8l1.6-0.8l1.5,3.5l-2.3,1.2l4.4,9c0,0-12.4,18.6-36.5,10.6l-3.5,4.4
	l13.8,17.8H80.8l0.4-25.7l-0.4-27.8V65.8c0,0,4.8-1.1,6.7,1.9c1.2,1.8,1.6,4,1.2,6.1l-2,0.3l0.9,10.2l8.2,11.3l6.2,10.6l9.7-0.1
	l9.2-3.4l3.3-5l-4.1-8.6L113.8,71.7z"/>
<circle class="st7" cx="111.6" cy="124.6" r="6"/>
<rect x="106.4" y="29.6" class="st8" width="17.3" height="2.5"/>
<circle class="st4" cx="100.1" cy="31.2" r="2.8"/>
<path class="st9" d="M72.3,69.8c0,0-0.7,3-0.5,5.1c0.1,0.9,0.8,1.5,1.7,1.4c0,0,0,0,0,0c1.3-0.1,2.5-0.9,3-2.2l1.3-2.5
	c0.4-1.1,0.1-2.3-0.8-3.1C75.5,67,72.6,67.9,72.3,69.8z"/>
<polygon class="st9" points="77.8,72.8 79.4,81.1 74.3,82.4 75.2,74.3 "/>
<path class="st9" d="M75.1,72.9c0,0,0.2-1.2,1.1-1c0.9,0.2,0.6,1.9-0.6,1.9L75.1,72.9z"/>
<path class="st9" d="M71.9,71.7l-1,1c-0.2,0.2-0.2,0.5,0,0.7c0.1,0.1,0.1,0.1,0.2,0.1l1.1,0.4L71.9,71.7z"/>
<path class="st10" d="M75,75.6c0.6-0.4,1.1-0.8,1.5-1.3c0,0,0.7,3.1-1.8,4.1L75,75.6z"/>
<path class="st11" d="M72.1,65.8c0,0-2.3,2.1,0.4,3.4s2.8,0.8,2.8,0.8s-1.4,3.6,1.2,4.2l1.4-0.5c0,0,3.1-4,1.6-5.8
	C79.5,67.8,77.4,62.2,72.1,65.8z"/>
<path class="st2" d="M75,81.5c0,0,16.6-3.6,19.5,3.7c2.9,7.3-8.5,30.2-8.5,30.2l-15.8-0.8C70.2,114.6,50.8,91,75,81.5z"/>
<path class="st6" d="M77.8,91.7l5.6,2.9c0,0-0.1,12.1-8.6,20.3l-4.5-0.2c-0.4-0.5-0.8-1-1.2-1.6C68.7,112.4,77.8,91.7,77.8,91.7z"/>
<path class="st9" d="M74.9,73.3c0,0,1.1-2.2,2.2-1.1C78.1,73.3,76.2,75.4,74.9,73.3z"/>
<path class="st12" d="M46.7,84.9l17.5-7.4L78,89.7c0,0-1.2,16.5-10.6,25.1c-4.3,4-11.1,3.8-15.1-0.5c-0.3-0.3-0.5-0.6-0.7-0.9
	C47.8,108.3,44.3,99.5,46.7,84.9z"/>
<path class="st13" d="M51.5,89.1l11.6-4.9l9.1,8c0,0-0.8,10.9-7,16.6c-2.9,2.7-7.4,2.5-10-0.4c-0.2-0.2-0.3-0.4-0.5-0.6
	C52.2,104.6,49.9,98.8,51.5,89.1z"/>
<path class="st14" d="M85.5,82.7c2.2-1.6,5.2-1.5,7.4,0.2c2.3,1.8,5.6,5.3,7.7,11.7c3.7,10.8,11.4,11.5,20.6,3.4l2.4,3.1
	c0,0-20.2,19.9-35.6-2.8C81.5,88.7,83,84.5,85.5,82.7z"/>
<path class="st2" d="M85.5,82.7c2.2-1.6,5.2-1.5,7.4,0.2c2.3,1.8,5.6,5.3,7.7,11.7c3.7,10.8,11.4,11.5,20.6,3.4l2.4,3.1
	c0,0-20.2,19.9-35.6-2.8C81.5,88.7,83,84.5,85.5,82.7z"/>
<path class="st15" d="M70.2,114.6l-6.9,5.4c-3.3,2.6-4.4,7.1-2.8,10.9l1.8,4.3h3.2l-0.9-5.6c-0.4-2.4,0.7-4.8,2.9-6.1l0,0
	c4.5-2.6,9.2-4.7,14.1-6.5l4.4-1.6L70.2,114.6z"/>
<polygon class="st12" points="119.8,92.4 108.8,74 109.2,67.2 115.2,71 123.1,91.1 "/>
<polygon class="st12" points="118.5,92.6 119.6,94.7 121.2,93.8 125.1,101.3 127.3,100.2 123.4,92.7 125,91.8 124,89.8 "/>
<polygon class="st13" points="118.5,92.6 119.6,94.7 121.2,93.8 125.1,101.3 127.3,100.2 123.4,92.7 125,91.8 124,89.8 "/>
<polygon class="st6" points="109.2,67.2 121.4,91.1 122.8,90.4 115.2,71 "/>
<path class="st15" d="M86,115.5l14.1,18.9l-3.6,1.8c0,0-11.4-15-21.8-18.1L86,115.5z"/>
<path class="st9" d="M121.8,98.7c0,0,1.5-3.1,2.8-3.4c1.3-0.3,4,3.7-1.4,5.2L121.8,98.7z"/>
<path class="st2" d="M99.2,135c0,0,1.1,1.4,2.6,1.1c1.5-0.4,2.4,1,1.2,1.8s-5.2,0.2-5.2,0.2l-0.6-2.2L99.2,135z"/>
<rect x="96.9" y="46.1" class="st1" width="30" height="10.2"/>
<circle class="st3" cx="101.6" cy="51.1" r="1.4"/>
<circle class="st3" cx="106.4" cy="51.1" r="1.4"/>
<circle class="st3" cx="111.4" cy="51.1" r="1.4"/>
<circle class="st3" cx="116.2" cy="51.1" r="1.4"/>
<circle class="st3" cx="121.4" cy="51.1" r="1.4"/>
</svg>
