<?xml version="1.0" encoding="utf-8"?>
<!-- Generator: Adobe Illustrator 24.1.1, SVG Export Plug-In . SVG Version: 6.00 Build 0)  -->
<svg version="1.1" id="Layer_1" xmlns="http://www.w3.org/2000/svg" xmlns:xlink="http://www.w3.org/1999/xlink" x="0px" y="0px"
	 viewBox="0 0 216 162" style="enable-background:new 0 0 216 162;" xml:space="preserve">
<style type="text/css">
	.st0{opacity:0.3;fill:#E6E6E6;enable-background:new    ;}
	.st1{fill:#F4A28C;}
	.st2{fill:#68E1FD;}
	.st3{fill:#07C1DB;}
	.st4{fill:#24285B;}
	.st5{opacity:0.44;fill:#FFFFFF;enable-background:new    ;}
	.st6{fill:#251E8C;}
	.st7{fill:#FFFFFF;}
	.st8{fill:#E6E6E6;}
	.st9{opacity:0.51;fill:#E6E6E6;enable-background:new    ;}
	.st10{opacity:0.66;fill:#E6E6E6;enable-background:new    ;}
	.st11{opacity:0.31;fill:#E6E6E6;enable-background:new    ;}
	.st12{fill:#C1C1C1;}
	.st13{fill:#FFD200;}
	.st14{opacity:0.15;enable-background:new    ;}
	.st15{opacity:0.58;fill:#68E1FD;enable-background:new    ;}
	.st16{opacity:0.73;fill:#68E1FD;enable-background:new    ;}
	.st17{opacity:9.000000e-02;enable-background:new    ;}
	.st18{opacity:0.45;fill:#C1C1C1;enable-background:new    ;}
</style>
<path class="st0" d="M54.1,35.7c-17.5,7-30.5,24.7-33.1,46.2c-2.2,18.1,3,38.1,33.4,43.7c59.1,11.1,114.5,14.2,128.7-15.7
	c14.1-29.9,9.8-81.1-20.2-84.4C139,23,88.3,22.1,54.1,35.7z"/>
<path class="st1" d="M92.1,59.2c0,0,2.1-5.2,3.5-4.9c1.4,0.2,0.3,2.2,0.3,2.2s3.5-1.5,4.6-0.4c1.1,1-5.7,5-5.7,5L92.1,59.2z"/>
<polygon class="st2" points="81.1,71.2 91.5,58.3 96,61.4 88,83.1 77.8,83.2 "/>
<polygon class="st3" points="81.1,71.2 91.5,58.3 96,61.4 88,83.1 77.8,83.2 "/>
<polygon class="st4" points="147.1,66.5 154.6,83.1 140.3,83.1 "/>
<polygon class="st5" points="147.1,66.5 154.6,83.1 140.3,83.1 "/>
<path class="st6" d="M95.2,79l9.4-20.8c0.5-1,1.5-1.7,2.6-1.7h41.2c1.4,0,2.5,1.1,2.5,2.5c0,0.3-0.1,0.6-0.2,0.9l-8.9,21.8
	c-0.4,0.9-1.3,1.5-2.2,1.5H97.9c-1.6,0-2.9-1.3-2.9-2.9C95,79.8,95,79.4,95.2,79z"/>
<path class="st7" d="M100.8,77.8l7.9-17.4c0.3-0.6,0.9-1,1.6-1h34c0.6,0,1,0.5,1,1.1c0,0.1,0,0.3-0.1,0.4l-7.6,18.4
	c-0.3,0.7-0.9,1.1-1.6,1.1h-33.7c-1,0-1.8-0.8-1.8-1.8C100.6,78.3,100.7,78,100.8,77.8z"/>
<polygon class="st8" points="134.1,61.4 127.8,76.4 135.8,76.4 141.2,61.4 "/>
<polygon class="st9" points="111.5,61.4 110,64.7 130.9,64.7 132.1,61.4 "/>
<rect x="96.3" y="21.4" class="st10" width="34.5" height="24.2"/>
<rect x="149.6" y="33.5" class="st11" width="26.7" height="18.7"/>
<ellipse class="st0" cx="106.8" cy="137.7" rx="93.9" ry="7.6"/>
<rect x="41.6" y="83.1" class="st8" width="126.3" height="54.3"/>
<rect x="49.4" y="91" class="st12" width="85.9" height="46.5"/>
<polygon class="st6" points="72.6,112.2 70.3,135.4 75.1,135.4 81.1,110.9 76.5,109 "/>
<rect x="59" y="112.9" class="st13" width="5.4" height="18.7"/>
<rect x="59" y="112.9" class="st14" width="5.4" height="18.7"/>
<path class="st6" d="M54,98.9c0,0,0.3,6.4,3.8,8.8c2.3,1.6,14.2,2.5,22,2.9c3.7,0.2,6.5,3.3,6.3,7c0,0.2,0,0.3,0,0.5L84,135.4h4.9
	l4.6-20.6c1.2-5.3-1.8-10.7-6.9-12.5l-11-3.9L54,98.9z"/>
<polygon class="st1" points="75.1,46.8 74,53.6 67.9,54.1 71.5,43.2 "/>
<path class="st1" d="M73.7,39.4c1.6-0.6,3.5,0.2,4.1,1.8c0.2,0.4,0.2,0.9,0.2,1.3c-0.1,2.5-0.7,6-3.5,5.5c-4.3-0.9-3.3-6.4-3.3-6.4
	C71.8,40.7,72.7,39.9,73.7,39.4z"/>
<path class="st3" d="M49.8,77.3c-1.6-9.1,2.3-18.4,10.1-23.2c3.4-2.2,7.5-3.2,11.6-2.9c14.4,1.3,19.7,17.8,12.1,30.3
	c-2,3.3-3.7,6.8-5.1,10.3l-2.8,6.7l-22.2,0.4L49.8,77.3z"/>
<path class="st3" d="M70.7,135.4l-0.4,2.1c-0.2,0.9,0.4,1.8,1.3,2c0.1,0,0.2,0,0.3,0h4.2c0.6,0,1-0.5,1-1c0-0.3-0.2-0.7-0.5-0.9
	l-3.5-2.2H70.7z"/>
<path class="st3" d="M84.9,135.4l-0.4,2.1c-0.2,0.9,0.4,1.8,1.3,2c0.1,0,0.2,0,0.4,0h4.2c0.6,0,1-0.5,1-1c0-0.3-0.2-0.7-0.5-0.9
	c-1-0.6-2.2-1.4-3.5-2.2H84.9z"/>
<path class="st2" d="M70.3,60.2c0.4-3.9,3.8-6.8,7.7-6.4c1.5,0.1,2.8,0.7,4,1.7c2.1,1.8,3.9,4,5.1,6.6c4.2,8.7,10.8,14.4,33.1,13.9
	v5.5c0,0-32.5,6.9-44.1-6.2C71,69.5,69.9,64.3,70.3,60.2z"/>
<path class="st5" d="M70.3,60.2c0.4-3.9,3.8-6.8,7.7-6.4c1.5,0.1,2.8,0.7,4,1.7c2.1,1.8,3.9,4,5.1,6.6c4.2,8.7,10.8,14.4,33.1,13.9
	v5.5c0,0-32.5,6.9-44.1-6.2C71,69.5,69.9,64.3,70.3,60.2z"/>
<path class="st15" d="M178.5,131.3c0,0-4.9-1.3-6-5.9c0,0,7.6-1.5,7.8,6.3L178.5,131.3z"/>
<path class="st16" d="M179.1,130.8c0,0-3.4-5.4-0.4-10.5c0,0,5.8,3.7,3.2,10.5L179.1,130.8z"/>
<rect x="124.3" y="70.8" transform="matrix(0.866 -0.5 0.5 0.866 -21.8627 72.7539)" class="st13" width="1" height="12.8"/>
<path class="st2" d="M180,130.8c0,0,1.8-5.7,7.3-6.8c0,0,1,3.7-3.5,6.8L180,130.8z"/>
<polygon class="st6" points="176.5,130.7 177.5,137.5 183.7,137.5 184.6,130.7 "/>
<path class="st1" d="M120.1,77.4c0,0,4.5-3,6.8-0.9c2.3,2.1-6.8,4.9-6.8,4.9V77.4z"/>
<path class="st17" d="M72.6,46.1l-1.1,5c0,0-12.4,7.3-13,18.7c0,0-1.9,20.4,9.8,28.6l-13,0.4l-5-31.4c0,0,3.9-15.2,18.7-16.3
	l1.5-4.8L72.6,46.1z"/>
<path class="st6" d="M69.7,43.3c0,0-0.7,2.3,1.1,3.2c1.8,0.9,4-3.2,4-3.2s4-0.7,5.6-2.8c0.9-1.1-0.3-2.7-1.7-2.3
	c-0.9,0.3-1.8,0-2.5-0.6C73.7,35.6,68,37.1,69.7,43.3z"/>
<path class="st1" d="M75.1,43.4c0,0-0.1-1.5-1.5-0.9c-1.4,0.6-0.4,2.5,0.5,2.5S75.1,43.4,75.1,43.4z"/>
<path class="st13" d="M48.8,107.6c0,0,26-4.7,28.9-0.1c2.9,4.5,0.3,11.7-10.6,9.7S42.7,121.1,48.8,107.6z"/>
<path class="st13" d="M48.3,98.4c-7-1.3-11.7-8-10.4-15c0.1-0.5,0.2-1,0.3-1.4c2.2-7.3,6.5-15.2,14.7-14.6
	C66.4,68.4,74.6,103.3,48.3,98.4z"/>
<path class="st17" d="M51.6,67.4c0,0-15.3,17.9-1.4,28.6l-2.9,2.4c0,0-12.5-4-9-16.9C38.3,81.5,42.4,67.6,51.6,67.4z"/>
<path class="st13" d="M55.3,114.7c-0.5,0-0.9-0.1-1.3-0.4C43,107.7,48.7,85.5,49.4,83c0.4-1.4,1.8-2.2,3.1-1.8
	c1.4,0.4,2.2,1.8,1.8,3.1l0,0c-1.5,5.4-4.2,21.7,2.3,25.7c1.2,0.7,1.6,2.3,0.9,3.5C57,114.2,56.2,114.7,55.3,114.7z"/>
<path class="st5" d="M55.3,114.7c-0.5,0-0.9-0.1-1.3-0.4C43,107.7,48.7,85.5,49.4,83c0.4-1.4,1.8-2.2,3.1-1.8
	c1.4,0.4,2.2,1.8,1.8,3.1l0,0c-1.5,5.4-4.2,21.7,2.3,25.7c1.2,0.7,1.6,2.3,0.9,3.5C57,114.2,56.2,114.7,55.3,114.7z"/>
<polygon class="st13" points="59,131.6 49.4,140 74.8,140 64.4,131.6 "/>
<circle class="st8" cx="105.4" cy="29" r="4"/>
<rect x="114.3" y="25.6" class="st18" width="11.3" height="15.8"/>
<rect x="102" y="36.1" class="st12" width="7.8" height="5.3"/>
<rect x="109.8" y="122.8" class="st17" width="25.5" height="14.7"/>
</svg>
