<?xml version="1.0" encoding="utf-8"?>
<!-- Generator: Adobe Illustrator 24.1.1, SVG Export Plug-In . SVG Version: 6.00 Build 0)  -->
<svg version="1.1" id="Layer_1" xmlns="http://www.w3.org/2000/svg" xmlns:xlink="http://www.w3.org/1999/xlink" x="0px" y="0px"
	 viewBox="0 0 4017 2677" style="enable-background:new 0 0 4017 2677;" xml:space="preserve">
<style type="text/css">
	.st0{fill:#07C1DB;}
	.st1{fill:#68E1FD;}
	.st2{opacity:0.46;fill:#FFFFFF;enable-background:new    ;}
	.st3{fill:#F4A28C;}
	.st4{opacity:0.31;fill:#CE8172;enable-background:new    ;}
	.st5{fill:#251E8C;}
	.st6{opacity:8.000000e-02;enable-background:new    ;}
	.st7{fill:#FFD200;}
</style>
<rect x="-93.3" y="-763.7" class="st0" width="4190.9" height="3558.7"/>
<g>
	<path class="st1" d="M1884.4,3399.7c0,0-23.4,65.5-82.6,70.4c-59.2,4.9-74.7,62.9-21.4,78.7c53.3,15.7,190.4-53.3,190.4-53.3
		l-3.9-85.3L1884.4,3399.7z"/>
	<path class="st1" d="M1552.5,3399.7c0,0-23.6,65.5-82.6,70.4c-59,4.9-74.7,62.9-21.6,78.7s190.5-53.3,190.5-53.3l-3.9-85.3
		L1552.5,3399.7z"/>
	<g>
		<path class="st1" d="M1545,1386.3c0,0-1,10.4-3.5,28.7c-14.6,109.3-80.4,495.1-287.3,538.2c-241.3,50.1-500.3-62.3-500.3-62.3
			l-50.7,115.8c0,0,396.6,403.3,689.6,277.9s407.8-461.1,407.8-461.1L1545,1386.3z"/>
		<path class="st2" d="M1545,1386.3c0,0-1,10.4-3.5,28.7c-14.6,109.3-80.4,495.1-287.3,538.2c-241.3,50.1-500.3-62.3-500.3-62.3
			l-50.7,115.8c0,0,396.6,403.3,689.6,277.9s407.8-461.1,407.8-461.1L1545,1386.3z"/>
		<path class="st3" d="M1893.7,598.9c-24.8,46.6-43.4,96.2-55.1,147.7c-4.1,25.9,13.5,50.2,39.3,54.5c40.2,8.9,81.9-6.5,106.8-39.3
			l59-65.1c21.3-29.2,21.9-68.6,1.4-98.3C2011.7,541.1,1918.7,546.6,1893.7,598.9z"/>
		<polygon class="st3" points="2000.5,708.1 2075,1009.9 1905.7,1039 1919.1,813.5 		"/>
		<path class="st3" d="M1868.1,653.2l-39.3,23c-7.1,4.6-9.2,14.1-4.6,21.2c1.2,1.8,2.7,3.4,4.6,4.6l30.7,19.7L1868.1,653.2z"/>
		<path class="st4" d="M1918.7,800.9c0,0,62.1-13.4,82.8-33c0,0-5.9,141.4-88.9,159.9L1918.7,800.9z"/>
		<path class="st3" d="M1966.8,703.7c0,0,14.9-33.4,39.3-19.7s2.6,61.5-33.6,51.3L1966.8,703.7z"/>
		<path class="st5" d="M2086.2,697.6c-4.3,0-9.2,0-13.8,0c-17.7,1.2-14.2,23-35,22.2c-3.5-0.6-7.1-1-10.6-1.2
			c-8,0.9-15.1,5.2-19.7,11.8c-4.2,6.4-9.6,12.1-15.7,16.7c-6.3,3.6-13.8,4.3-20.6,2c-2.3-0.7-4.4-2.1-5.9-3.9
			c-2.8-4.3,0-10,2.2-14.7c3.7-7.4,6.9-15.1,9.4-23c2.2-6.9,3.9-13.8,5.7-19.7c1.8-5.9,9.2-23.2,5.9-28.7
			c-3.3-5.5-13.2-6.9-17.7-10.6c-4.5-3.7-8.5-10.6-15.7-14.6c-16.3-9-36.2-9.6-52.9-18.1c-6.6-2.9-12-7.9-15.5-14.2
			c-3.4-6.4-2.5-14.2,2.2-19.7c6.3-6.3,19.7-9,17.5-17.7c0-3.5-3.9-5.9-6.9-8.1c-16-11.1-26-28.8-27.1-48.2
			c-0.7-19.8,12.6-37.3,31.9-41.9c11.4-2,26.4,0,31.7-10c1.8-5.6,2.2-11.5,1.2-17.3c-0.5-20.4,15.7-37.3,36.1-37.8
			c9.9-0.2,19.5,3.5,26.6,10.5c4.9,4.9,9,11.4,15.7,12.6c6.7,1.2,16.1-7.5,23.8-12.8c11.8-7.6,26.8-8.3,39.3-1.8
			c12.3,6.7,21.6,17.8,26.2,31.1c1.3,5.2,3.6,10.1,6.9,14.4c3.5,3.2,7.9,5.4,12.6,6.3c19.7,4.9,44,0,59,12.8
			c12.6,11.2,14.7,30.2,4.7,43.9c-5.1,6.3-12.8,11.6-13,19.7c0.2,4.5,1.8,8.8,4.5,12.4c10,16.1,21.6,34.8,14.9,52.5
			c-6.7,17.7-29.9,33-43.1,45.2c-13.2,12.2-39.3,7.7-48.8,23.8c-4.1,7.3-2.9,17.5-9,23.2C2091.1,696.2,2088.7,697.2,2086.2,697.6z"
			/>
		<path class="st3" d="M2028.2,679.5c0,0,50.9-16.3,59,23.2c8.1,39.5-47.8,56-77.1,26.7C2022,715.6,2028.4,697.8,2028.2,679.5z"/>
		<polygon class="st6" points="1912.2,3490.6 1859.3,2798.8 1638.8,2832.4 1573.2,3097.7 1621.9,3490.6 		"/>
		<path class="st7" d="M1891.3,1035.5l169.1-29.1c0,0,563,0,661.5,193.7c98.5,193.7,78.7,910.5-247.8,1499.4l-666.6,19.7
			c0,0,37-432.6-87.3-668.6C1596,1814.6,1210.7,1314.3,1891.3,1035.5z"/>
		<path class="st5" d="M2474.2,2699.5l-326-49.2c-170.4-25.8-329.5,91.5-355.2,261.9c-3.9,26.1-4.6,52.5-1.9,78.7l42.7,414.3h159.9
			l-13.8-387.8c-3.1-81,60-149.1,141-152.2c9.7-0.4,19.4,0.2,28.9,1.8C2288.6,2889.2,2460.6,2879.6,2474.2,2699.5z"/>
		<path class="st6" d="M2417.2,1269.1c0,0-184.8,162-147.9,341c6.1,28.9,12.4,63.9,18.5,102.3c48.7,300.4-39.1,606.8-239.5,835.7
			l-116.6,133.3l542.5,18.1l46.4-90.8l253.3-420.8L2417.2,1269.1z"/>
		<path class="st5" d="M2142.2,2699.5l-326-49.2c-170.4-25.8-329.5,91.5-355.2,261.9c-3.9,26.1-4.6,52.5-1.9,78.7l42.5,414.3h160.1
			l-13.8-387.8c-3.1-81,60-149.1,141-152.2c9.7-0.4,19.4,0.2,28.9,1.8C1956.6,2889.2,2128.7,2879.6,2142.2,2699.5z"/>
		<path class="st1" d="M2731.4,1217.8c123.5,173.8,233.4,557.7,137.7,1098.6c-29.4,164.5-167.5,287.7-334.3,298.1l-509.5,32.2
			v-166.2l387.2-56c81.1-11.6,137.3-86.8,125.7-167.8c-1.1-7.6-2.8-15-5-22.3c-68-224.6-173.8-631.4-146.5-921.3
			C2403.4,1136.9,2628.9,1073.6,2731.4,1217.8z"/>
		<path class="st2" d="M2731.4,1217.8c123.5,173.8,233.4,557.7,137.7,1098.6c-29.4,164.5-167.5,287.7-334.3,298.1l-509.5,32.2
			v-166.2l387.2-56c81.1-11.6,137.3-86.8,125.7-167.8c-1.1-7.6-2.8-15-5-22.3c-68-224.6-173.8-631.4-146.5-921.3
			C2403.4,1136.9,2628.9,1073.6,2731.4,1217.8z"/>
		<path class="st3" d="M2025.2,2520.9c0,0-206.7-5.3-177,102.5c29.7,107.8,177,23.4,177,23.4V2520.9z"/>
		<polygon class="st5" points="1337.4,2685.5 1254,2213.8 1845.9,2213.8 1897.2,2615.9 2168.6,2619.8 2168.6,2685.5 		"/>
		<circle class="st7" cx="1573.2" cy="2439.9" r="59.2"/>
		<path class="st3" d="M753.7,1890.9c0,0-35.2-87.1-50.7-74.5c-9,7.7-11.7,20.4-6.7,31.1c0,0-36.4-59-53.9-61.2
			c-17.5-2.2-50.3,47.6-47.8,86.5c2.6,38.9,108.4,133.9,108.4,133.9L753.7,1890.9z"/>
	</g>
</g>
</svg>
