<?xml version="1.0" encoding="utf-8"?>
<!-- Generator: Adobe Illustrator 24.1.1, SVG Export Plug-In . SVG Version: 6.00 Build 0)  -->
<svg version="1.1" id="Layer_1" xmlns="http://www.w3.org/2000/svg" xmlns:xlink="http://www.w3.org/1999/xlink" x="0px" y="0px"
	 viewBox="0 0 4017 1861.4" style="enable-background:new 0 0 4017 1861.4;" xml:space="preserve">
<style type="text/css">
	.st0{fill:#F4A28C;}
	.st1{opacity:8.000000e-02;enable-background:new    ;}
	.st2{fill:#07C1DB;}
	.st3{fill:#24285B;}
	.st4{fill:#251E8C;}
	.st5{fill:#C9C9C9;}
	.st6{fill:#E6E6E6;}
	.st7{opacity:0.31;fill:#CE8172;enable-background:new    ;}
	.st8{fill:#68E1FD;}
	.st9{fill:#A5A5A5;}
	.st10{fill:#FFD200;}
	.st11{opacity:0.46;fill:#FFFFFF;enable-background:new    ;}
	.st12{opacity:9.000000e-02;enable-background:new    ;}
	.st13{opacity:0.18;enable-background:new    ;}
	.st14{fill:#FFFFFF;}
	
		.st15{fill:none;stroke:#BFBFBF;stroke-width:0.54;stroke-linecap:round;stroke-linejoin:round;stroke-miterlimit:2.16;stroke-dasharray:1.62,5.4;}
	.st16{fill:#9E9E9E;}
	.st17{opacity:0.66;fill:#E6E6E6;enable-background:new    ;}
	.st18{opacity:0.45;fill:#C1C1C1;enable-background:new    ;}
	.st19{fill:#C1C1C1;}
</style>
<g>
	<path class="st0" d="M3527.5,1103.7l-297.7-220c0,0-93.5-66.7-108.7-9.5c-15.2,57.2,92.5,66.7,92.5,66.7s182.1,291.3,273.5,256.6
		C3578.4,1162.8,3527.5,1103.7,3527.5,1103.7z"/>
	<path class="st1" d="M3527.5,1103.7l-297.7-220c0,0-93.5-66.7-108.7-9.5c-15.2,57.2,92.5,66.7,92.5,66.7s182.1,291.3,273.5,256.6
		C3578.4,1162.8,3527.5,1103.7,3527.5,1103.7z"/>
	<polygon class="st0" points="3245.4,1454.5 3510.7,1743.3 3547.3,1727.5 3347.2,1371.9 	"/>
	<path class="st2" d="M3505.8,1736c0,0,0,35.9-23.8,52.3c-23.8,16.3-2.1,50.7,31.7,19.1c10.4-9.7,20-20.2,28.6-31.5
		c8.3-10.1,19.2-17.9,31.5-22.5c4.7-2.1,7.5-7,7.2-12.1c1-20-45.8-28.6-45.8-28.6L3505.8,1736z"/>
	<path class="st3" d="M3417.3,1196.8c0,0-370.5-2.8-316.8,216.6c29.6,127.7,115,235.4,232.6,293.2l133.5-244.8l-73.4-212.9
		L3417.3,1196.8z"/>
	<path class="st4" d="M3417.3,1196.8c0,0-370.5-2.8-316.8,216.6c29.6,127.7,115,235.4,232.6,293.2l133.5-244.8l-73.4-212.9
		L3417.3,1196.8z"/>
	<rect x="3586.4" y="1393.6" class="st5" width="39.5" height="340.5"/>
	<path class="st6" d="M3737,568.2c0,0,36.3-194.7,211.1-106.6c128.8,64.9,3,582.8-72.1,850.7c-26.5,94.2-112.4,159.2-210.3,159.2
		h-246.5c-75.4,0-88.9-107.5-15.8-126.1l4.3-1c42.5-9.5,92.4-17.5,137.8-23.6c79.2-10.2,140.3-74.6,146.5-154.2L3737,568.2z"/>
	<path class="st0" d="M3561.8,383.3c-0.2,21.8,2.5,43.6,8.1,64.7c3.5,10.3,14.7,15.8,25.1,12.3c0,0,0,0,0,0
		c16.5-4.6,28.7-18.4,31.4-35.3l9.1-35c2.2-14.8-5.1-29.3-18.3-36.3C3593.9,339.5,3560.9,359.4,3561.8,383.3z"/>
	<polygon class="st0" points="3641.2,410.6 3652.3,538.6 3581.4,539.7 3601.3,448.5 	"/>
	<path class="st0" d="M3562.9,408l-9.5,15.9c-1.8,3-0.9,6.8,2.1,8.7c0.8,0.5,1.7,0.8,2.6,0.9l15.2,1.6L3562.9,408z"/>
	<path class="st7" d="M3600.7,451.1c8.5-1.6,16.4-5.6,22.9-11.3c0,0,5.1,27.7-28.6,37.5L3600.7,451.1z"/>
	<polygon class="st0" points="3183.2,1393.6 3183.2,1785.7 3220.9,1798.7 3314,1401.5 	"/>
	<path class="st2" d="M3184.6,1777c0,0-24.7,26.2-52.9,22.4c-28.2-3.8-35.9,35.9,10.1,35.8c14.3,0,28.6-1.2,42.7-3.6
		c12.9-1.8,26.1-0.2,38.1,4.7c4.9,1.6,10.3,0,13.5-4c14.2-14.1-14.6-52-14.6-52L3184.6,1777z"/>
	<path class="st0" d="M3638.6,411c0,0-1-15.1,10.5-14.8c11.4,0.3,12.8,22-2.5,25.3L3638.6,411z"/>
	<path class="st4" d="M3569.8,381.2c12.5,2,25.2,2,37.7,0c0,0,8,43.5,42.5,54.4c0,0,32.7-65-7.4-90.2
		c-33.6-21.1-58.6-39.8-86.3-14.7c-12,10.9-12.9,29.5-2,41.5C3558.4,376.7,3563.8,379.9,3569.8,381.2z"/>
	<circle class="st4" cx="3665" cy="326.5" r="39"/>
	<path class="st0" d="M3606.8,403.7c0,0,1.7-17.5,15.6-14.7c13.9,2.8,13.7,23.1-3.8,31.1L3606.8,403.7z"/>
	<path class="st2" d="M3576.4,560.1l69.3-19.9c0,0,185.1,19.9,183.2,168.4c-1.4,110-129.9,521.3-129.9,521.3h-281.8V1085
		c0.6-68.6-15.4-136.2-46.8-197.2C3326.9,805.2,3304.1,661.5,3576.4,560.1z"/>
	<path class="st8" d="M3524,736.6c11.3-130.4,196-146.7,231.6-20.7c19.1,66.7,28.6,163.1,6.7,298.6
		c-52.5,326.7-681.9,114.4-681.9,114.4v-77.4c0,0,371.9,70,461.2-25.4C3594.1,970.2,3514.8,842.1,3524,736.6z"/>
	<path class="st4" d="M3417.3,1162.1l281.8,67.7c0,0,13.6,121.6-84.4,131.1c-98,9.5-398.4-23.8-281.6,345.7h-232.3
		c0,0-141.2-397.1,204-476.8c41.9-9.5,112-17.5,112.7-60.6L3417.3,1162.1z"/>
	<path class="st1" d="M3556.9,663.6c0,0-137.4,49.7-90.3,216.6c47.1,166.9-49.4,192.3-49.4,192.3l124.4,121.7l157.4,35.7l49.3-166
		L3556.9,663.6z"/>
	<rect x="2687.7" y="1208.3" class="st9" width="64.1" height="641.4"/>
	<rect x="3068.4" y="1208.3" class="st9" width="64.1" height="641.4"/>
	<rect x="2627.3" y="1107.8" class="st6" width="564.4" height="168.9"/>
	<path class="st0" d="M3524,736.6c11.3-130.4,196-146.7,231.6-20.7c19.1,66.7,28.6,163.1,6.7,298.6
		c-52.5,326.7-681.9,114.4-681.9,114.4v-77.4c0,0,371.9,70,461.2-25.4C3594.1,970.2,3514.8,842.1,3524,736.6z"/>
	<polygon class="st10" points="2745.8,1107.8 2664.3,803.9 2703.9,795.4 2780.7,1061.3 3003.2,1080.4 3003.2,1107.8 	"/>
	<path class="st0" d="M3080.4,1051.8c0,0-81.6-39.7-107.3-7.9c-25.7,31.8,4,79.4,107.3,85.3V1051.8z"/>
	
		<rect x="3035" y="1071.5" transform="matrix(9.931975e-02 -0.9951 0.9951 9.931975e-02 1695.7034 4053.2761)" class="st2" width="103.7" height="36.9"/>
	<polygon class="st5" points="3586.4,1734.1 3445.1,1845.6 3759.8,1845.6 3626,1734.1 	"/>
	<path class="st8" d="M3541.6,573.9c-4.6-21.2,6.5-42.7,26.4-51.3c35.2-17.5,118.6-38.1,131,29.9
		C3699,552.8,3621.5,603,3541.6,573.9z"/>
	<path class="st11" d="M3541.6,573.9c-4.6-21.2,6.5-42.7,26.4-51.3c35.2-17.5,118.6-38.1,131,29.9
		C3699,552.8,3621.5,603,3541.6,573.9z"/>
</g>
<g>
	<path class="st10" d="M227.9,1030.8c0,0-173.2,83-195.8,274.1s-86.4,560.3,383.4,539.3c469.8-21.1,691.4-47.3,580.6-406.3
		S227.9,1030.8,227.9,1030.8z"/>
	<path class="st12" d="M210.1,1130.1c-9.9,55.2,14.8,110.9,62.5,140.4c63.7,42,161.9,191.4,238,266.9c24,23.8,37.3,56.3,36.8,90
		c0,13.6,5.5,28.7,23.5,43.4c52.9,43.2,274.6,64.8,398.7-68.2S930,1404,930,1404l-545.2-295.1L210.1,1130.1z"/>
	<path class="st0" d="M1415.2,1780.9c0,0,11.6,29.4,40.6,35.8c29,6.3,44.8,42.3-18.6,36.8c-63.4-5.4-98.2,4.1-89.1-30.7
		c9.1-34.8,5-40,5-40L1415.2,1780.9z"/>
	<path class="st0" d="M989.6,1756.4c0,0-4.9,31,16.7,51.5c21.6,20.5,17,58.9-34.6,22.1c-51.6-36.8-86.6-46.4-61-71.8
		c25.5-25.3,24.7-31.9,24.7-31.9L989.6,1756.4z"/>
	<path class="st3" d="M1044.9,1315.8c0,0,387.6,4,383.8,466.2l-91.4,15.5c0,0-17.6-488.1-521.2-255.6l26.3-192.3L1044.9,1315.8z"/>
	<path class="st4" d="M1044.9,1315.8c0,0,387.6,4,383.8,466.2l-91.4,15.5c0,0-17.6-488.1-521.2-255.6l26.3-192.3L1044.9,1315.8z"/>
	<polygon class="st10" points="1075.3,890.4 1109,899.4 1085,873.6 	"/>
	<path class="st0" d="M546.7,1119.2c0,0,67,169.3,230.5,139.5s225.6-372.8,225.6-372.8s64.6-42,33.3-88.9
		c-31.3-46.9-82.1,54.5-82.1,54.5s-70.4,289-222.9,195.3L546.7,1119.2z"/>
	<path class="st12" d="M546.7,1119.2c0,0,67,169.3,230.5,139.5s225.6-372.8,225.6-372.8s64.6-42,33.3-88.9
		c-31.3-46.9-82.1,54.5-82.1,54.5s-70.4,289-222.9,195.3L546.7,1119.2z"/>
	<path class="st2" d="M548.7,775.3l35.3,7.4c0,0,273.1,148.2,222.3,296.7s60.1,289.4,60.1,289.4L629,1536
		c0,0-310.2-153.9-263.7-577.9C365.3,958.1,386.9,760.6,548.7,775.3z"/>
	
		<rect x="849.9" y="1014.6" transform="matrix(0.4333 -0.9012 0.9012 0.4333 -335.0104 1546.124)" class="st6" width="424.2" height="49.7"/>
	<polygon class="st0" points="535.8,589 486.6,762.4 584.1,782.6 580.7,648.4 	"/>
	<path class="st7" d="M582.7,677.7c-11.8-4.6-22.1-12.6-29.4-22.9c0,0-2.5,32.9,29.4,69.5V677.7z"/>
	<path class="st0" d="M636.7,594.5c0,0-4.9,54.8-20.3,89c-6.2,13.9-22.5,20.1-36.4,13.9c-0.1-0.1-0.3-0.1-0.4-0.2
		c-17.2-8-38-23.8-38.9-53.5l-7.8-50.1c-1-20.9,11.3-40.2,30.6-48.1C598,528.2,641.3,560.9,636.7,594.5z"/>
	<path class="st0" d="M571,630.2c0,0,3.3-20.9-12.7-22.1c-16-1.2-20.9,29,0,35.6L571,630.2z"/>
	<path class="st0" d="M631.8,628.4l11.4,23.6c2.1,4.4,0.3,9.7-4.1,11.8c-1.2,0.6-2.4,0.9-3.7,0.9H614L631.8,628.4z"/>
	
		<rect x="986.5" y="736.3" transform="matrix(0.5 -0.866 0.866 0.5 -223.6917 1279.4127)" class="st4" width="19.4" height="194.2"/>
	<path class="st13" d="M683.5,1443.9L629,1536c0,0-197.5-95.7-254.1-354.7s130.1-158,130.1-158L683.5,1443.9z"/>
	<path class="st4" d="M629,1536c0,0,183-373.1,453.6-371.7c270.6,1.4-81,602-81,602l-89.2-36.3c0,0,132.5-257.6,98.8-340.6
		C977.5,1306.5,926,1878.7,629,1536z"/>
	<path class="st0" d="M472.5,796.2c0,0,81.4-41.3,122.8,42.6s8.8,444.8,176.7,463.7s253.1-156,253.1-156s13.8-73.6,36.8-85.8
		c23-12.2,43.2,65.1,0,110.4c0,0-74.1,278.2-309.2,284.4C517.5,1461.8,240.7,986.7,472.5,796.2z"/>
	<path class="st4" d="M637.1,523.1c0,0,53.5,62.9-15.8,76.1c-69.3,13.2-83.5,25.6-76.9,95.7s34.1,134.6-57.8,178.6
		s-12.9,117.8-29.8,203.9c-16.9,86.1-97.7,145.6-201.1,86.9S88.4,955.2,199.3,865.1s250.3-111.9,250.3-257S565.4,455.4,637.1,523.1z
		"/>
	
		<rect x="1017.3" y="1135.8" transform="matrix(0.3562 -0.9344 0.9344 0.3562 -427.4174 1724.6967)" class="st8" width="41.4" height="73.4"/>
	
		<rect x="1017.3" y="1135.8" transform="matrix(0.3562 -0.9344 0.9344 0.3562 -427.4174 1724.6967)" class="st2" width="41.4" height="73.4"/>
</g>
<g>
	<path class="st2" d="M1921.7,1807.2c0,0,45.5,54.3,78.9,43.4c33.4-11-25.8-83.3-25.8-83.3L1921.7,1807.2z"/>
	<path class="st2" d="M2131.2,1807.2c0,0-45.5,54.3-78.9,43.4s25.8-83.3,25.8-83.3L2131.2,1807.2z"/>
	<path class="st2" d="M1938.5,839.1c0,0-399.5-33.7-437.5,147.5c-24.9,118.7-40.4,339.9-48.1,478.6
		c-3.8,68.6,47.7,127.7,116.1,133.3l424.1,35.1l429.4-35.6c62.7-5.3,114.8-50.4,128.9-111.7
		C2604.8,1255.7,2653.2,728.8,1938.5,839.1z"/>
	<path class="st14" d="M1930.1,849.8c0,0-61.3,85-8.8,120c52.6,35,73,0,73,0s38.1,50.9,77.1,15.6c39-35.3,38.3-110.3,3-147.1
		C2039.1,801.5,1930.1,849.8,1930.1,849.8z"/>
	<path class="st4" d="M1753.6,1618c0,0-261.9,50.7-203,164.6c42.9,83,265.1,47.5,382.9,22.1c49.3-10.6,100.1-12.4,150-5.4
		c79.6,11,205.9,23.6,301.1,9.6c167.9-24.4,49.3-198.2-161.1-198.2S1753.6,1618,1753.6,1618z"/>
	<path class="st0" d="M1942.8,853.5c1.6,16.4,2.2,32.9,1.9,49.4c-0.6,22.7,4.6,56.7,39.9,65.5c54.3,13.5,74.2-72.6,74.2-72.6
		s39.6-79.5-19.3-94.3C1986.5,788.2,1936.4,778,1942.8,853.5z"/>
	<path class="st0" d="M2055.2,899.1c0,0,4.7-26.3,27.7-23.7S2094.2,926.7,2055.2,899.1z"/>
	<polygon class="st1" points="1830.3,1185.2 1819.4,1084.4 2393.2,1091.4 2347.8,1604.2 2202.8,1613.9 	"/>
	<path class="st0" d="M1953,904.1c0,0,9.6-24.9-11.3-35.1C1920.8,858.9,1905.7,907.5,1953,904.1z"/>
	<polygon class="st10" points="1796.9,1554.8 1753.6,1185.2 2266.3,1185.2 2226.9,1554.8 2231.2,1633.6 1796.9,1633.6 	"/>
	<circle class="st14" cx="2005.1" cy="1390" r="50"/>
	<path class="st4" d="M1942.8,853.5c0,0-88.3-18.2-44.5-81.3s49.7-13.5,71.6-63.2s39.4-58.4,65.7-35.1c26.3,23.3-3.2,67.2,39.3,57
		c42.5-10.3,71.7-20.4,77.6,14.6c5.9,35.1-2.9,51.1-30.7,61.3c-27.8,10.3,11.7,59.3-57,74.2c-68.7,14.9-99.3-61.3-99.3-61.3
		L1942.8,853.5z"/>
	<polygon class="st1" points="1764.9,1281.8 2042,1633.6 1796.9,1633.6 1796.9,1554.8 	"/>
</g>
<path class="st15" d="M1457.5,566.7v-207c0.2-31.7,25.9-57.3,57.6-57.3H2412c31.7,0,57.4,25.6,57.6,57.3v320.3"/>
<g>
	<rect x="1317.9" y="583.1" class="st6" width="279.2" height="194"/>
	<path class="st16" d="M1389.9,678.2c8.4,0,9.6-4.6,9.6-8.8c-0.1-3.3-0.4-6.6-0.9-9.9c-0.6-3.2-0.9-6.5-1-9.8
		c0-10.9,7.1-15.5,17.3-15.5h2.5v6.5h-2.1c-7,0-9.3,3.8-9.3,10.1c0,2.8,0.3,5.6,0.8,8.4c0.5,3,0.8,6,0.8,9
		c0.8,5.8-2.8,11.2-8.5,12.7l0,0c5.7,1.6,9.3,7.2,8.3,13.1c0,3-0.3,6-0.8,8.9c-0.5,2.8-0.7,5.6-0.8,8.4c0,6.6,2.7,10.3,9.3,10.3h2.1
		v7h-2.5c-9.8,0-17.3-4.3-17.3-16.2c0.1-3.2,0.4-6.5,1-9.7c0.6-3.3,0.9-6.5,1-9.8c0-3.6-1.2-8.8-9.6-8.8L1389.9,678.2z"/>
	<path class="st16" d="M1528.3,684.5c-8.4,0-9.6,4.6-9.6,8.7c0.1,3.3,0.4,6.6,0.9,9.9c0.6,3.3,0.9,6.5,1,9.8
		c0,10.8-7.1,15.4-17.3,15.4h-2.5v-6.5h2.2c7,0,9.3-3.7,9.3-10.1c0-2.8-0.3-5.6-0.8-8.4c-0.5-3-0.8-6-0.9-9
		c-0.8-5.8,2.8-11.3,8.5-12.8l0,0c-5.7-1.5-9.4-7-8.5-12.8c0-3,0.3-6,0.9-9c0.5-2.8,0.8-5.7,0.8-8.5c0-6.6-2.7-10.3-9.3-10.3h-2.1
		v-6.7h2.5c9.8,0,17.3,4.3,17.3,16.2c-0.1,3.2-0.4,6.5-1,9.7c-0.5,3.2-0.8,6.4-0.9,9.6c0,3.7,1.2,8.8,9.6,8.8L1528.3,684.5z"/>
</g>
<rect x="2319.7" y="585.8" class="st10" width="294.9" height="188.5"/>
<path class="st14" d="M2428.9,723.4c-1.5,0-3-0.5-4.3-1.4l-44.7-35.4c-1.6-1.3-2.6-3.3-2.6-5.4c0-2.1,1-4.1,2.6-5.4l44.7-36
	c2.9-2.5,7.2-2.3,9.8,0.6c2.5,2.9,2.3,7.2-0.6,9.8c-0.2,0.1-0.3,0.3-0.5,0.4l-38,30.6l38,29.9c3,2.4,3.5,6.7,1.1,9.7
	C2433,722.4,2431,723.4,2428.9,723.4z"/>
<path class="st14" d="M2509.5,723.4c-3.8,0-6.9-3.1-6.9-6.9c0-2.1,1-4.1,2.6-5.4l38-29.9l-38-30.6c-2.9-2.4-3.4-6.8-1-9.7
	c2.4-3,6.7-3.4,9.7-1c0,0,0,0,0,0l44.7,36c1.6,1.3,2.6,3.3,2.5,5.4c0,2.1-1,4.1-2.6,5.4l-44.7,35.4
	C2512.5,722.9,2511,723.4,2509.5,723.4z"/>
<path class="st14" d="M2450.3,723.4c-1,0-1.9-0.2-2.8-0.6c-3.5-1.6-5-5.7-3.5-9.1c0,0,0,0,0,0l32.6-71.4c1.6-3.5,5.7-5,9.2-3.4
	c3.5,1.6,5,5.7,3.4,9.2l0,0l-32.6,71.4C2455.5,721.8,2453,723.4,2450.3,723.4z"/>
<g>
	<rect x="174.5" y="296.7" class="st17" width="229.8" height="160.9"/>
	<circle class="st6" cx="235.2" cy="344.7" r="26.8"/>
	<rect x="294.8" y="321.9" class="st18" width="75.5" height="104.9"/>
	<rect x="213" y="391.6" class="st19" width="51.9" height="35.2"/>
</g>
</svg>
