<?xml version="1.0" encoding="utf-8"?>
<!-- Generator: Adobe Illustrator 24.1.1, SVG Export Plug-In . SVG Version: 6.00 Build 0)  -->
<svg version="1.1" id="Layer_1" xmlns="http://www.w3.org/2000/svg" xmlns:xlink="http://www.w3.org/1999/xlink" x="0px" y="0px"
	 viewBox="0 0 216 162" style="enable-background:new 0 0 216 162;" xml:space="preserve">
<style type="text/css">
	.st0{opacity:0.45;fill:#E6E6E6;enable-background:new    ;}
	.st1{fill:#E6E6E6;}
	.st2{opacity:0.12;enable-background:new    ;}
	.st3{fill:#C9C9C9;}
	.st4{fill:#FFFFFF;}
	.st5{opacity:0.56;fill:#FFFFFF;enable-background:new    ;}
	.st6{fill:#F4A28C;}
	.st7{opacity:8.000000e-02;enable-background:new    ;}
	.st8{fill:#68E1FD;}
	.st9{opacity:0.31;fill:#CE8172;enable-background:new    ;}
	.st10{fill:#FFD200;}
	.st11{fill:#07C1DB;}
	.st12{opacity:0.46;fill:#FFFFFF;enable-background:new    ;}
	.st13{fill:none;stroke:#07C1DB;stroke-width:2.7;stroke-linecap:round;stroke-linejoin:round;stroke-miterlimit:2.16;}
	.st14{opacity:0.34;fill:#C9C9C9;enable-background:new    ;}
</style>
<ellipse class="st0" cx="107.8" cy="141.4" rx="73.8" ry="10.6"/>
<polygon class="st1" points="142.6,41.7 142.6,51.6 149,51.6 150.4,55.5 152.1,51.6 158.5,51.6 158.5,41.7 "/>
<path class="st2" d="M149.7,48.9L149.7,48.9c-0.1,0-0.3-0.1-0.4-0.2l-1.7-2.2c-0.2-0.2-0.1-0.5,0.1-0.7c0,0,0,0,0,0
	c0.2-0.2,0.5-0.1,0.7,0.1c0,0,0,0,0,0l1.3,1.7l3.2-3.5c0.2-0.2,0.5-0.2,0.7,0c0,0,0,0,0,0c0.2,0.2,0.2,0.5,0,0.7c0,0,0,0,0,0
	l-3.6,3.9C150,48.8,149.9,48.9,149.7,48.9z"/>
<polygon class="st1" points="57,44 57,53.9 63.4,53.9 64.8,57.9 66.5,53.9 72.9,53.9 72.9,44 "/>
<path class="st2" d="M64.2,51.2L64.2,51.2c-0.1,0-0.3-0.1-0.4-0.2l-1.7-2.2c-0.2-0.2-0.1-0.5,0.1-0.7c0.2-0.1,0.5-0.1,0.7,0.1
	l1.3,1.7l3.2-3.5c0.2-0.2,0.5-0.2,0.7,0c0,0,0,0,0,0c0.2,0.2,0.2,0.5,0,0.7L64.5,51C64.4,51.1,64.3,51.2,64.2,51.2z"/>
<rect x="75.7" y="24.1" class="st3" width="64.6" height="115.9"/>
<rect x="81" y="37.3" class="st4" width="53.5" height="81.6"/>
<circle class="st5" cx="108.2" cy="129.3" r="6.3"/>
<rect x="102.5" y="28.6" class="st2" width="18.1" height="2.6"/>
<circle class="st4" cx="96" cy="30.2" r="3"/>
<path class="st6" d="M147.6,66c-0.2,1.2-0.2,2.4,0,3.5c0.1,0.6,0.7,0.9,1.3,0.8c0.9-0.1,1.7-0.8,1.9-1.7l0.7-1.8
	c0.2-0.8-0.1-1.6-0.7-2.1C149.6,63.8,147.7,64.7,147.6,66z"/>
<path class="st7" d="M75.6,102.9l0.3,5.9l5.7-1.2L84,97.4c0.9-4,4.3-6.9,8.3-7.3c4.3-0.5,9.7-0.9,13.1-0.7
	c6.4,0.4,20.1-1.1,24.6,2.8s5.1,14.5,10.4,18.3v-7.3l-1.5-19.7l-5.8-2l-20.7,3.1l-2.2,0.4l-2.3,1.2l-4.9-2.4l-28-1.2L75.6,102.9z"/>
<polygon class="st6" points="151.4,67.1 152.2,74 148.3,74.2 149.3,69.1 "/>
<path class="st8" d="M69,74.3l36.4,8.2l-0.7,3.1c0,0-18.2-0.5-31.8,2.2S69,74.3,69,74.3z"/>
<path class="st7" d="M69,74.3l36.4,8.2l-0.7,3.1c0,0-18.2-0.5-31.8,2.2S69,74.3,69,74.3z"/>
<path class="st6" d="M147.5,67.3l-0.6,0.8c-0.1,0.2-0.1,0.4,0.1,0.5c0,0,0.1,0,0.1,0.1l0.8,0.2L147.5,67.3z"/>
<path class="st6" d="M146.8,74.3l-36.2,8.9l1,2c0,0,17.7,0,31.3,2.6C156.4,90.3,146.8,74.3,146.8,74.3z"/>
<path class="st9" d="M149,70.2c0.5-0.1,0.9-0.3,1.3-0.7c-0.2,1-0.7,1.9-1.6,2.5L149,70.2z"/>
<path class="st8" d="M130.3,86.1l0.9-8l12.8-3.3l1.5,13.2C140.4,88.4,135.2,87.7,130.3,86.1z"/>
<path class="st7" d="M130.3,86.1l0.9-8l12.8-3.3l1.5,13.2C140.4,88.4,135.2,87.7,130.3,86.1z"/>
<path class="st10" d="M144.1,74.8c0,0,16.4-3.7,22.3-0.4c5.9,3.3-5.7,34.4-5.7,34.4l-18.1-0.6C142.6,108.2,126.7,77.9,144.1,74.8z"
	/>
<path class="st10" d="M147.7,138c0,0-0.8,1.5-2.3,1.4c-1.5-0.1-2.1,1.3-0.8,1.8s4.9-0.5,4.9-0.5l0.3-2.7L147.7,138z"/>
<path class="st10" d="M161,137.7c0,0,0.6,1.6,2.1,1.7c1.5,0.1,1.9,1.6,0.5,1.9s-4.8-1.3-4.8-1.3l0.1-2.7L161,137.7z"/>
<path class="st11" d="M142.6,108.2l4.6,29.8h3c0,0-2.8-22.4,2.1-25.1c4.9-2.7,5.9,25.1,5.9,25.1l3.2-0.3l0-30.7L142.6,108.2z"/>
<path class="st6" d="M68.2,66c0.2,1.2,0.2,2.4,0,3.5c-0.1,0.6-0.7,0.9-1.3,0.8c-0.9-0.1-1.7-0.8-1.9-1.7l-0.7-1.8
	C64,66,64.3,65.2,65,64.7C66.1,63.8,68,64.7,68.2,66z"/>
<polygon class="st6" points="64.4,67.1 63.6,74 67.4,74.2 66.5,69.1 "/>
<path class="st6" d="M68.3,67.3l0.6,0.8c0.1,0.1,0.1,0.4-0.1,0.5c0,0-0.1,0.1-0.1,0.1l-0.8,0.2L68.3,67.3z"/>
<path class="st9" d="M66.7,70.2c-0.5-0.1-0.9-0.3-1.3-0.7c0.2,1,0.7,1.9,1.6,2.5L66.7,70.2z"/>
<path class="st10" d="M71.7,74.8c0,0-16.4-3.7-22.3-0.4s5.7,34.4,5.7,34.4l18.1-0.6C73.2,108.2,89,77.9,71.7,74.8z"/>
<path class="st10" d="M68,138c0,0,0.8,1.5,2.3,1.4c1.5-0.1,2.1,1.3,0.8,1.8s-4.9-0.5-4.9-0.5l-0.3-2.7L68,138z"/>
<path class="st10" d="M54.7,137.7c0,0-0.6,1.6-2.1,1.7s-1.9,1.6-0.5,1.9c1.3,0.4,4.8-1.3,4.8-1.3l-0.1-2.7L54.7,137.7z"/>
<path class="st7" d="M57.4,77.3c0,0,5.2,3.4,2.5,11c-2.6,7.7-3.1,13.2,3.2,11.3s5.8-10.5,5.8-10.5l6.4,1l0.6,12.2l-2.7,6l-15.8-1
	l-6.4-1.6l-2.4-8.1L53,83.9L57.4,77.3z"/>
<path class="st11" d="M73.2,108.2L68.5,138h-3c0,0,2.8-22.4-2.1-25.1c-4.9-2.7-5.9,25.1-5.9,25.1l-3.2-0.3l0-30.7L73.2,108.2z"/>
<path class="st8" d="M54.2,73.4c0,0-10.2-1.7-10.2,14.4s2.5,30.4,26.1,16.1l-1.8-2.7c0,0-12.7,5.6-15.4,0.7
	C50.1,96.9,63.4,76.1,54.2,73.4z"/>
<path class="st12" d="M54.2,73.4c0,0-10.2-1.7-10.2,14.4s2.5,30.4,26.1,16.1l-1.8-2.7c0,0-12.7,5.6-15.4,0.7
	C50.1,96.9,63.4,76.1,54.2,73.4z"/>
<rect x="68.9" y="90.8" transform="matrix(0.244 -0.9698 0.9698 0.244 -35.2829 145.3651)" class="st11" width="13.4" height="8.9"/>
<path class="st7" d="M160.5,78.1c0,0-3.9,3.1-1.5,9.9s0.1,18.4-6.7,19.6l9.3-0.6l4.7-15.5L160.5,78.1z"/>
<path class="st4" d="M67.7,66c-0.2,0.1-0.3,0.1-0.5,0.1c-0.2,0.1-0.5,0.1-0.7,0.2l-0.2,0.1c-0.3,0.1-0.4,0.4-0.4,0.6
	c0.1,1-0.6,1.9-1.7,2c-0.1,0-0.1,0-0.2,0c0,0-1.7-2.5-0.3-4.4c0.8-1.1,2-1.7,3.4-1.8c0.9,0,1.6,0.7,1.6,1.6
	C68.8,65.2,68.4,65.8,67.7,66z"/>
<path class="st6" d="M66,68.3c0.1-0.2,0.1-0.4,0.1-0.5c-0.1-0.3-0.4-0.7-0.7-0.6s-0.5,0.7-0.2,1.1c0.2,0.2,0.5,0.3,0.8,0.1
	C65.9,68.3,66,68.2,66,68.3L66,68.3z"/>
<path class="st4" d="M146.6,63.8c0.3,0.4,0.5,0.9,0.5,1.4c0,0.5,0.4,0.9,0.9,1c0.1,0,0.2,0,0.3,0c1.6-0.3,1.1,2.8,3.2,2.4
	c0.7,0,1.2-0.5,1.4-1.1c0.1-0.7,0.6-1.2,1.2-1.5c0.4-0.2,0.8-0.7,0.6-1.5c-0.5-2-2,0.5-2.5-1.6c-0.5-2.1-1.4-1.8-1.9-1.4
	s-0.9,0.9-1.6,0.3C148.1,60.9,145.6,62.3,146.6,63.8z"/>
<path class="st6" d="M149.8,68.3c-0.1-0.2-0.1-0.4-0.1-0.5c0.1-0.3,0.4-0.7,0.7-0.6c0.4,0.1,0.5,0.7,0.2,1.1
	c-0.2,0.2-0.5,0.3-0.8,0.1C149.8,68.3,149.8,68.2,149.8,68.3L149.8,68.3z"/>
<path class="st6" d="M105.2,82.9l1.4,0.4c0.8,0.2,1.4,0.9,1.6,1.7c0.2,0.7,0.2,1.5-0.4,1.8c-1.1,0.5-3-1.9-3-1.9L105.2,82.9z"/>
<path class="st6" d="M111.3,82.9l-1.3,0.4c-0.9,0.3-1.5,1-1.7,1.9c-0.1,0.7-0.1,1.4,0.4,1.6c1.1,0.5,3-1.9,3-1.9L111.3,82.9z"/>
<circle class="st10" cx="107.7" cy="62" r="15.3"/>
<polyline class="st13" points="102.1,62.1 105.8,68.2 113.3,57.4 "/>
<path class="st8" d="M164.8,73.7c3.5,0.3,7.9,3.3,10.9,14.7l-10.5,3.8l-4.5-13.1c-0.7-2.1,0.4-4.4,2.5-5.2
	C163.7,73.7,164.3,73.7,164.8,73.7z"/>
<path class="st12" d="M164.8,73.7c3.5,0.3,7.9,3.3,10.9,14.7l-10.5,3.8l-4.5-13.1c-0.7-2.1,0.4-4.4,2.5-5.2
	C163.7,73.7,164.3,73.7,164.8,73.7z"/>
<path class="st8" d="M62.2,73.7c0,0,0.2-2.7,3.4-1.7c3.2,1,3.3,2.3,3.3,2.3L62.2,73.7z"/>
<path class="st12" d="M62.2,73.7c0,0,0.2-2.7,3.4-1.7c3.2,1,3.3,2.3,3.3,2.3L62.2,73.7z"/>
<path class="st6" d="M175.1,88.4l2.4,8.7c1.2,4.3-1.2,8.7-5.4,10.1l-7.4,1.8c-0.8,0.2-1.5,0.8-1.7,1.6c-0.2,0.8-0.6,1.6-1.3,1.6
	c-2.7-0.2-0.1-4-0.1-4l7.2-4.5c1.8-1.2,2.5-3.5,1.5-5.5l-3.4-6.7L175.1,88.4z"/>
<rect x="96" y="94.4" class="st10" width="24.3" height="11.2"/>
<rect x="100.5" y="109.8" class="st14" width="15.5" height="3.3"/>
<path class="st6" d="M68.6,101.7c0,0,1.7-2.6,3.4-1.3c1.6,1.3-2.4,2.8-2.4,2.8L68.6,101.7z"/>
<rect x="104.9" y="96.3" class="st12" width="13" height="2.8"/>
</svg>
