<?xml version="1.0" encoding="utf-8"?>
<!-- Generator: Adobe Illustrator 24.1.1, SVG Export Plug-In . SVG Version: 6.00 Build 0)  -->
<svg version="1.1" id="Layer_1" xmlns="http://www.w3.org/2000/svg" xmlns:xlink="http://www.w3.org/1999/xlink" x="0px" y="0px"
	 viewBox="0 0 216 162" style="enable-background:new 0 0 216 162;" xml:space="preserve">
<style type="text/css">
	.st0{opacity:0.3;fill:#E6E6E6;enable-background:new    ;}
	.st1{fill:#68E1FD;}
	.st2{opacity:8.000000e-02;enable-background:new    ;}
	.st3{fill:#F4A28C;}
	.st4{fill:#251E8C;}
	.st5{opacity:0.45;fill:#E6E6E6;enable-background:new    ;}
	.st6{fill:#07C1DB;}
	.st7{opacity:0.31;fill:#CE8172;enable-background:new    ;}
	.st8{fill:#FFD200;}
	.st9{opacity:0.3;fill:#FFFFFF;enable-background:new    ;}
	.st10{fill:#C9C9C9;}
</style>
<path class="st0" d="M54.1,35.7c-17.5,7-30.5,24.7-33.1,46.2c-2.2,18.1,3,38.1,33.4,43.7c59.1,11.1,114.5,14.2,128.7-15.7
	c14.1-29.9,9.8-81.1-20.2-84.4C139,23,88.3,22.1,54.1,35.7z"/>
<path class="st1" d="M90.1,57.4c0,0-20.7,2.4-28,8.1s-5.9,14.3,18.1,9.7C104.2,70.6,90.1,57.4,90.1,57.4z"/>
<path class="st2" d="M90.1,57.4c0,0-20.7,2.4-28,8.1s-5.9,14.3,18.1,9.7C104.2,70.6,90.1,57.4,90.1,57.4z"/>
<path class="st3" d="M81.9,43.2c0.7-0.1,1.4-0.3,2.1-0.6c1.1-0.5,3.4-1.1,3.4,1.2c0,1.4-2.3-0.3-2.4,1.7c-0.2,1.9,0.1,4.4-3.9,3.8
	C77.4,48.6,78.4,43.6,81.9,43.2z"/>
<ellipse class="st4" cx="146.2" cy="31.7" rx="27.7" ry="23.6"/>
<ellipse class="st5" cx="105.5" cy="142.3" rx="58.5" ry="8.3"/>
<path class="st6" d="M93.1,137.8c0,0-0.8,2.3-2.8,2.5c-2,0.2-2.5,2.2-0.7,2.7s6.6-2,6.6-2l-0.2-3.2L93.1,137.8z"/>
<path class="st6" d="M114.6,135.3c0,0,0.6,2.3-1,3.6s-0.9,3.2,0.9,2.6c1.8-0.6,4.4-5.2,4.4-5.2l-1.8-2.4L114.6,135.3z"/>
<path class="st3" d="M97,41.7c0,0,2,3.5,2.5,6.1c0.2,1.1-0.5,2.1-1.6,2.3c0,0,0,0,0,0c-1.3,0.2-3.2,0.1-4.5-1.6L90.8,46
	c-0.9-1.2-1-2.9-0.2-4.1C92,39.4,95.9,39.6,97,41.7z"/>
<polygon class="st3" points="91.8,46.5 91.8,59.6 99,59 96.1,50 "/>
<path class="st3" d="M98.2,44l1.6,0.9c0.3,0.2,0.4,0.5,0.3,0.9c0,0.1-0.1,0.2-0.2,0.2l-1.3,0.9L98.2,44z"/>
<path class="st7" d="M96.2,50.2c-0.9-0.1-1.7-0.4-2.4-0.9c0,0-0.2,2.8,3.2,3.5L96.2,50.2z"/>
<path class="st8" d="M147.2,16.9c2.9,0.2,5.1,1.1,6.8,2.7c1.6,1.5,2.4,3.7,2.2,5.8c0,1.4-0.4,2.8-1.1,4c-0.7,1-1,1.7-2.1,2.4
	c-0.8,0.6-1.6,1.1-2.5,1.5c-0.6,0.3-1,0.5-1.2,0.6c-1.6,0.9-2.5,1.7-2.6,3.2c-0.1,1-0.4,1.2-1.3,1.2l-1.5-0.1
	c-0.9-0.1-1.2-0.3-1.2-1.3c0.2-3.3,1.6-4.8,4.1-6.2c0,0,1.6-0.9,1.6-0.9c0.5-0.3,1-0.6,1.4-1c0.4-0.4,0.8-0.9,1.1-1.4
	c0.3-0.6,0.4-1.3,0.5-1.9c0.1-2.3-1.5-4-4.6-4.2c-3-0.2-4.6,0.9-5.8,3.3c-0.5,0.9-0.8,1.1-1.7,0.7l-1.8-0.8
	c-0.9-0.3-1.1-0.9-0.7-1.7C138.7,18.6,142.2,16.6,147.2,16.9z M144.8,40.3c1.8,0.1,2.4,0.8,2.3,2.6v0.4c-0.1,1.9-0.8,2.4-2.6,2.3
	h-0.3c-1.8-0.1-2.4-0.7-2.3-2.6v-0.3c0.1-1.8,0.8-2.4,2.6-2.3L144.8,40.3z"/>
<path class="st6" d="M96.2,56.9h7.2c0,0,23,2,23.4,13.4s-14.5,34.1-14.5,34.1H87.4C87.4,104.4,58.9,56.9,96.2,56.9z"/>
<path class="st2" d="M110.6,67.4c0,0-5.2,7.4-3,13.2s3.1,15-13.6,6.1l-2.4-7.8l-6.5-2.2l-2.6,10.7l4.5,1.5c2.2,0.7,3.4,3,2.7,5.2
	c-0.6,1.8-2.1,3.7-5.5,4l3.3,6.3h24.8l3.3-5.4l9-19.9L110.6,67.4z"/>
<path class="st4" d="M91.8,49.1c0,0-1.7-3-3.7-4.4c-2-1.3-0.4-5.7,3.1-6.4c2.6-0.6,4.1-1.4,4.1-2.9c0-0.5,0.4-0.8,0.9-0.8
	c0.2,0,0.3,0.1,0.5,0.2c1.2,0.9,2.4,2.4,1.8,4.4c-0.5,1.5-1.7,2.7-3.2,3L93,42.8C93,42.8,96.2,47.1,91.8,49.1z"/>
<path class="st3" d="M94.6,46.6c0,0-0.7-1.4-1.7-0.8c-1,0.6,0,2.6,1.5,2.1L94.6,46.6z"/>
<polygon class="st4" points="124.2,38.3 110.6,48.9 127.8,45.2 "/>
<path class="st1" d="M110.8,70.9c-1.9-6.9,6.4-12.1,11.9-7.4c2.6,2.3,4.8,5.2,5.5,8.8c1.9,10.4,8.1,19.5-1.3,25.6
	c-9.4,6.2-31.8-7.5-31.8-7.5l3.1-5.6c0,0,11.2,4.4,18.1,4C121,88.6,113.4,80.7,110.8,70.9z"/>
<rect x="86.2" y="78.3" transform="matrix(0.2323 -0.9727 0.9727 0.2323 -9.0767 152.0554)" class="st8" width="11.2" height="6.9"/>
<path class="st9" d="M110.8,70.9c-1.9-6.9,6.4-12.1,11.9-7.4c2.6,2.3,4.8,5.2,5.5,8.8c1.9,10.4,8.1,19.5-1.3,25.6
	c-9.4,6.2-31.8-7.5-31.8-7.5l3.1-5.6c0,0,11.2,4.4,18.1,4C121,88.6,113.4,80.7,110.8,70.9z"/>
<path class="st3" d="M97.6,85.6c-0.3-1.1-0.8-2-1.5-2.9c-1.2-1.4-1.6-2.1-3.3-2.1c-1.7,0-1.8,6.2,2.8,8.5L97.6,85.6z"/>
<path class="st4" d="M112.2,104.4c0,0-5,20.6,5,29.3l-3.5,3.3c0,0-12.9-7.5-14.7-28L112.2,104.4z"/>
<path class="st6" d="M79,45.5l2.1,3.7L65.9,73.1c-2.3,3.7-8.2,2.2-8.2-2.2c0-2,0.6-4.4,2.4-7.3C66.6,53.2,79,45.5,79,45.5z"/>
<rect x="79.6" y="36.6" transform="matrix(0.1326 -0.9912 0.9912 0.1326 30.4697 113.6456)" class="st10" width="1.1" height="5.7"/>
<rect x="82.6" y="31.4" transform="matrix(0.7691 -0.6392 0.6392 0.7691 -2.6529 61.0657)" class="st10" width="1.1" height="5.7"/>
<rect x="86.3" y="32.3" transform="matrix(9.237064e-02 -0.9957 0.9957 9.237064e-02 48.2752 118.551)" class="st10" width="5.7" height="1.1"/>
<path class="st4" d="M87.4,104.4c0,0-5.1,19.3,5,33.5l4.1-0.2c0,0-5.9-19.2,2.9-26.2l13-7L87.4,104.4z"/>
</svg>
