<?xml version="1.0" encoding="utf-8"?>
<!-- Generator: Adobe Illustrator 24.1.1, SVG Export Plug-In . SVG Version: 6.00 Build 0)  -->
<svg version="1.1" id="Layer_1" xmlns="http://www.w3.org/2000/svg" xmlns:xlink="http://www.w3.org/1999/xlink" x="0px" y="0px"
	 viewBox="0 0 4017 2677" style="enable-background:new 0 0 4017 2677;" xml:space="preserve">
<style type="text/css">
	.st0{fill:#FFD200;}
	.st1{fill:#251E8C;}
	.st2{fill:#F4A28C;}
	.st3{opacity:8.000000e-02;enable-background:new    ;}
	.st4{opacity:0.31;fill:#CE8172;enable-background:new    ;}
	.st5{fill:#07C1DB;}
	.st6{fill:#FFFFFF;}
</style>
<rect x="-93.3" y="-763.7" class="st0" width="4190.9" height="3558.7"/>
<path class="st1" d="M2167.4,2274.9c0,0,192.5,511,222.3,753.2H1254.9c0,0,49.8-623.8,199.1-779.8L2167.4,2274.9z"/>
<path class="st2" d="M1689.6,1057.2c142.7-175.9,428-142.7,521,63c29.9,69.7,46.5,142.7,46.5,219c19.9,448,252.2,693.5,464.5,617.2
	s315.2-451.3,315.2-451.3s172.5-122.8,212.4,0s-122.8,126.1-122.8,126.1s-205.7,1214.5-1108.3,438
	C1450.7,1571.5,1543.6,1236.3,1689.6,1057.2z"/>
<path class="st3" d="M1689.6,1057.2c142.7-175.9,428-142.7,521,63c29.9,69.7,46.5,142.7,46.5,219c19.9,448,252.2,693.5,464.5,617.2
	s315.2-451.3,315.2-451.3s172.5-122.8,212.4,0s-122.8,126.1-122.8,126.1s-205.7,1214.5-1108.3,438
	C1450.7,1571.5,1543.6,1236.3,1689.6,1057.2z"/>
<path class="st2" d="M1938.4,459.9c0,0,39.8,96.2,46.5,169.2c0,29.9-19.9,53.1-49.8,56.4c-46.5,6.6-89.6-16.6-112.8-56.4l-59.7-76.3
	c-19.9-33.2-16.6-79.6,10-109.5C1815.7,383.6,1918.5,400.2,1938.4,459.9z"/>
<polygon class="st2" points="1772.5,549.5 1732.7,891.3 1925.2,914.5 1875.4,655.7 "/>
<path class="st2" d="M1961.7,522.9l39.8,29.9c6.6,6.6,6.6,16.6,3.3,26.5l-3.3,3.3l-36.5,19.9L1961.7,522.9z"/>
<path class="st4" d="M1882,675.6c-19.9-3.3-36.5-10-53.1-19.9c0,0-23.2,122.8,73,129.4L1882,675.6z"/>
<path class="st2" d="M1848.9,569.4c0,0-13.3-39.8-39.8-26.5c-26.5,13.3-10,66.4,33.2,59.7L1848.9,569.4z"/>
<path class="st1" d="M1918.5,463.2c-29.9,16.6-63,29.9-96.2,36.5c0,0,23.2,116.1-49.8,179.2c0,0-146-129.4-73-232.3
	c63-86.3,106.2-159.3,199.1-122.8c39.8,16.6,63,59.7,46.5,99.5C1941.8,440,1931.8,453.3,1918.5,463.2z"/>
<circle class="st1" cx="1626.5" cy="423.4" r="106.2"/>
<path class="st2" d="M1848.9,556.1c0,0-23.2-43.1-53.1-19.9c-33.2,19.9-10,73,39.8,73L1848.9,556.1z"/>
<path class="st5" d="M1732.7,894.3l86.3,3.3c99.5,3.3,195.8,33.2,282,83c179.2,106.2,448,308.6,411.5,567.4
	c-56.4,381.6-345.1,726.7-345.1,726.7l-713.4-26.5C1454,2248.1,853.4,864.4,1732.7,894.3z"/>
<path class="st3" d="M1649.8,1033.9c0,0,384.9,275.4,152.6,759.9s59.7,467.9,59.7,467.9l-408.1-16.6l-66.4-175.9L1649.8,1033.9z"/>
<path class="st0" d="M1905.3,2374.5l-368.3,461.2c0,0,368.3,258.8,375,272.1c6.6,10,348.4-481.1,348.4-481.1L1905.3,2374.5z"/>
<path class="st2" d="M1387.6,997.4c-102.9,122.8-179.2,265.5-222.3,421.4c-79.6,262.1-199.1,663.6-156,826.2
	c29.9,116.1,195.8,209,288.7,268.8c109.5,73,248.9,179.2,381.6,205.7c39.8,10,83,13.3,126.1,13.3c43.1-3.3,83-26.5,102.9-63
	c6.6-10,10-23.2,6.6-33.2c-3.3-29.9-36.5-49.8-66.4-59.7c-26.5-10-59.7-13.3-83-23.2c10-13.3,23.2-26.5,36.5-36.5
	c10-6.6,16.6-19.9,16.6-33.2c-3.3-16.6-26.5,0-43.1,0c-66.4,6.6-129.4,29.9-185.8-13.3c-36.5-26.5-73-53.1-109.5-83
	c-46.5-39.8-172.5-136-139.4-212.4c43.1-102.9,507.7-716.7,477.8-925.8C1789.1,1040.6,1609.9,834.8,1387.6,997.4z"/>
<rect x="2895.6" y="1208.8" transform="matrix(0.6205 -0.7842 0.7842 0.6205 335.7379 3137.8647)" class="st5" width="1028.6" height="26.5"/>
<polygon class="st6" points="1945.1,2500.6 1895.3,2560.3 2074.5,2689.7 2120.9,2626.7 "/>
</svg>
