<?xml version="1.0" encoding="utf-8"?>
<!-- Generator: Adobe Illustrator 24.1.1, SVG Export Plug-In . SVG Version: 6.00 Build 0)  -->
<svg version="1.1" id="Layer_1" xmlns="http://www.w3.org/2000/svg" xmlns:xlink="http://www.w3.org/1999/xlink" x="0px" y="0px"
	 viewBox="0 0 216 162" style="enable-background:new 0 0 216 162;" xml:space="preserve">
<style type="text/css">
	.st0{fill:#F4A28C;}
	.st1{fill:#68E1FD;}
	.st2{opacity:0.46;fill:#FFFFFF;enable-background:new    ;}
	.st3{fill:#07C1DB;}
	.st4{fill:#251E8C;}
	.st5{opacity:0.08;enable-background:new    ;}
	.st6{fill:none;stroke:#251E8C;stroke-width:1.08;stroke-miterlimit:5.4;}
	.st7{fill:#FFD200;}
	.st8{opacity:0.31;fill:#CE8172;enable-background:new    ;}
	.st9{fill:#FFFFFF;}
	.st10{opacity:0.27;fill:#FFFFFF;enable-background:new    ;}
	.st11{opacity:0.55;fill:#FFFFFF;enable-background:new    ;}
	.st12{fill:#24285B;}
	.st13{opacity:0.1;fill:#251E8C;enable-background:new    ;}
</style>
<g>
	<path class="st0" d="M189.29,103.76c0,0-5.34,2.55-6.11,3.45c-0.77,0.91-0.66,1.93,0.7,4.22c1.37,2.29,2.21,1.75,2.89,1.62
		c0.68-0.13-0.25-1.43-0.25-1.43c0.97-0.19,1.9-0.55,2.75-1.06c1.41-0.85,2.02-3.02,2.18-3.26L189.29,103.76z"/>
	<path class="st1" d="M186.15,78.68c0,0,15.04,3.63,16.37,12.73c0.42,2.92-14.84,12.66-14.84,12.66l3.5,4.85
		c0,0,21.15-6.52,24.56-17.9c2.08-7.02-27.2-28.54-27.2-28.54L186.15,78.68z"/>
	<path class="st2" d="M186.15,78.68c0,0,15.04,3.63,16.37,12.73c0.42,2.92-14.84,12.66-14.84,12.66l3.5,4.85
		c0,0,21.15-6.52,24.56-17.9c2.08-7.02-27.2-28.54-27.2-28.54L186.15,78.68z"/>
	<path class="st3" d="M182.53,156.39l-0.14,3.06c0,0,4.91,2.45,6.82,1.91c1.91-0.54,1.35-2.61-0.77-2.8
		c-2.12-0.18-2.96-2.53-2.96-2.53L182.53,156.39z"/>
	<path class="st3" d="M159.76,156.39l0.14,3.06c0,0-4.94,2.45-6.85,1.91c-1.91-0.54-1.36-2.61,0.77-2.8s2.96-2.53,2.96-2.53
		L159.76,156.39z"/>
	<path class="st3" d="M195.88,73.61c1.01,18.93-4.02,35.68-4.02,35.68l-27.68,1.64l-14.94-29.79c-0.1-0.2-0.19-0.4-0.28-0.6
		c-2.28-5.38,0.24-11.59,5.62-13.87c8.68-3.7,18-5.69,27.44-5.86C189.33,60.64,195.46,66.3,195.88,73.61z"/>
	<path class="st4" d="M191.85,109.29l-3.04,1.72c-8.26,4.68-14.73,11.97-18.4,20.73l-10.37,24.73h-4.13l8.27-45.54L191.85,109.29z"
		/>
	<path class="st4" d="M173.44,113.41c9.92,7.57,8.64,43.06,8.64,43.06h5.49l4.28-47.18L173.44,113.41z"/>
	<path class="st5" d="M156.29,95.2c1.66,2.75,7.88,15.73,7.88,15.73l9.7-0.58c-5.55-6.27-8.01-14.7-6.69-22.97
		c2.23-13.98-4.84-18.52-4.84-18.52S154.63,92.45,156.29,95.2z"/>
	<path class="st1" d="M160.93,83.01c-7.42,13.92-10.81,44.25-10.81,44.25h-5.04c0,0-1.85-30.35-0.17-44.25
		c0.69-5.41,3.05-10.46,6.74-14.47c4.23-4.7,12.12-1.78,12.12,4.55C163.76,75.83,163,79.13,160.93,83.01z"/>
	<path class="st2" d="M160.93,83.01c-7.42,13.92-10.81,44.25-10.81,44.25h-5.04c0,0-1.85-30.35-0.17-44.25
		c0.69-5.41,3.05-10.46,6.74-14.47c4.23-4.7,12.12-1.78,12.12,4.55C163.76,75.83,163,79.13,160.93,83.01z"/>
	<path class="st6" d="M151.93,136.18v-2.3l0,0c0-1.63-1.32-2.94-2.94-2.94h-2.75l0,0c-1.63,0-2.94,1.32-2.94,2.94v2.14"/>
	<rect x="137.45" y="135.17" class="st7" width="20.99" height="13.67"/>
	<path class="st5" d="M137.45,148.85h20.99v-2.49c-13.12,1.99-20.99-4.77-20.99-4.77V148.85z"/>
	<path class="st0" d="M149.29,127.26c1.49,5.93-0.88,4.98-2.86,4.98c-1.99,0-0.47-4.98-0.47-4.98H149.29z"/>
	<path class="st0" d="M175.8,46.3c-1,0.79-1.38,2.12-0.97,3.32l1.33,2.77c0.48,1.38,1.72,2.35,3.18,2.49c0,0,0.01,0,0.01,0
		c0.92,0.13,1.76-0.51,1.89-1.42c0.14-1.85,0.03-3.72-0.32-5.54C180.64,45.91,177.56,44.78,175.8,46.3z"/>
	<polygon class="st0" points="178.64,53.69 179.72,61.78 173.71,61.19 175.54,50.4 	"/>
	<path class="st0" d="M180.82,52.44l1.25-0.38c0.07-0.02,0.14-0.06,0.2-0.11c0.22-0.2,0.24-0.53,0.05-0.76l-1.08-1.18L180.82,52.44z
		"/>
	<path class="st8" d="M179.1,57.12c-2.59-1.39-2.59-3.58-2.59-3.58c1.48,1.14,2.25,1.2,2.25,1.2L179.1,57.12z"/>
	<path class="st4" d="M176.75,50.47c-0.01-0.03-0.01-0.06-0.01-0.08c-0.12-0.96,0.56-1.83,1.51-1.96c1.78-0.22,4.05-0.94,3.03-3.29
		c-1.6-3.67-6.94-1.64-7.78,0.21c-0.84,1.85,0.78,5.24,0.78,5.24s2.52,4.14,4.61,5.1c2.09,0.96,4.28-1.53,2.6-3.11
		c-0.98-0.8-2.23-1.18-3.48-1.06c-0.6,0.01-1.13-0.41-1.25-1L176.75,50.47z"/>
	<path class="st0" d="M177.42,51.26c-1.35-0.04-1.57-1.87-0.62-2.08c0.95-0.21,1.11,1.07,1.11,1.07L177.42,51.26z"/>
	<path class="st9" d="M168.44,62.28c9.37,12.08,12.61,42.34,12.61,42.34c7.44-13.83,1.79-42.23,1.79-42.23
		C175.46,59.41,168.44,62.3,168.44,62.28z"/>
	<path class="st10" d="M181.06,104.62l8.54-11.09l-2.61-7.32l3.56-8.38l-7.7-15.43C188.24,96.35,181.06,104.62,181.06,104.62z"/>
	<path class="st4" d="M179.54,64.7l-2.17,0.27c0,0-2.68-2.48-1.54-4.11c0.59-0.85,1.61-0.06,2.33,0.06
		c0.82,0.11,1.34-0.09,1.48,0.73C179.74,62.67,179.7,63.69,179.54,64.7z"/>
	<path class="st4" d="M184.7,89.72c0.25,8.08-3.64,14.89-3.64,14.89l-2-12.74c0.19-10.09-1.68-26.9-1.68-26.9l2.17-0.27
		C182.52,74.04,184.69,89.72,184.7,89.72z"/>
	<path class="st1" d="M168.46,62.31l7.61,2.49l1.87-3.02l2.49,2.81l2.4-2.21C176.7,57.7,168.46,62.31,168.46,62.31z"/>
	<path class="st11" d="M168.46,62.31l7.61,2.49l1.87-3.02l2.49,2.81l2.4-2.21C176.7,57.7,168.46,62.31,168.46,62.31z"/>
	<path class="st10" d="M181.06,104.62l-7.6-10.81l2.45-7.36l-6.02-2.65l-1.45-21.49C177.65,74.22,181.06,104.62,181.06,104.62z"/>
</g>
<g>
	<g>
		<circle class="st7" cx="146.4" cy="55.06" r="3.58"/>
		<circle class="st7" cx="132.2" cy="50.28" r="1.85"/>
		<circle class="st7" cx="138.75" cy="37.25" r="1.85"/>
		<circle class="st7" cx="148.82" cy="46.3" r="1.85"/>
		<circle class="st7" cx="161.7" cy="49.18" r="2.18"/>
		<circle class="st7" cx="146.09" cy="40.89" r="1.79"/>
		
			<rect x="139.3" y="45.54" transform="matrix(0.3517 -0.9361 0.9361 0.3517 41.0039 164.8947)" class="st7" width="0.5" height="14.62"/>
		
			<rect x="130.76" y="45.33" transform="matrix(0.8285 -0.5599 0.5599 0.8285 -1.6622 85.7234)" class="st7" width="16.76" height="0.5"/>
		
			<rect x="147.5" y="51.83" transform="matrix(0.947 -0.3213 0.3213 0.947 -8.5264 52.4927)" class="st7" width="14.6" height="0.5"/>
		
			<rect x="142.33" y="34.5" transform="matrix(0.4739 -0.8806 0.8806 0.4739 40.8059 145.9859)" class="st7" width="0.5" height="8.69"/>
		
			<rect x="155.22" y="40.62" transform="matrix(0.1573 -0.9876 0.9876 0.1573 84.2429 193.4503)" class="st7" width="0.5" height="13.48"/>
	</g>
	<polygon class="st0" points="127.21,119.56 129.87,158.14 127.41,158.99 117.61,122.9 	"/>
	<path class="st3" d="M129.78,157.58c0,0,1.6,1.71,3.45,1.46s2.34,2.34-0.66,2.33c-0.93,0-1.87-0.07-2.79-0.23
		c-0.84-0.12-1.71-0.02-2.5,0.3c-0.33,0.11-0.69,0.01-0.91-0.26c-0.91-0.91,0.91-3.38,0.91-3.38L129.78,157.58z"/>
	<polygon class="st0" points="103.61,119.56 100.95,158.14 103.41,158.99 113.21,122.9 	"/>
	<path class="st3" d="M101.04,157.58c0,0-1.6,1.71-3.45,1.46s-2.34,2.34,0.66,2.33c0.93,0,1.87-0.07,2.79-0.23
		c0.84-0.12,1.71-0.02,2.5,0.3c0.33,0.12,0.7,0.01,0.91-0.26c0.91-0.91-0.91-3.38-0.91-3.38L101.04,157.58z"/>
	<polygon class="st0" points="111.83,53.48 111.11,57.63 107.38,57.9 109.65,51.27 	"/>
	<path class="st0" d="M93.27,63.99c-4.98,4.26-11.37,12.16-13.76,21.08c-1.59,5.89,1.18,12.09,6.63,14.84l16.41,8.26l2.12-2.94
		l-11.32-9.26c-2.58-2.11-2.96-5.9-0.85-8.48c0.01-0.01,0.01-0.02,0.02-0.03c3.7-4.5,8.82-11.64,10.03-18.12
		c0.59-3.08-1.44-6.06-4.52-6.64C96.33,62.38,94.58,62.85,93.27,63.99z"/>
	<path class="st0" d="M110.53,47.35c1.08-0.85,2.65-0.66,3.5,0.42c0.21,0.27,0.37,0.58,0.45,0.92c0.5,1.9,0.85,4.68-1.35,4.91
		c-3.37,0.35-3.97-4-3.97-4C109.39,48.73,109.86,47.95,110.53,47.35z"/>
	
		<rect x="89.31" y="101.63" transform="matrix(0.7883 -0.6152 0.6152 0.7883 -46.2996 85.6386)" class="st7" width="24.01" height="16.96"/>
	<path class="st3" d="M124.09,62.98c-8.38-6.1-19.68-6.3-28.27-0.5c-3.73,2.53-6.6,6.33-5.29,11.85
		c3.09,12.88,12.96,21.38,13.27,32.71l23.36-1.57V90.89c-0.01-2.79,1.15-5.46,3.19-7.36c2.03-1.88,4.06-4.94,2.67-9.12
		C131.76,70.62,128.57,66.28,124.09,62.98z"/>
	<path class="st0" d="M111.2,50.48c0,0-0.35-0.91-1.04-0.27c-0.69,0.64,0.23,1.57,0.77,1.37C111.47,51.38,111.2,50.48,111.2,50.48z"
		/>
	<path class="st5" d="M112.52,69.06c0,0-5.04,9.65,0.81,19.06s-5.24,18.6-5.24,18.6l19.05-1.28v-8.32L112.52,69.06z"/>
	<path class="st4" d="M102.08,59.9c1.12-1.42,4.29-3.49,3.91-9.9c-0.03-2.1,0.87-4.1,2.46-5.47c4.44-3.18,7.9,0.09,6.38,2.29
		c-1.51,2.2-2.39,3.19-2.39,3.19s5.33,8.98,2.39,12.59C112.24,65.8,97.52,65.79,102.08,59.9z"/>
	<path class="st0" d="M112.66,73.97c-1.45-2.57-0.83-5.81,1.47-7.66c1.37-1.05,3.37-1.62,6.28-0.75c5.37,1.59,13.76,8.92,18.4,13.26
		c0.94,0.87,2.4,0.82,3.27-0.12c0.34-0.36,0.55-0.82,0.61-1.32l2.2-19.37c0,0,0.02-4.56,1.62-4.53c1.6,0.03,0.22,3.4,0.22,3.4
		c1.14-0.4,2.39,0.2,2.79,1.33c0.04,0.11,0.07,0.22,0.09,0.33c0.52,2.4,1.49,26.28-1.95,29.4C141.19,93.77,120.63,88.6,112.66,73.97
		z"/>
	<polygon class="st4" points="102.74,101.04 127.13,101.04 131.02,134.8 98.68,144.44 	"/>
</g>
<g>
	<path class="st12" d="M35.12,59.57c0,0-0.66-5.87,17.16-4.51c17.82,1.36,24.06,0.54,30.05,15.12c5.99,14.58,3.29,39.47-11.55,45.85
		C55.95,122.4,20.67,124.44,35.12,59.57z"/>
	<path class="st13" d="M35.12,59.57c0,0-0.66-5.87,17.16-4.51c17.82,1.36,24.06,0.54,30.05,15.12c5.99,14.58,3.29,39.47-11.55,45.85
		C55.95,122.4,20.67,124.44,35.12,59.57z"/>
	<path class="st1" d="M21.53,63.35c0,0-9.23,13.04-4.62,27.9S4.42,118.77,4.42,118.77l3.85,5.04c0,0,22.5-13.9,23.45-39.04
		C31.42,76.52,27.73,68.78,21.53,63.35z"/>
	<path class="st2" d="M21.53,63.35c0,0-9.23,13.04-4.62,27.9S4.42,118.77,4.42,118.77l3.85,5.04c0,0,22.5-13.9,23.45-39.04
		C31.42,76.52,27.73,68.78,21.53,63.35z"/>
	<path class="st0" d="M39.68,47.75c0,0-0.29,3.01,0.2,5.02c0.2,0.82,1.03,1.31,1.84,1.11c0,0,0,0,0,0c1.3-0.24,2.33-1.22,2.65-2.5
		l0.93-2.62c0.27-1.12-0.2-2.29-1.17-2.91C42.43,44.6,39.77,45.91,39.68,47.75z"/>
	<polygon class="st0" points="45.03,50.11 45.65,60 40.18,59.95 41.92,52.77 	"/>
	<path class="st4" d="M40.43,47.89c0.93,0.05,1.87-0.02,2.79-0.19c-0.56,0.83-0.57,1.92-0.03,2.76c0.51,0.84,1.55,1.19,2.47,0.84
		v-3.88c0.04-1.13-0.55-2.2-1.53-2.76c-0.42-0.24-0.85-0.46-1.3-0.64c-1.11-0.46-2.76,0.27-3.75-0.49
		c-0.32-0.24-0.78-0.18-1.02,0.14c-0.07,0.1-0.12,0.21-0.14,0.33c-0.19,1.18,0,3.05,1.62,3.7C39.83,47.8,40.13,47.87,40.43,47.89z"
		/>
	<path class="st0" d="M42.87,50.39c0,0,0.03-1.16,0.91-1.08s0.84,1.78-0.35,1.92L42.87,50.39z"/>
	<path class="st0" d="M39.6,49.66l-0.85,1.16c-0.16,0.21-0.12,0.51,0.09,0.67c0.06,0.04,0.13,0.07,0.2,0.09l1.16,0.23L39.6,49.66z"
		/>
	<path class="st8" d="M41.98,53.02c0.7,0.03,1.4-0.14,2-0.49c0,0-0.17,1.83-2.6,2.95L41.98,53.02z"/>
	<path class="st3" d="M29.21,157.11c0,0-1.13,1.87-2.98,1.66c-1.85-0.21-2.7,1.48-1.14,2.27c1.56,0.79,6.19-0.47,6.19-0.47
		l0.54-3.37L29.21,157.11z"/>
	<path class="st3" d="M62.72,157.11c0,0,1.13,1.87,2.98,1.66s2.7,1.48,1.14,2.27c-1.56,0.79-6.19-0.47-6.19-0.47l-0.54-3.37
		L62.72,157.11z"/>
	<path class="st4" d="M35.9,57.74c0,0-17.71-0.49-20.65,13.5s1.33,27.67,9.56,29.16s15.91-42.66,15.91-42.66L35.9,57.74z"/>
	<path class="st3" d="M18.46,74.26c0.35-7.6,6.26-13.78,13.84-14.46c9.48-0.85,23.62-1.19,34.02,2.66
		c17.05,6.32-2.81,37.69-6.16,49.73l-27.68,1.25C32.49,113.44,17.61,93.59,18.46,74.26z"/>
	<path class="st5" d="M47.26,68.65l-2.88,10.22c0,0-8.13-2.91-8.47,4.17c-0.33,7.08,3.97,18.36,6.96,22.24s-2.33,8.01-2.33,8.01
		l19.59-1.11l5.73-17.39l5.79-7.02v-6.61l-9.11-12.51l-5.72-5.31L47.26,68.65z"/>
	<path class="st4" d="M43.64,76.64c0,0,4.76-15.66,14.48-16.31c12.75-0.83,15.31,7.36,15.31,7.36s-8.99-7.92-16.39-1.08
		c-7.4,6.84-7.26,15.63-4.9,23.1c2.37,7.46,14.16,10.8,14.16,10.8l-5.49,9.6C60.82,110.1,36.52,96.38,43.64,76.64z"/>
	<path class="st7" d="M40.98,43.91c0.22,2.69,2.15,4.93,4.78,5.52c0,0,2.23-2.34,1.25-4.41C46.04,42.96,43.61,41.05,40.98,43.91z"/>
	<path class="st1" d="M55.32,71.02c-0.54-7.16,7.65-11.73,13.45-7.51c7.4,5.4,15.18,15.87,9.1,34.95
		c-10.3,32.36-36.62-15.27-36.62-15.27l5.22-5.12c0,0,8.56,14.94,17.65,16.8C71.18,96.32,56.4,85.05,55.32,71.02z"/>
	<path class="st2" d="M55.32,71.02c-0.54-7.16,7.65-11.73,13.45-7.51c7.4,5.4,15.18,15.87,9.1,34.95
		c-10.3,32.36-36.62-15.27-36.62-15.27l5.22-5.12c0,0,8.56,14.94,17.65,16.8C71.18,96.32,56.4,85.05,55.32,71.02z"/>
	<path class="st0" d="M42.19,82.28c0,0-4.86-3.83-2.76-5.77c2.1-1.94,4.16-1.31,5.62,2.98L42.19,82.28z"/>
	<path class="st0" d="M5.27,119.89c0,0-3.71,2.24-4.23,4.38s3.78-0.89,7.22-0.47L5.27,119.89z"/>
	<path class="st4" d="M32.45,113.44l-4.41,44.28h5.43l5.61-21.75c2.42-9.38,8.69-17.31,17.28-21.8l3.78-1.98L32.45,113.44z"/>
	<path class="st4" d="M60.13,112.19l4.19,45.53h-5.8l-6.59-25.14c-1.8-6.83-5.96-12.79-11.73-16.85l0,0L60.13,112.19z"/>
</g>
</svg>
