<?xml version="1.0" encoding="utf-8"?>
<!-- Generator: Adobe Illustrator 24.1.1, SVG Export Plug-In . SVG Version: 6.00 Build 0)  -->
<svg version="1.1" id="Layer_1" xmlns="http://www.w3.org/2000/svg" xmlns:xlink="http://www.w3.org/1999/xlink" x="0px" y="0px"
	 viewBox="0 0 216 162" style="enable-background:new 0 0 216 162;" xml:space="preserve">
<style type="text/css">
	.st0{opacity:0.3;fill:#E6E6E6;enable-background:new    ;}
	.st1{fill:#251E8C;}
	.st2{fill:#C1C1C1;}
	.st3{fill:#E6E6E6;}
	.st4{opacity:0.58;fill:#68E1FD;enable-background:new    ;}
	.st5{opacity:0.73;fill:#68E1FD;enable-background:new    ;}
	.st6{fill:#68E1FD;}
	.st7{fill:#FFD200;}
	.st8{opacity:0.55;fill:#C1C1C1;enable-background:new    ;}
	.st9{fill:#F4A28C;}
	.st10{opacity:8.000000e-02;enable-background:new    ;}
	.st11{opacity:0.31;fill:#CE8172;enable-background:new    ;}
	.st12{fill:#24285B;}
	.st13{fill:#07C1DB;}
	.st14{fill:#FFFFFF;}
</style>
<path class="st0" d="M50.9,27.8c-30,3.3-34.4,54.5-20.2,84.4s69.5,26.7,128.7,15.7c30.4-5.7,35.6-25.7,33.4-43.7
	c-2.6-21.5-15.6-39.2-33.1-46.2C125.3,24.2,74.7,25.2,50.9,27.8z"/>
<path class="st1" d="M171.1,107.6c4.6,4.8,6,23.5,6,23.5H143c0.9-7.3,6.7-22.7,6.7-22.7L171.1,107.6z"/>
<path class="st2" d="M168.3,98.3L168.3,98.3c0,1.2-1,2.2-2.2,2.2H40.8c-1.2,0-2.2-1-2.2-2.2v0c0-1.2,1-2.2,2.2-2.2H166
	C167.3,96,168.3,97,168.3,98.3z"/>
<rect x="31.2" y="120.1" class="st3" width="56.3" height="11.8"/>
<path class="st4" d="M39.7,114.5c0.2-7.9,7.8-6.3,7.8-6.3c-1.1,4.6-6,5.9-6,5.9L39.7,114.5z"/>
<path class="st5" d="M38.1,113.7c-2.6-6.8,3.2-10.5,3.2-10.5c3,5.1-0.4,10.5-0.4,10.5L38.1,113.7z"/>
<path class="st6" d="M36.3,113.7c-4.6-3.1-3.6-6.8-3.6-6.8c5.5,1.1,7.3,6.8,7.3,6.8L36.3,113.7z"/>
<polygon class="st1" points="35.4,113.6 36.3,120.4 42.6,120.3 43.6,113.5 "/>
<rect x="52.2" y="116.9" class="st7" width="25.8" height="3.4"/>
<rect x="49.9" y="113.5" class="st8" width="25.8" height="3.4"/>
<rect x="41.3" y="28.8" class="st3" width="121.9" height="67.3"/>
<rect x="85.3" y="41.6" class="st2" width="55.4" height="2"/>
<rect x="58.2" y="41.6" class="st2" width="24.2" height="2"/>
<rect x="119.3" y="48.8" class="st2" width="19.3" height="2"/>
<rect x="65.9" y="48.8" class="st2" width="50.5" height="2"/>
<rect x="98" y="56" class="st2" width="35.8" height="2"/>
<rect x="58.2" y="56" class="st2" width="37.5" height="2"/>
<rect x="108.4" y="63.2" class="st2" width="32.3" height="2"/>
<rect x="69.6" y="63.2" class="st2" width="36.4" height="2"/>
<rect x="81.1" y="70.4" class="st2" width="43.3" height="2"/>
<rect x="126.7" y="70.4" class="st2" width="12.9" height="2"/>
<rect x="63.6" y="70.4" class="st2" width="14.2" height="2"/>
<polygon class="st2" points="58.2,77.7 58.2,79.6 89.8,79.6 89.8,77.7 91.8,77.7 91.8,79.6 136.6,79.6 136.6,77.7 "/>
<path class="st9" d="M154.1,102.1C126.9,125.6,120.7,89,120.7,89s-4.9,0-3.7-3.8c1.2-3.7,6.4,0,6.4,0s3.1,11.3,9.5,13.6
	c6.4,2.3,13.4-5,14-18.6c0-2.3,0.5-4.5,1.4-6.6c2.8-6.2,11.4-7.2,15.7-1.9C168.4,77.2,171.2,87.3,154.1,102.1z"/>
<path class="st10" d="M154.1,102.1C126.9,125.6,120.7,89,120.7,89s-4.9,0-3.7-3.8c1.2-3.7,6.4,0,6.4,0s3.1,11.3,9.5,13.6
	c6.4,2.3,13.4-5,14-18.6c0-2.3,0.5-4.5,1.4-6.6c2.8-6.2,11.4-7.2,15.7-1.9C168.4,77.2,171.2,87.3,154.1,102.1z"/>
<path class="st9" d="M161.5,53.3c0.8,0.9,0.9,2.2,0.3,3.3l-1.8,2.3c-0.7,1.2-2.1,1.8-3.4,1.7c-0.9-0.1-1.5-0.8-1.5-1.7
	c0.1-2.2,1.4-5.1,1.4-5.1C157.1,52,160.2,51.5,161.5,53.3z"/>
<polygon class="st9" points="158.4,59.7 156.9,67.5 162.7,66.8 161.5,56.5 "/>
<path class="st9" d="M155.7,58.1l-1.1-0.6c0,0-0.1-0.1-0.1-0.1c-0.2-0.2-0.2-0.6,0.1-0.8l1.2-0.9L155.7,58.1z"/>
<path class="st11" d="M157.6,63.6c2.8-0.2,2.2-3.9,2.2-3.9c-0.5,0.3-1,0.5-1.6,0.6L157.6,63.6z"/>
<path class="st9" d="M159.5,58.1c1.2,0.2,1.8-1.4,1-1.8c-0.8-0.4-1.2,0.8-1.2,0.8L159.5,58.1z"/>
<path class="st12" d="M156.3,52.8c-0.5-1.2,0.2-2.6,1.4-3c2.8-1,4.1,1.1,6,3.7c2.2,3.1-2.2,7-2.2,7c-2.3-1.9-1.5-5.4-1.5-5.4
	c-1-0.2-2-0.6-2.8-1.1C156.7,53.6,156.4,53.2,156.3,52.8z"/>
<circle class="st12" cx="165.9" cy="52.7" r="3.2"/>
<path class="st9" d="M159.6,58.3c1.6-0.1,2.2-1.6,1.2-2.2c-1-0.6-1.6,0.6-1.6,0.6L159.6,58.3z"/>
<path class="st13" d="M171.1,107.6l-21.5,0.8c0,0-8.8-10.4-10.4-21.9c-1.1-7.8,7-13.9,12.4-17.1c2.6-1.5,5.5-2.4,8.5-2.5l2.6-0.1
	C189.2,65.9,171.1,107.6,171.1,107.6z"/>
<path class="st10" d="M173.1,102.3l-2,5.3l-12.3,0.5c0,0,8.7,0.6,1.8-14.1s4.6-22.9,4.6-22.9L173.1,102.3z"/>
<path class="st7" d="M146.8,119.1c0,0,10.3,14.8,10.5,14.5c0.2-0.3,11.3-8.2,11.3-8.2l-11.1-13.9L146.8,119.1z"/>
<path class="st9" d="M160.1,77.5c-0.9,6.3,13,24.8,14.4,27.9c1,2.3-2.8,5.2-4.2,6.4c-1.1,0.9-2.2,1.7-3.3,2.5
	c-1.7,1.2-3.5,0.6-5.6,0.4c-0.5,0-1.3-0.5-1.3,0c0,0.4,0.2,0.8,0.5,1c0.4,0.3,0.8,0.7,1.1,1.1c-0.8,0.3-1.8,0.4-2.5,0.7
	c-0.9,0.4-1.9,0.9-2,1.8c0,0.4,0.1,0.7,0.2,1c0.7,1.1,1.8,1.8,3.1,1.9c1.3,0.1,2.5,0,3.8-0.4c3.9-0.8,8.1-4,11.5-6.2
	c2.8-1.8,7.8-4.6,8.7-8.1c1.3-4.9-2.4-17-4.7-24.9c-1.3-4.6-3.6-9-6.7-12.7C166.4,65.1,161,71.2,160.1,77.5z"/>
<rect x="111.8" y="61.2" transform="matrix(0.7842 -0.6205 0.6205 0.7842 -23.3976 86.1863)" class="st12" width="0.8" height="31"/>
<path class="st7" d="M74.4,93.6v1.2c0,0.7-0.5,1.2-1.2,1.2H59.6c-0.7,0-1.2-0.5-1.2-1.2v-1.2l0,0H74.4L74.4,93.6z"/>
<path class="st14" d="M72.4,90.5c0.5,0,1,0.4,1,1v2.2l0,0h-14l0,0v-2.2c0-0.5,0.4-1,1-1H72.4L72.4,90.5z"/>
<polygon class="st14" points="151,119.1 152.4,121 157.8,117.1 156.3,115.3 "/>
</svg>
