<?xml version="1.0" encoding="utf-8"?>
<!-- Generator: Adobe Illustrator 24.1.1, SVG Export Plug-In . SVG Version: 6.00 Build 0)  -->
<svg version="1.1" id="Layer_1" xmlns="http://www.w3.org/2000/svg" xmlns:xlink="http://www.w3.org/1999/xlink" x="0px" y="0px"
	 viewBox="0 0 4017 2677" style="enable-background:new 0 0 4017 2677;" xml:space="preserve">
<style type="text/css">
	.st0{fill:#251E8C;}
	.st1{fill:#F4A28C;}
	.st2{fill:#68E1FD;}
	.st3{opacity:8.000000e-02;enable-background:new    ;}
	.st4{opacity:0.31;fill:#CE8172;enable-background:new    ;}
	.st5{fill:#FFFFFF;}
	.st6{fill:#07C1DB;}
	.st7{fill:#FFD200;}
	.st8{fill:none;stroke:#251E8C;stroke-width:1.08;stroke-miterlimit:5.4;}
	.st9{opacity:0.31;fill:#FFFFFF;enable-background:new    ;}
	.st10{opacity:0.46;fill:#FFFFFF;enable-background:new    ;}
	.st11{fill:#24285B;}
</style>
<rect x="-93.3" y="-763.7" class="st0" width="4190.9" height="3558.7"/>
<path class="st1" d="M2548.6,2499c0,0-145.2,73.6-89.7,158.7c55.5,85.1,176.5-79.3,176.5-79.3L2548.6,2499z"/>
<path class="st2" d="M2216.7,1044.2c-12.7-46.1,14.3-93.8,60.5-106.5c14.8-4.1,30.4-4.2,45.2-0.2
	c275.7,75.4,517.9,241.6,687.4,471.7c30.2,40.9,59,80.9,86,119.5c187.3,266.5,128.6,633.7-132.3,828.6l-312.9,234.1l-123.7-113.1
	l251-239.9c131.1-125.3,135.8-333.2,10.5-464.4c-3.8-4-7.7-7.8-11.6-11.6l-492.9-466.2L2216.7,1044.2z"/>
<path class="st3" d="M2216.7,1044.2c-12.7-46.1,14.3-93.8,60.5-106.5c14.8-4.1,30.4-4.2,45.2-0.2
	c275.7,75.4,517.9,241.6,687.4,471.7c30.2,40.9,59,80.9,86,119.5c187.3,266.5,128.6,633.7-132.3,828.6l-312.9,234.1l-123.7-113.1
	l251-239.9c131.1-125.3,135.8-333.2,10.5-464.4c-3.8-4-7.7-7.8-11.6-11.6l-492.9-466.2L2216.7,1044.2z"/>
<path class="st1" d="M1926.7,619.9c25,48.5,43.4,100.2,54.5,153.7c4,26.8-14.5,51.7-41.3,55.6c-0.2,0-0.4,0.1-0.6,0.1
	c-41.9,8.4-84.9-8.5-109.9-43.2l-59.7-68.4c-21.6-30.5-21.6-71.3,0-101.8C1805.9,558.3,1901.9,565.6,1926.7,619.9z"/>
<polygon class="st1" points="1799.9,692.5 1785.7,1013.3 1963,1008.5 1902.1,777.1 "/>
<path class="st1" d="M1862.3,736.9c0,0-15-34.6-40.1-21.1c-25.2,13.4-3.6,63.6,34,53.6L1862.3,736.9z"/>
<path class="st1" d="M1952.2,676.4l39.8,24.4c7.3,4.7,9.4,14.4,4.7,21.8c-1.2,1.9-2.8,3.5-4.7,4.7l-31.9,20.7L1952.2,676.4z"/>
<path class="st4" d="M1916.5,830.1c-22.5-3-43.7-12.6-60.9-27.5c0,0,9.2,57.6,79.9,108.3L1916.5,830.1z"/>
<path class="st5" d="M1792.2,779l-68.8-116.8c0,0-63.6-19.2-35.9-69.7c27.7-50.5,69-27.7,84.7-93.3c3.5-31.6,31.9-54.5,63.5-51
	c17.1,1.9,32.5,11.3,41.9,25.7c23.2,34,105.8-2.7,104.3,57.6s-78.6,84.9-100.5,91.8C1785.7,653.2,1905.3,758,1792.2,779z"/>
<path class="st6" d="M2314.3,3857.7c0,0,26.1,72.4,91.4,78c65.3,5.6,82.6,69.3,23.8,86c-58.8,16.7-211.3-59-211.3-59l4.2-94.3
	L2314.3,3857.7z"/>
<path class="st6" d="M1428.8,3857.7c0,0-26.1,72.4-91.4,78c-65.3,5.6-82.6,69.3-23.8,86c58.8,16.7,211.3-59,211.3-59l-4.2-94.3
	L1428.8,3857.7z"/>
<path class="st6" d="M2207.1,919.4c-291.2,5.4-578.6,66.9-846.5,181.1c-166.1,70.3-243.7,261.9-173.4,428c2.7,6.3,5.5,12.5,8.6,18.6
	l461,918.7l854-50.5c0,0,155.4-516.3,124.3-1100.4C2622,1089.4,2432.9,914.7,2207.1,919.4z"/>
<path class="st7" d="M1656.6,2465.6l-255.1,1405h127.5l319.8-762.7c113.3-270.1,313-495.1,567.8-639.6l93.9-53.2L1656.6,2465.6z"/>
<path class="st7" d="M2510.6,2415.2l-131.8,1455.5h-169.6c0,0,39.6-1094.8-266.4-1328.4L2510.6,2415.2z"/>
<path class="st6" d="M1600.1,1167.9c0,0,218,140.2,149.4,571.4c-40.6,255.2,35.2,515.3,206.5,708.7l-299.4,17.7
	c0,0-192.1-400.1-243.2-485C1362.4,1895.9,1600.1,1167.9,1600.1,1167.9z"/>
<path class="st2" d="M1644.3,1298.5c1-195.3-243.2-285.4-373.8-140.2c-114,123.5-186.6,279.5-207.8,446.2
	c-52.1,428.9,5.2,1365.3,5.2,1365.3h155.2c0,0,104.9-935.8,333.8-1365.3C1620.7,1484.8,1643.9,1383,1644.3,1298.5z"/>
<path class="st3" d="M1644.3,1298.5c1-195.3-243.2-285.4-373.8-140.2c-114,123.5-186.6,279.5-207.8,446.2
	c-52.1,428.9,5.2,1365.3,5.2,1365.3h155.2c0,0,104.9-935.8,333.8-1365.3C1620.7,1484.8,1643.9,1383,1644.3,1298.5z"/>
<path class="st8" d="M1012.6,3240.2v-66.3c0-50.1,40.6-90.7,90.7-90.7l0,0h85.9c50.1,0,90.7,40.6,90.7,90.7l0,0v71.1"/>
<rect x="632.1" y="3407.3" class="st7" width="1047.9" height="228.4"/>
<rect x="632.1" y="3407.3" class="st3" width="1047.9" height="228.4"/>
<polygon class="st7" points="1552.1,3214.1 1680,3407.3 632.1,3407.3 760.2,3214.1 "/>
<path class="st1" d="M1094.8,2969.8c0,0-46.5,154.6,14.8,154.6c61.3,0,134.5,29.4,88.2-154.6H1094.8z"/>
<path class="st7" d="M1669.3,591.1l332.1-44.9c7.1-1.1,12.1-7.7,11-14.8c-0.5-3.6-2.5-6.7-5.4-8.8l-14.2-9.8
	c-16.2-10.9-27.7-27.6-32.1-46.7c-12.5-51.7-49.6-155.8-149-160c-127.2-5.6-252.6,89.7-176.5,265.6
	C1640.8,585.1,1654.8,593.1,1669.3,591.1z"/>
<path class="st9" d="M1640.5,475.1c-0.9-45.7,19.9-89.2,56.1-117.2c4.7-3.2,11.2-2,14.4,2.7c2,2.9,2.4,6.7,1,9.9
	c-16,33-24.9,69-26.1,105.6c-0.4,10.9-8.4,19.9-19.2,21.5l0,0c-12.4,1.9-23.9-6.6-25.9-18.9C1640.6,477.6,1640.5,476.4,1640.5,475.1
	z"/>
<path class="st7" d="M1650.1,2499c0,0,103.1-548.2,103.1-851.1c0-447.7-162.1-638.8-162.1-638.8l67.2-21.5
	c0,0,140.6,229.1,371.7,180.4c215.1-45.1,160.6-253.9,159.6-257h62.2c0,0,200.5,164,247.6,428.1c79.9,447.5,10.6,1075.6,10.6,1075.6
	L1650.1,2499z"/>
<rect x="1584" y="2415.2" class="st0" width="916" height="116"/>
<path class="st6" d="M1586.1,2354.9h104.7c22.4,0,40.5,18.1,40.5,40.5v190.9c0,22.4-18.1,40.5-40.5,40.5h-104.7
	c-22.4,0-40.5-18.1-40.5-40.5v-190.9C1545.6,2373.1,1563.7,2354.9,1586.1,2354.9z"/>
<path class="st10" d="M1586.1,2354.9h104.7c22.4,0,40.5,18.1,40.5,40.5v49.7c0,22.4-18.1,40.5-40.5,40.5h-104.7
	c-22.4,0-40.5-18.1-40.5-40.5v-49.7C1545.6,2373.1,1563.7,2354.9,1586.1,2354.9z"/>
<circle class="st11" cx="1638.6" cy="2419.5" r="25.9"/>
<path class="st6" d="M1805.3,2354.9H1910c22.4,0,40.5,18.1,40.5,40.5v190.9c0,22.4-18.1,40.5-40.5,40.5h-104.7
	c-22.4,0-40.5-18.1-40.5-40.5v-190.9C1764.7,2373.1,1782.9,2354.9,1805.3,2354.9z"/>
<path class="st10" d="M1805.3,2354.9H1910c22.4,0,40.5,18.1,40.5,40.5v49.7c0,22.4-18.1,40.5-40.5,40.5h-104.7
	c-22.4,0-40.5-18.1-40.5-40.5v-49.7C1764.7,2373.1,1782.9,2354.9,1805.3,2354.9z"/>
<circle class="st11" cx="1857.5" cy="2419.5" r="25.9"/>
<path class="st6" d="M2389.8,2354.9h104.7c22.4,0,40.5,18.1,40.5,40.5v190.9c0,22.4-18.1,40.5-40.5,40.5h-104.7
	c-22.4,0-40.5-18.1-40.5-40.5v-190.9C2349.2,2373.1,2367.4,2354.9,2389.8,2354.9z"/>
<path class="st10" d="M2389.8,2354.9h104.7c22.4,0,40.5,18.1,40.5,40.5v49.7c0,22.4-18.1,40.5-40.5,40.5h-104.7
	c-22.4,0-40.5-18.1-40.5-40.5v-49.7C2349.2,2373.1,2367.4,2354.9,2389.8,2354.9z"/>
<circle class="st11" cx="2442" cy="2419.5" r="25.9"/>
</svg>
