<svg xmlns="http://www.w3.org/2000/svg" width="32.487" height="32.487" viewBox="0 0 32.487 32.487"><defs><style>.a{fill:#fff;}</style></defs><path class="a" d="M24.244,40.487A16.244,16.244,0,1,0,8,24.244,16.241,16.241,0,0,0,24.244,40.487Zm-1.893-9.406L27.3,26.34H15.336a1.568,1.568,0,0,1-1.572-1.572V23.72a1.568,1.568,0,0,1,1.572-1.572H27.3l-4.945-4.742a1.574,1.574,0,0,1-.026-2.247l.72-.714a1.565,1.565,0,0,1,2.22,0l8.692,8.685a1.565,1.565,0,0,1,0,2.22l-8.692,8.692a1.565,1.565,0,0,1-2.22,0l-.72-.714A1.574,1.574,0,0,1,22.351,31.082Z" transform="translate(-8 -8)"/></svg>