<svg xmlns="http://www.w3.org/2000/svg" width="25.223" height="25.224" viewBox="0 0 25.223 25.224"><defs><style>.a{fill:#fff;}</style></defs><path class="a" d="M23.532,6.281a12.559,12.559,0,0,0-4.59-4.59A12.336,12.336,0,0,0,12.612,0,12.336,12.336,0,0,0,6.281,1.691a12.556,12.556,0,0,0-4.59,4.59A12.336,12.336,0,0,0,0,12.612a12.339,12.339,0,0,0,1.691,6.33,12.559,12.559,0,0,0,4.59,4.59,12.338,12.338,0,0,0,6.331,1.691,12.338,12.338,0,0,0,6.331-1.691,12.555,12.555,0,0,0,4.59-4.59,12.338,12.338,0,0,0,1.691-6.33A12.339,12.339,0,0,0,23.532,6.281ZM12.612,1.839a10.38,10.38,0,0,1,7.11,2.693l-.205.287a7.123,7.123,0,0,1-.616.665,10.555,10.555,0,0,1-1.076.936,14.407,14.407,0,0,1-1.585,1.01,15.244,15.244,0,0,1-2.135.994,46.833,46.833,0,0,0-4.04-6.273A10.864,10.864,0,0,1,12.612,1.839ZM4.171,5.928A10.627,10.627,0,0,1,8.014,2.874a56.531,56.531,0,0,1,4.007,6.207,38.958,38.958,0,0,1-9.951,1.314A10.647,10.647,0,0,1,4.171,5.928ZM2.562,16.5a10.567,10.567,0,0,1-.723-3.884,2.676,2.676,0,0,1,.016-.345A38.408,38.408,0,0,0,12.908,10.74q.526,1.018.87,1.823a1.328,1.328,0,0,1-.214.074l-.214.057-.607.213a12.63,12.63,0,0,0-1.634.788q-1.01.559-2.143,1.33a14.672,14.672,0,0,0-2.34,2.045A13.764,13.764,0,0,0,4.6,19.8,10.785,10.785,0,0,1,2.562,16.5Zm10.05,6.889a10.57,10.57,0,0,1-6.864-2.463l.246.181a8.789,8.789,0,0,1,1.691-2.431,14.276,14.276,0,0,1,2.151-1.881,21.2,21.2,0,0,1,2.25-1.347q1.215-.632,1.659-.8t.706-.271l.033-.017h.033a44.393,44.393,0,0,1,2.3,8.178A10.767,10.767,0,0,1,12.612,23.384Zm9.065-4.951a10.761,10.761,0,0,1-3.038,3.112,46.268,46.268,0,0,0-2.1-7.7,15.514,15.514,0,0,1,6.716.476A10.627,10.627,0,0,1,21.677,18.433Zm1.543-5.969q-.164-.033-.411-.074l-.6-.1q-.353-.057-.788-.107t-.928-.09q-.492-.041-1.051-.066T18.31,12q-.574,0-1.207.033t-1.223.115a1.945,1.945,0,0,1-.123-.271c-.049-.126-.085-.222-.106-.287q-.312-.69-.723-1.56a16.852,16.852,0,0,0,2.16-1.059,16.784,16.784,0,0,0,1.642-1.067,13.65,13.65,0,0,0,1.166-.994,9.477,9.477,0,0,0,.715-.731q.164-.206.312-.4l.017-.017A10.534,10.534,0,0,1,23.384,12.5Z" transform="translate(0 0)"/></svg>