<svg xmlns="http://www.w3.org/2000/svg" width="14.791" height="27.358" viewBox="0 0 14.791 27.358"><defs><style>.a{fill:#fff;}</style></defs><g transform="translate(-22.077)"><path class="a" d="M36.311.006,32.764,0C28.778,0,26.2,2.643,26.2,6.733v3.1H22.635a.558.558,0,0,0-.558.558v4.5a.558.558,0,0,0,.558.558H26.2V26.8a.558.558,0,0,0,.558.558h4.654a.558.558,0,0,0,.558-.558V15.451h4.171a.558.558,0,0,0,.558-.558l0-4.5a.558.558,0,0,0-.558-.558H31.972V7.206c0-1.265.3-1.907,1.949-1.907h2.39a.558.558,0,0,0,.558-.558V.564A.558.558,0,0,0,36.311.006Z"/></g></svg>