<svg xmlns="http://www.w3.org/2000/svg" width="25.093" height="25.093" viewBox="0 0 25.093 25.093"><defs><style>.a{fill:#fff;}</style></defs><g transform="translate(0.319 0.249)"><g transform="translate(0 7.812)"><rect class="a" width="5.54" height="17.032"/></g><g transform="translate(7.742 7.812)"><path class="a" d="M172.889,160.2c-.059-.019-.115-.039-.177-.056s-.149-.031-.225-.043a4.965,4.965,0,0,0-.994-.1,7.7,7.7,0,0,0-5.954,3.256V160H160v17.032h5.54v-9.29s4.187-5.831,5.953-1.548v10.839h5.539V165.539A5.524,5.524,0,0,0,172.889,160.2Z" transform="translate(-160 -160)"/></g><g transform="translate(0.024 0.093)"><g transform="translate(0 0)"><circle class="a" cx="3" cy="3" r="3" transform="translate(-0.343 -0.343)"/></g></g></g></svg>